<?xml version="1.0" encoding="utf-8"?>
<!-- Generator: Adobe Illustrator 15.1.0, SVG Export Plug-In . SVG Version: 6.00 Build 0)  -->
<!DOCTYPE svg PUBLIC "-//W3C//DTD SVG 1.1//EN" "http://www.w3.org/Graphics/SVG/1.1/DTD/svg11.dtd">
<svg version="1.1" id="Layer_1" xmlns="http://www.w3.org/2000/svg" xmlns:xlink="http://www.w3.org/1999/xlink" x="0px" y="0px"
	 width="188.784px" height="66px" viewBox="0 0 188.784 66" enable-background="new 0 0 188.784 66" xml:space="preserve">
<g>
	<path fill="#58595B" d="M48.88,55.255c0.188,1.003,0.094,1.833-0.282,2.491s-0.878,1.143-1.504,1.457
		c-0.314,0.125-0.644,0.188-0.987,0.188c-0.345,0-0.705,0.062-1.081,0.188c-1.379,0.313-2.742,0.235-4.089-0.234
		c-1.348-0.471-2.272-1.049-2.773-1.739c-0.314-0.438-0.596-0.954-0.846-1.551c-0.251-0.595-0.564-1.081-0.94-1.457
		c-0.126-0.125-0.267-0.249-0.423-0.376c-0.157-0.125-0.361-0.156-0.611-0.094c-0.69,0.188-1.333,0.533-1.927,1.033
		c-0.596,0.503-1.175,0.94-1.739,1.316c-0.815,0.502-1.692,0.956-2.632,1.363c-0.94,0.408-1.943,0.768-3.008,1.081
		c-0.627,0.188-1.301,0.312-2.021,0.376c-0.721,0.062-1.426,0.155-2.115,0.281c-0.314,0.062-0.58,0.095-0.799,0.095
		c-0.22,0-0.456,0-0.705,0c-0.69,0.124-1.348,0.124-1.974,0h-0.846c-0.314-0.063-0.627-0.095-0.94-0.095
		c-0.314,0-0.597-0.062-0.846-0.188c-0.251-0.062-0.455-0.079-0.611-0.047c-0.157,0.031-0.329,0.015-0.517-0.047
		c-0.502-0.127-1.003-0.235-1.504-0.329c-0.502-0.095-0.973-0.235-1.41-0.423c-1.88-0.814-3.4-1.739-4.559-2.773
		c-1.16-1.033-2.115-2.49-2.867-4.371c-0.564-1.377-0.846-3.039-0.846-4.982v-1.973c0.062-0.313,0.109-0.643,0.141-0.988
		c0.031-0.344,0.078-0.705,0.141-1.08c0.25-0.689,0.501-1.378,0.752-2.068c0.25-0.689,0.564-1.316,0.94-1.88
		c1.128-1.817,2.663-3.163,4.606-4.042c1.941-0.877,4.073-1.66,6.392-2.35c0.876-0.25,1.786-0.438,2.726-0.564
		c0.94-0.125,1.88-0.282,2.82-0.471c0.438-0.124,0.86-0.188,1.269-0.188c0.407,0,0.86-0.062,1.363-0.188
		c0.438-0.125,0.877-0.203,1.316-0.235c0.438-0.03,0.908-0.108,1.41-0.235c1.566-0.375,3.039-0.705,4.418-0.987
		c1.378-0.282,2.475-0.987,3.29-2.115c0.376-0.501,0.689-1.143,0.94-1.927c0.25-0.783,0.25-1.645,0-2.585
		c-0.376-1.504-0.925-2.693-1.645-3.572c-0.721-0.877-1.739-1.566-3.055-2.068c-0.752-0.313-1.645-0.532-2.679-0.658
		c-1.034-0.125-2.115-0.188-3.243-0.188s-2.225,0.063-3.29,0.188c-1.066,0.126-1.974,0.314-2.726,0.564
		c-1.066,0.376-2.1,0.909-3.102,1.598c-0.502,0.376-0.957,0.862-1.363,1.457c-0.408,0.596-0.768,1.238-1.081,1.927
		c-0.188,0.502-0.361,1.034-0.517,1.598c-0.157,0.564-0.455,1.003-0.893,1.316c-0.251,0.188-0.674,0.329-1.269,0.423
		c-0.597,0.094-1.208,0.141-1.833,0.141c-0.627,0-1.238-0.047-1.833-0.141c-0.597-0.094-1.02-0.235-1.269-0.423
		c-0.251-0.188-0.439-0.501-0.564-0.94c-0.126-0.438-0.126-0.908,0-1.41c0.188-0.813,0.391-1.582,0.611-2.303
		c0.219-0.72,0.485-1.425,0.799-2.115c1.19-2.193,2.694-3.901,4.512-5.123c1.817-1.222,4.073-2.209,6.768-2.961
		c0.625-0.125,1.269-0.219,1.927-0.282c0.658-0.062,1.331-0.156,2.021-0.282c0.25-0.062,0.658-0.078,1.222-0.047
		c0.564,0.032,0.908-0.015,1.034-0.141c4.386-0.062,8.208,0.439,11.468,1.504c3.258,1.066,5.546,3.102,6.862,6.11
		c0.564,1.254,0.893,2.711,0.987,4.371c0.094,1.661,0.141,3.4,0.141,5.217v20.773c0,0.879,0.031,1.725,0.094,2.539
		c0.062,0.814,0.25,1.473,0.564,1.974c0.313,0.438,0.72,0.752,1.222,0.94c0.564,0.25,1.096,0.422,1.598,0.517
		c0.5,0.094,0.876,0.392,1.128,0.893c0.125,0.188,0.188,0.376,0.188,0.563C48.786,54.69,48.817,54.941,48.88,55.255z M35.438,44.82
		c0.376-0.877,0.579-1.895,0.611-3.055c0.031-1.158,0.047-2.365,0.047-3.619c0-0.688-0.033-1.316-0.094-1.88
		c-0.063-0.563-0.314-1.001-0.752-1.315c-0.188-0.125-0.627-0.188-1.316-0.188c-0.126,0.126-0.345,0.188-0.658,0.188
		c-0.314,0-0.596,0.062-0.846,0.188c-0.502,0.127-1.066,0.251-1.692,0.376c-0.627,0.126-1.254,0.251-1.88,0.376
		c-0.188,0-0.392,0.016-0.611,0.047c-0.22,0.033-0.456,0.047-0.705,0.047c-0.94,0.252-1.959,0.393-3.055,0.424
		c-1.097,0.031-2.115,0.173-3.055,0.422c-0.502,0.127-0.956,0.235-1.363,0.33c-0.408,0.094-0.862,0.203-1.363,0.328
		c-1.003,0.314-1.943,0.705-2.82,1.176c-0.878,0.47-1.63,1.05-2.256,1.738c-0.627,0.69-1.097,1.521-1.41,2.491
		c-0.314,0.973-0.439,2.147-0.376,3.524c0,0.628,0.108,1.208,0.329,1.74c0.219,0.533,0.485,1.019,0.799,1.457
		c0.5,0.689,1.159,1.269,1.974,1.738c0.814,0.471,1.692,0.862,2.632,1.176c0.312,0.062,0.625,0.094,0.94,0.094
		c0.313,0,0.625,0.031,0.94,0.094c0.438,0.126,0.987,0.204,1.645,0.234c0.658,0.033,1.206-0.014,1.645-0.141
		c0.376-0.125,0.752-0.172,1.128-0.141c0.376,0.032,0.752-0.016,1.128-0.141c0.501-0.125,0.987-0.219,1.457-0.283
		c0.47-0.061,0.924-0.188,1.363-0.375c1.816-0.752,3.368-1.66,4.653-2.727C33.761,48.08,34.748,46.639,35.438,44.82z"/>
</g>
<g>
	<path fill="#808285" d="M76.924,9.007C82,8.882,86.246,9.634,89.662,11.263c3.414,1.63,6.125,3.948,8.131,6.956
		c1.002,1.504,1.754,3.228,2.256,5.17c0.125,0.314,0.234,0.721,0.328,1.222c0.094,0.502,0.078,0.94-0.047,1.316
		c-0.25,0.69-0.689,1.081-1.316,1.175c-0.627,0.094-1.379,0.141-2.256,0.141h-4.887c-0.564,0-1.145,0-1.74,0
		s-1.08-0.125-1.457-0.376c-0.502-0.25-0.846-0.642-1.033-1.175c-0.188-0.532-0.439-1.081-0.752-1.645
		c-0.377-0.689-0.785-1.316-1.223-1.88c-0.439-0.564-0.939-1.064-1.504-1.504c-0.877-0.564-1.85-1.001-2.914-1.316
		c-0.375-0.125-0.752-0.188-1.127-0.188c-0.377,0-0.723-0.062-1.035-0.188h-0.939c-1.254,0-2.256,0.126-3.008,0.376
		c-1.818,0.564-3.291,1.426-4.418,2.585c-1.129,1.16-2.037,2.554-2.727,4.183c-0.314,0.69-0.549,1.426-0.705,2.209
		c-0.156,0.784-0.328,1.614-0.516,2.491c-0.064,0.252-0.096,0.502-0.096,0.752c0,0.252-0.031,0.502-0.094,0.752
		c-0.125,0.627-0.172,1.504-0.141,2.633c0.031,1.127,0.109,2.006,0.234,2.631c0,0.503,0.031,0.847,0.096,1.035
		c0.123,0.438,0.201,0.878,0.234,1.315c0.031,0.438,0.109,0.878,0.234,1.315c0.502,1.443,1.096,2.759,1.787,3.949
		c0.688,1.19,1.564,2.193,2.631,3.008c0.25,0.188,0.627,0.408,1.129,0.658c0.688,0.438,1.393,0.721,2.115,0.846
		c0.719,0.126,1.611,0.251,2.678,0.375c0.125,0,0.312,0,0.564,0c0.25,0,0.438-0.03,0.564-0.094h0.846
		c0.438-0.125,0.861-0.234,1.27-0.328c0.406-0.094,0.799-0.203,1.174-0.33c1.881-0.812,3.322-2.004,4.324-3.571
		c0.25-0.313,0.471-0.673,0.658-1.081c0.188-0.406,0.344-0.767,0.471-1.081c0.25-0.688,0.469-1.3,0.658-1.833
		c0.188-0.531,0.625-0.955,1.314-1.27c0.564-0.249,1.473-0.359,2.727-0.328c1.254,0.032,2.287,0.047,3.102,0.047
		c0.438,0,0.895-0.015,1.363-0.047c0.471-0.031,0.861,0.016,1.176,0.141h0.752c0.25,0.062,0.5,0.11,0.752,0.141
		c0.25,0.033,0.438,0.111,0.564,0.235c0.312,0.251,0.516,0.611,0.609,1.081c0.096,0.471,0.078,0.956-0.047,1.457
		c-0.562,2.068-1.254,3.917-2.066,5.546c-2.57,4.827-6.676,8.179-12.314,10.058c-0.627,0.188-1.285,0.33-1.975,0.424
		S82.689,59.484,82,59.673c-0.375,0.062-0.752,0.094-1.127,0.094c-0.377,0-0.752,0.03-1.129,0.095h-1.033
		c-0.314,0.124-0.785,0.172-1.41,0.141c-0.627-0.033-1.098-0.08-1.41-0.141c-0.502-0.127-0.957-0.174-1.363-0.142
		c-0.408,0.03-0.832-0.017-1.27-0.142c-0.314-0.062-0.627-0.109-0.939-0.141c-0.314-0.032-0.627-0.079-0.939-0.141
		c-0.691-0.188-1.35-0.376-1.975-0.564c-0.627-0.188-1.223-0.406-1.785-0.658c-2.947-1.252-5.422-2.867-7.426-4.84
		c-2.008-1.975-3.637-4.434-4.889-7.38c-0.314-0.563-0.564-1.175-0.752-1.833s-0.376-1.33-0.564-2.021
		c-0.063-0.249-0.094-0.484-0.094-0.704s-0.063-0.485-0.188-0.8c-0.126-0.438-0.188-0.893-0.188-1.362s-0.063-0.924-0.188-1.363
		v-1.598c-0.126-0.313-0.188-0.673-0.188-1.081c0-0.406,0.062-0.767,0.188-1.081c0.062-0.313,0.062-0.595,0-0.847
		c-0.063-0.249-0.063-0.5,0-0.752c0.125-0.438,0.172-0.846,0.141-1.222c-0.032-0.376,0.015-0.752,0.141-1.128
		c0.312-1.128,0.564-2.209,0.752-3.243c0.188-1.034,0.47-2.052,0.846-3.055c1.377-3.196,3.118-5.859,5.217-7.99
		c2.1-2.13,4.777-3.854,8.037-5.17c0.877-0.376,1.785-0.642,2.727-0.799c0.939-0.156,1.91-0.36,2.914-0.611
		c0.5-0.062,0.971-0.094,1.408-0.094C75.953,9.101,76.422,9.07,76.924,9.007z"/>
	<path fill="#808285" d="M136.424,9.101c2.318-0.062,4.355,0.188,6.111,0.752c1.754,0.564,3.289,1.349,4.605,2.35
		c0.5,0.376,0.955,0.815,1.363,1.316c0.406,0.502,0.861,1.003,1.363,1.504c0.125,0.126,0.328,0.298,0.611,0.517
		c0.281,0.22,0.578,0.268,0.893,0.141c0.688-0.188,1.346-0.642,1.973-1.363c0.627-0.72,1.223-1.269,1.787-1.645
		c0.877-0.689,1.816-1.269,2.82-1.739c1.002-0.47,2.129-0.924,3.383-1.363c0.502-0.125,1.113-0.235,1.834-0.329
		c0.719-0.094,1.471-0.156,2.256-0.188c0.783-0.031,1.535-0.015,2.256,0.047c0.719,0.063,1.363,0.157,1.928,0.282
		c0.312,0.063,0.594,0.094,0.846,0.094c0.25,0,0.531,0.063,0.846,0.188c0.877,0.251,1.723,0.502,2.537,0.752
		c0.814,0.251,1.566,0.597,2.256,1.034c2.633,1.63,4.607,4.011,5.924,7.144c0.248,0.564,0.438,1.144,0.562,1.739
		c0.125,0.597,0.25,1.175,0.377,1.739c0.061,0.439,0.107,0.846,0.141,1.222c0.031,0.376,0.078,0.752,0.141,1.128v0.94
		c0.062,0.376,0.078,0.815,0.047,1.316c-0.031,0.502-0.047,0.972-0.047,1.41v5.452v18.33c0,0.502,0.016,1.08,0.047,1.738
		s0.031,1.285,0,1.881s-0.109,1.16-0.234,1.691c-0.127,0.533-0.314,0.893-0.564,1.081c-0.375,0.314-0.861,0.486-1.457,0.517
		c-0.596,0.033-1.238,0.047-1.926,0.047h-4.982c-0.879,0-1.662-0.061-2.35-0.188c-0.691-0.125-1.162-0.471-1.41-1.034
		c-0.189-0.438-0.283-0.924-0.283-1.457c0-0.531,0-1.048,0-1.551v-5.265V36.643v-3.947c0-0.313,0.016-0.658,0.047-1.035
		c0.031-0.375-0.016-0.719-0.141-1.033v-0.752c0-0.376,0-0.752,0-1.128s-0.031-0.752-0.094-1.128
		c-0.062-0.25-0.094-0.517-0.094-0.799c0-0.282-0.033-0.548-0.094-0.799c-0.252-0.94-0.518-1.77-0.799-2.491
		c-0.283-0.72-0.705-1.363-1.27-1.927c-0.879-0.877-1.943-1.504-3.195-1.88c-0.252-0.062-0.471-0.078-0.658-0.047
		c-0.189,0.032-0.408-0.015-0.658-0.141c-0.252-0.062-0.549-0.109-0.893-0.141c-0.346-0.031-0.676-0.015-0.988,0.047
		c-0.375,0.126-0.752,0.188-1.127,0.188c-0.377,0-0.752,0.063-1.129,0.188c-1.818,0.627-3.135,1.567-3.947,2.82
		c-1.066,1.442-1.709,3.243-1.928,5.405c-0.221,2.162-0.328,4.529-0.328,7.097v12.408v6.955c0,0.628,0,1.255,0,1.881
		c0,0.627-0.158,1.128-0.471,1.504c-0.314,0.439-0.768,0.705-1.363,0.799s-1.27,0.141-2.021,0.141h-5.074
		c-0.564,0-1.113-0.014-1.646-0.047c-0.533-0.03-0.986-0.108-1.363-0.234c-0.627-0.312-0.986-0.814-1.08-1.504
		s-0.141-1.473-0.141-2.351v-7.989V31.943c0-1.817-0.064-3.541-0.188-5.171c-0.127-1.628-0.533-2.976-1.223-4.042
		c-0.502-0.876-1.145-1.535-1.928-1.974c-0.783-0.438-1.738-0.814-2.867-1.128c-0.25-0.062-0.502-0.078-0.752-0.047
		c-0.25,0.032-0.533,0.016-0.846-0.047c-0.689-0.125-1.348-0.062-1.975,0.188c-0.125,0-0.25,0.016-0.375,0.047
		c-0.127,0.032-0.252,0.047-0.377,0.047c-1.002,0.314-1.973,0.846-2.914,1.598c-1.002,0.752-1.77,1.614-2.303,2.585
		c-0.533,0.973-0.908,2.068-1.127,3.29c-0.221,1.222-0.346,2.554-0.377,3.996s-0.047,3.008-0.047,4.699v12.69v5.733
		c0,0.564,0,1.129,0,1.692s-0.094,1.066-0.281,1.504c-0.252,0.563-0.721,0.909-1.41,1.034c-0.691,0.127-1.473,0.188-2.35,0.188
		h-4.888c-0.628,0-1.238-0.014-1.833-0.047c-0.597-0.03-1.081-0.172-1.457-0.423c-0.564-0.312-0.862-0.893-0.894-1.739
		c-0.032-0.846-0.047-1.738-0.047-2.679V42.94V20.005v-5.64c0-0.689,0.015-1.3,0.047-1.833c0.031-0.532,0.172-0.987,0.423-1.363
		c0.313-0.376,0.814-0.625,1.504-0.752h0.564c0.312-0.062,0.642-0.094,0.987-0.094c0.344,0,0.673,0,0.986,0h3.855
		c0.5,0,0.986,0.016,1.457,0.047c0.469,0.032,0.893,0.11,1.268,0.235c0.502,0.188,0.83,0.502,0.988,0.94
		c0.154,0.439,0.297,0.94,0.422,1.504c0.062,0.188,0.078,0.361,0.047,0.517c-0.031,0.157,0.016,0.298,0.143,0.423
		c0.061,0.188,0.141,0.329,0.234,0.423c0.094,0.094,0.203,0.204,0.328,0.329c0.752,0.063,1.379-0.172,1.881-0.705
		c0.5-0.532,0.971-0.955,1.41-1.269c0.877-0.625,1.77-1.189,2.678-1.692c0.908-0.501,1.896-0.908,2.963-1.222
		c0.562-0.188,1.127-0.312,1.691-0.376c0.564-0.062,1.158-0.156,1.785-0.282c0.189-0.062,0.471-0.078,0.846-0.047
		C136.049,9.18,136.299,9.164,136.424,9.101z"/>
</g>
</svg>
