<?xml version="1.0" encoding="utf-8"?>
<!-- Generator: Adobe Illustrator 15.1.0, SVG Export Plug-In . SVG Version: 6.00 Build 0)  -->
<!DOCTYPE svg PUBLIC "-//W3C//DTD SVG 1.1//EN" "http://www.w3.org/Graphics/SVG/1.1/DTD/svg11.dtd">
<svg version="1.1" id="Layer_1" xmlns="http://www.w3.org/2000/svg" xmlns:xlink="http://www.w3.org/1999/xlink" x="0px" y="0px"
	 width="200px" height="200px" viewBox="0 0 200 200" enable-background="new 0 0 200 200" xml:space="preserve">
<g>
	<g>
		<polyline fill="#231F20" points="60.136,53.726 66.561,52.212 73.587,52.196 79.982,53.65 79.96,40.832 78.657,40.315 
			77.24,40.065 77.24,42.909 75.436,42.426 75.436,39.709 73.557,39.245 71.713,39.395 71.713,42.29 68.501,42.29 68.501,39.355 
			66.534,39.218 64.773,39.749 64.773,42.426 62.902,42.923 62.902,40.141 61.425,40.397 60.255,40.938 60.261,53.713 		"/>
		<path fill="#231F20" d="M60.172,53.88l-0.04-0.167h-0.029l-0.006-12.876l1.301-0.595l1.661-0.29v2.766l1.556-0.414v-2.672
			l1.9-0.574l2.143,0.15v2.923h2.896V39.25l2.014-0.165l2.023,0.5v2.72l1.489,0.399v-2.827l1.602,0.283l1.434,0.564l0.022,13.124
			l-6.588-1.499l-6.991,0.021L60.172,53.88z M60.413,41.039l0.006,12.458l6.106-1.438l7.062-0.021l6.237,1.415l-0.021-12.514
			l-1.205-0.477l-1.201-0.209v2.862l-2.12-0.568v-2.714l-1.734-0.429l-1.673,0.137v2.907h-3.527v-2.945l-1.792-0.126l-1.621,0.489
			v2.681l-2.187,0.582v-2.801l-1.271,0.221L60.413,41.039z"/>
	</g>
	<g>
		<polyline fill="#231F20" points="119.464,53.713 125.89,52.212 132.916,52.196 139.312,53.65 139.289,40.832 137.985,40.315 
			136.568,40.065 136.569,42.909 134.765,42.426 134.765,39.709 132.885,39.245 131.042,39.395 131.042,42.29 127.83,42.29 
			127.83,39.355 125.862,39.218 124.102,39.749 124.102,42.426 122.23,42.923 122.23,40.141 120.754,40.397 119.583,40.938 
			119.59,53.713 		"/>
		<path fill="#231F20" d="M119.5,53.866l-0.036-0.153h-0.032l-0.006-12.876l1.301-0.595l1.661-0.29v2.766l1.557-0.414v-2.672
			l1.899-0.574l2.145,0.15v2.923h2.896V39.25l2.015-0.165l2.023,0.5v2.72l1.49,0.399l-0.002-2.827l1.603,0.283l1.434,0.564v0.106
			l0.022,13.017l-6.587-1.499l-6.992,0.021L119.5,53.866z M119.741,41.039l0.006,12.446l6.107-1.426l7.062-0.021l6.236,1.415
			l-0.021-12.514l-1.203-0.477l-1.202-0.209l0.002,2.862l-2.121-0.568v-2.714l-1.733-0.429l-1.674,0.137v2.907h-3.526v-2.945
			l-1.793-0.126l-1.62,0.489v2.681l-2.188,0.582v-2.801l-1.271,0.221L119.741,41.039z"/>
	</g>
	<g>
		<path d="M99.998,199.999C44.858,199.999,0,155.14,0,100S44.858,0.001,99.998,0.001C155.139,0.001,200,44.86,200,100
			S155.139,199.999,99.998,199.999z M99.998,3.151C46.595,3.151,3.149,46.597,3.149,100c0,53.403,43.446,96.849,96.848,96.849
			c53.405,0,96.853-43.445,96.853-96.849C196.851,46.597,153.402,3.151,99.998,3.151z"/>
	</g>
	<g>
		<path fill="none" d="M100.09,4.148c52.597,0,95.477,42.921,95.477,95.472c0,52.598-42.88,95.519-95.477,95.519
			c-52.592,0-95.471-42.921-95.471-95.519C4.619,47.07,47.498,4.148,100.09,4.148L100.09,4.148z"/>
	</g>
	<g>
		<g>
			<g>
				<path d="M86.26,179.698c0.043-0.436,0.043-0.826,0-1c-0.087-0.217-0.304-0.347-0.565-0.391
					c-0.217-0.044-0.435-0.044-0.695,0.044c-0.304,0.043-0.478,0.086-0.565,0.086c-0.087-0.043-0.174-0.086-0.217-0.13
					c0-0.044-0.043-0.087-0.043-0.13c0.043-0.219,0.478-0.436,1.26-0.565c0.348-0.044,0.608-0.131,0.869-0.131
					c0.521-0.13,1.043-0.348,1.521-0.607c0.521-0.261,0.782-0.392,0.782-0.392c0.087,0,0.174,0.044,0.217,0.131
					s0.043,0.174,0.043,0.261c0,0.043-0.13,0.348-0.261,0.825c-0.13,0.564-0.217,1.086-0.304,1.563l-1.564,8.995
					c-0.13,0.696-0.174,1.218-0.087,1.436c0.043,0.261,0.217,0.521,0.478,0.695c0.13,0.086,0.391,0.217,0.826,0.347
					c0.435,0.175,0.608,0.349,0.565,0.478c0,0.088-0.087,0.132-0.174,0.174c-0.087,0-0.304,0.044-0.478,0c0,0-0.087,0-0.261-0.086
					c-0.869-0.261-1.695-0.479-2.521-0.607c-0.435-0.088-0.869-0.132-1.391-0.132c-0.521-0.042-0.826-0.042-0.913-0.087
					c-0.174,0-0.26-0.086-0.304-0.086c-0.044-0.043-0.131-0.131-0.131-0.174c0.043-0.218,0.304-0.306,0.739-0.348
					c0.174,0,0.348,0,0.435-0.044c0.304-0.043,0.608-0.174,0.782-0.434c0.174-0.262,0.391-0.826,0.521-1.609L86.26,179.698
					L86.26,179.698z"/>
				<path d="M88.05,191.722c-0.085,0-0.162-0.007-0.232-0.022c-0.068-0.008-0.186-0.034-0.351-0.116
					c-0.981-0.289-1.723-0.468-2.429-0.578c-0.445-0.09-0.854-0.128-1.342-0.128c-0.194-0.016-0.34-0.023-0.463-0.032
					c-0.256-0.016-0.404-0.024-0.512-0.057c-0.138-0.011-0.241-0.055-0.301-0.084h-0.07l-0.092-0.091
					c-0.114-0.112-0.225-0.235-0.225-0.398c0.108-0.573,0.727-0.633,1.024-0.662c0.126-0.001,0.286-0.001,0.333-0.016l0.087-0.026
					c0.151-0.021,0.425-0.088,0.564-0.297c0.138-0.208,0.346-0.723,0.473-1.485l1.435-8.085c0.04-0.41,0.033-0.753,0.004-0.868
					c-0.042-0.098-0.231-0.144-0.311-0.156c-0.222-0.045-0.359-0.031-0.543,0.031c-0.189,0.032-0.296,0.051-0.382,0.066
					c-0.133,0.022-0.225,0.036-0.284,0.036h-0.074l-0.066-0.032c-0.108-0.054-0.22-0.109-0.299-0.189l-0.093-0.092v-0.08
					c-0.021-0.046-0.043-0.106-0.043-0.182c0.083-0.447,0.594-0.722,1.523-0.877c0.149-0.019,0.27-0.043,0.383-0.065
					c0.168-0.033,0.328-0.064,0.497-0.069c0.451-0.115,0.938-0.312,1.412-0.569l0.857-0.431h0.075c0.214,0,0.406,0.118,0.5,0.308
					c0.077,0.151,0.077,0.295,0.077,0.4c0,0.07-0.019,0.124-0.069,0.268c-0.048,0.138-0.125,0.358-0.203,0.641
					c-0.104,0.449-0.181,0.881-0.253,1.284l-0.045,0.253l-1.564,8.993c-0.186,0.988-0.12,1.227-0.105,1.265l0.018,0.064
					c0.03,0.179,0.161,0.364,0.342,0.484c0.07,0.047,0.285,0.171,0.74,0.307c0.605,0.242,0.861,0.52,0.788,0.833
					c-0.028,0.25-0.25,0.357-0.349,0.405l-0.203,0.037C88.214,191.715,88.133,191.722,88.05,191.722z M83.738,190.247
					c0.492,0,0.948,0.044,1.411,0.137c0.723,0.112,1.489,0.298,2.549,0.614c0.145,0.067,0.193,0.074,0.193,0.074
					c0.034,0.007,0.059,0.011,0.081,0.014c-0.039-0.019-0.083-0.038-0.135-0.059c-0.489-0.144-0.764-0.298-0.881-0.376
					c-0.317-0.211-0.543-0.536-0.609-0.874c-0.067-0.193-0.108-0.562,0.082-1.577l1.609-9.244c0.074-0.413,0.153-0.855,0.262-1.327
					c0.085-0.314,0.167-0.548,0.219-0.695c0.009-0.025,0.017-0.048,0.023-0.066l-0.576,0.289c-0.53,0.288-1.066,0.502-1.585,0.631
					l-0.076,0.01c-0.123,0-0.259,0.027-0.417,0.058c-0.126,0.024-0.262,0.052-0.414,0.07c-0.107,0.018-0.204,0.037-0.291,0.057
					c0.178-0.027,0.371-0.024,0.576,0.018c0.378,0.062,0.671,0.275,0.795,0.583c0.091,0.354,0.039,0.967,0.021,1.147l-1.438,8.105
					c-0.121,0.729-0.334,1.376-0.57,1.729c-0.198,0.296-0.537,0.495-0.958,0.564c-0.146,0.054-0.329,0.054-0.521,0.054
					c-0.042,0.005-0.081,0.01-0.116,0.015c0.063,0.004,0.184,0.011,0.3,0.019c0.126,0.008,0.275,0.017,0.449,0.031
					C83.727,190.247,83.733,190.247,83.738,190.247z"/>
			</g>
			<g>
				<path d="M95.516,178.308c-0.782-0.044-1.391,0.13-1.912,0.521c-0.521,0.434-0.782,0.956-0.869,1.651
					c0,0.434,0.086,0.825,0.304,1.218c0.217,0.346,0.564,0.737,1.042,1.042c0.392,0.262,0.695,0.521,1.043,0.652
					c0.348,0.129,0.652,0.217,0.869,0.217c0.521,0.043,1.043-0.174,1.521-0.607c0.434-0.436,0.695-1.044,0.739-1.696
					c0.086-0.825-0.131-1.478-0.652-2.043C97.124,178.698,96.386,178.395,95.516,178.308L95.516,178.308z M93.604,184.956
					c-0.521,0.217-1,0.565-1.259,1.042c-0.348,0.479-0.522,1.088-0.566,1.74c-0.086,1.129,0.131,2.042,0.739,2.781
					c0.608,0.738,1.434,1.216,2.39,1.259c0.87,0.087,1.608-0.129,2.216-0.565c0.565-0.434,0.869-1.086,0.957-1.868
					c0.043-0.868-0.261-1.606-0.87-2.217C96.603,186.477,95.386,185.782,93.604,184.956L93.604,184.956z M92.997,184.521
					c-0.566-0.391-1.044-0.911-1.261-1.433c-0.304-0.565-0.391-1.173-0.348-1.825c0.086-1.13,0.521-2.043,1.434-2.781
					c0.826-0.739,1.826-1.042,2.999-0.956c1.217,0.087,2.172,0.479,2.868,1.173c0.696,0.652,1,1.478,0.957,2.521
					c-0.088,0.739-0.392,1.391-0.827,1.869c-0.521,0.478-1.216,0.825-2.085,1.042c1.086,0.479,1.869,1.13,2.39,1.868
					c0.478,0.652,0.739,1.565,0.652,2.521c-0.086,1.304-0.652,2.303-1.608,3.042c-0.956,0.782-2.172,1.129-3.563,1.043
					c-1.347-0.087-2.434-0.566-3.259-1.434c-0.826-0.782-1.174-1.826-1.086-2.999c0.043-0.825,0.348-1.608,0.783-2.216
					C91.475,185.305,92.126,184.825,92.997,184.521L92.997,184.521z"/>
				<path d="M95.014,192.933c-0.141,0-0.285-0.005-0.43-0.014c-1.421-0.091-2.588-0.605-3.468-1.53
					c-0.86-0.814-1.27-1.939-1.173-3.24c0.044-0.834,0.343-1.68,0.841-2.376c0.375-0.563,0.909-1.013,1.59-1.337
					c-0.427-0.376-0.755-0.807-0.93-1.227c-0.296-0.548-0.422-1.2-0.371-1.967c0.096-1.258,0.604-2.24,1.55-3.006
					c0.859-0.77,1.944-1.117,3.22-1.025c1.287,0.091,2.319,0.517,3.068,1.265c0.751,0.704,1.097,1.607,1.049,2.756
					c-0.094,0.801-0.416,1.526-0.909,2.069c-0.41,0.376-0.905,0.675-1.484,0.897c0.751,0.434,1.359,0.976,1.812,1.618
					c0.541,0.736,0.8,1.733,0.708,2.731c-0.089,1.345-0.671,2.445-1.729,3.264C97.453,192.554,96.326,192.933,95.014,192.933z
					 M93.281,184.756l-0.18,0.062c-0.799,0.279-1.404,0.722-1.797,1.312c-0.435,0.608-0.692,1.336-0.73,2.058
					c-0.083,1.112,0.259,2.062,0.988,2.753c0.779,0.818,1.805,1.268,3.062,1.348c1.323,0.08,2.458-0.246,3.343-0.972
					c0.928-0.718,1.415-1.639,1.493-2.819c0.078-0.854-0.138-1.694-0.591-2.313c-0.524-0.742-1.285-1.335-2.263-1.766l-0.844-0.371
					l0.488-0.122c-0.042,0.002-0.084,0.004-0.125,0.004l0,0c-0.052,0-0.105-0.002-0.157-0.007c-0.189,0-0.512-0.07-0.953-0.235
					c-0.291-0.108-0.542-0.287-0.809-0.477c-0.095-0.067-0.194-0.138-0.3-0.208c-0.451-0.287-0.855-0.692-1.135-1.138
					c-0.243-0.438-0.352-0.873-0.352-1.385c0.101-0.83,0.413-1.42,0.982-1.894c0.603-0.454,1.286-0.645,2.132-0.594
					c1.008,0.1,1.802,0.469,2.309,1.066c0.58,0.629,0.819,1.377,0.725,2.279c-0.048,0.725-0.343,1.399-0.83,1.886
					c-0.241,0.22-0.493,0.39-0.749,0.507c0.661-0.204,1.204-0.498,1.616-0.876c0.385-0.425,0.65-1.027,0.727-1.674
					c0.038-0.944-0.235-1.667-0.86-2.253c-0.645-0.645-1.542-1.008-2.674-1.088c-1.114-0.085-2.015,0.203-2.766,0.876
					c-0.828,0.67-1.247,1.484-1.33,2.57c-0.044,0.65,0.055,1.176,0.311,1.651c0.196,0.469,0.626,0.953,1.162,1.323l0.51,0.353
					l-0.039,0.013l0.09,0.043c1.966,0.912,3.109,1.604,3.705,2.243c0.678,0.679,1,1.505,0.954,2.447
					c-0.104,0.932-0.466,1.632-1.079,2.103c-0.604,0.434-1.286,0.649-2.037,0.649l0,0c-0.131,0-0.266-0.006-0.404-0.021
					c-0.979-0.043-1.909-0.53-2.601-1.372c-0.641-0.777-0.906-1.761-0.811-3.006c0.051-0.762,0.262-1.402,0.625-1.901
					C92.368,185.298,92.859,184.96,93.281,184.756z M93.6,185.302c-0.449,0.211-0.794,0.509-0.979,0.848
					c-0.314,0.436-0.485,0.967-0.528,1.609c-0.084,1.093,0.129,1.905,0.668,2.561c0.586,0.711,1.333,1.106,2.16,1.145
					c0.133,0.012,0.246,0.018,0.358,0.018c0.615,0,1.174-0.176,1.661-0.524c0.463-0.356,0.745-0.913,0.826-1.647
					c0.037-0.748-0.217-1.396-0.779-1.959C96.455,186.78,95.41,186.148,93.6,185.302z M95.283,178.617
					c-0.594,0-1.067,0.147-1.49,0.464c-0.433,0.361-0.666,0.808-0.745,1.438c0.003,0.361,0.087,0.699,0.268,1.025
					c0.125,0.198,0.424,0.604,0.936,0.93c0.116,0.077,0.22,0.151,0.32,0.222c0.242,0.172,0.451,0.32,0.665,0.4
					c0.351,0.13,0.606,0.197,0.758,0.197c0.061,0.003,0.096,0.005,0.131,0.005c0.388,0,0.795-0.184,1.179-0.531
					c0.366-0.367,0.596-0.897,0.636-1.482c0.077-0.733-0.104-1.304-0.569-1.809c-0.407-0.48-1.056-0.772-1.885-0.854
					C95.425,178.618,95.353,178.617,95.283,178.617z"/>
			</g>
			<g>
				<path d="M102.256,184.044l0.652-5.389c0.044-0.304,0.13-0.522,0.174-0.608c0.087-0.088,0.349-0.174,0.696-0.174l3.259-0.088
					c0.348-0.043,0.607-0.086,0.781-0.086c0.174-0.043,0.349-0.131,0.478-0.218c0.045-0.042,0.132-0.216,0.305-0.348
					c0.131-0.174,0.262-0.26,0.392-0.26c0.044,0,0.088,0.043,0.13,0.086c0.044,0.044,0.044,0.131,0.044,0.174
					c0,0.044,0,0.088-0.044,0.174c0,0.087-0.042,0.174-0.042,0.261l-0.479,1.349c-0.086,0.217-0.173,0.391-0.346,0.52
					c-0.132,0.088-0.437,0.088-0.915,0.088l-3.084,0.131c-0.348,0-0.565,0.086-0.651,0.173c-0.087,0.087-0.174,0.348-0.262,0.738
					l-0.217,2.043c0,0.043,0,0.087,0,0.131c0,0.043,0,0.086,0,0.174s0.043,0.174,0.086,0.217c0,0.044,0.045,0.044,0.088,0.044
					s0.086,0,0.218-0.044c0.478-0.129,1.041-0.174,1.607-0.217c1.347-0.044,2.478,0.303,3.259,1.042
					c0.825,0.695,1.261,1.739,1.304,2.998c0,0.739-0.088,1.392-0.392,2.043c-0.216,0.652-0.607,1.261-1.129,1.87
					c-0.522,0.52-1.087,0.998-1.782,1.259c-0.695,0.305-1.477,0.479-2.26,0.522c-0.739,0.042-1.347-0.044-1.869-0.174
					c-0.477-0.174-0.739-0.349-0.739-0.565c0-0.086-0.043-0.174,0.045-0.217c0.043-0.043,0.173-0.088,0.304-0.088
					c0,0,0.217,0.045,0.652,0.088c0.478,0.131,0.913,0.173,1.261,0.131c1.13-0.045,2.041-0.437,2.78-1.262
					c0.695-0.781,1.044-1.824,1-2.998c-0.043-0.913-0.348-1.607-0.956-2.13c-0.564-0.478-1.392-0.737-2.391-0.694
					c-0.304,0-0.652,0.043-1,0.13c-0.391,0.044-0.607,0.087-0.651,0.087c-0.13,0-0.217-0.043-0.26-0.087
					c-0.045,0-0.088-0.13-0.088-0.261c0-0.088,0.043-0.13,0.043-0.217C102.213,184.304,102.213,184.174,102.256,184.044
					L102.256,184.044z"/>
				<path d="M103.753,192.975c-0.532,0-1.046-0.063-1.572-0.193c-0.5-0.181-0.979-0.417-0.979-0.872
					c-0.034-0.273,0.07-0.407,0.179-0.477c0.136-0.105,0.342-0.144,0.485-0.144l0.063,0.007c0.01,0.002,0.217,0.042,0.621,0.083
					c0.491,0.129,0.878,0.167,1.191,0.131c1.102-0.044,1.914-0.412,2.584-1.159c0.642-0.723,0.96-1.682,0.918-2.775
					c-0.04-0.835-0.309-1.44-0.846-1.901c-0.52-0.441-1.274-0.66-2.172-0.619c-0.299,0-0.626,0.043-0.936,0.121
					c-0.273,0.032-0.442,0.059-0.55,0.074c-0.096,0.015-0.156,0.021-0.18,0.021c-0.161,0-0.311-0.045-0.422-0.127
					c-0.148-0.08-0.241-0.275-0.241-0.536c0-0.085,0.02-0.15,0.033-0.193c-0.034-0.133-0.028-0.285,0.017-0.438l0.647-5.359
					c0.059-0.397,0.172-0.646,0.205-0.713l0.059-0.081c0.164-0.164,0.517-0.267,0.92-0.267l3.479-0.119
					c0.212-0.028,0.384-0.05,0.516-0.054c0.101-0.028,0.21-0.079,0.308-0.14c0.076-0.107,0.163-0.228,0.294-0.334
					c0.187-0.234,0.394-0.353,0.617-0.353c0.179,0,0.299,0.122,0.356,0.182c0.133,0.134,0.133,0.322,0.133,0.394
					c0,0.066-0.003,0.146-0.049,0.255c-0.006,0.046-0.017,0.088-0.024,0.123l-0.031,0.163l-0.479,1.348
					c-0.091,0.231-0.205,0.482-0.454,0.668c-0.226,0.149-0.537,0.149-1.104,0.149l-3.07,0.131c-0.282,0-0.418,0.061-0.443,0.082
					c0.001,0.001-0.068,0.104-0.175,0.583l-0.211,2.007l0.001,0.183c0.525-0.139,1.102-0.183,1.66-0.226
					c0.092-0.004,0.172-0.005,0.25-0.005c1.343,0,2.467,0.392,3.249,1.133c0.866,0.728,1.355,1.845,1.402,3.216
					c0,0.893-0.129,1.563-0.421,2.188c-0.2,0.609-0.588,1.256-1.175,1.941c-0.512,0.511-1.124,1.053-1.911,1.349
					c-0.696,0.306-1.516,0.495-2.353,0.542C104.01,192.972,103.879,192.975,103.753,192.975z M101.851,191.923
					c0.039,0.034,0.164,0.128,0.514,0.256c0.551,0.134,1.114,0.19,1.744,0.155c0.763-0.043,1.507-0.215,2.151-0.497
					c0.689-0.26,1.238-0.749,1.686-1.193c0.515-0.604,0.865-1.181,1.051-1.745c0.268-0.578,0.376-1.149,0.376-1.944
					c-0.041-1.178-0.452-2.135-1.191-2.756c-0.719-0.679-1.777-1.013-3.045-0.969c-0.525,0.04-1.081,0.083-1.535,0.206
					c-0.149,0.051-0.226,0.055-0.301,0.055c-0.21,0-0.318-0.098-0.367-0.204c-0.076-0.105-0.122-0.241-0.122-0.372v-0.305
					l0.22-2.076c0.144-0.654,0.254-0.83,0.351-0.928c0.167-0.169,0.485-0.266,0.875-0.266l3.07-0.131c0.326,0,0.678,0,0.761-0.039
					c0.086-0.065,0.146-0.183,0.221-0.369l0.461-1.296c0.005-0.044,0.012-0.083,0.021-0.118c-0.08,0.062-0.138,0.146-0.181,0.207
					c-0.031,0.044-0.059,0.082-0.095,0.116c-0.218,0.152-0.428,0.248-0.619,0.296l-0.076,0.009c-0.117,0-0.276,0.022-0.479,0.05
					l-0.264,0.034l-3.29,0.09c-0.223,0-0.381,0.04-0.453,0.07c-0.037,0.095-0.085,0.251-0.112,0.442l-0.665,5.442
					c-0.019,0.058-0.018,0.102-0.014,0.114l0.032,0.065l-0.003,0.068c0,0.095-0.023,0.166-0.037,0.208
					c-0.002,0.018-0.002,0.033-0.002,0.046l0.114-0.019c0.111-0.018,0.288-0.044,0.531-0.071c0.321-0.083,0.693-0.132,1.034-0.132
					c0.062-0.003,0.138-0.005,0.213-0.005c0.96,0,1.783,0.268,2.382,0.774c0.67,0.576,1.019,1.346,1.067,2.355
					c0.048,1.262-0.325,2.375-1.078,3.222c-0.781,0.872-1.764,1.319-3.006,1.368c-0.072,0.01-0.176,0.015-0.286,0.015
					c-0.327,0-0.688-0.053-1.069-0.156C102.138,191.971,101.937,191.938,101.851,191.923z"/>
			</g>
			<g>
				<path d="M116.12,182.479c1.085-0.13,1.955,0,2.606,0.522c0.652,0.477,1.131,1.302,1.304,2.345
					c0.13,0.739,0.13,1.434-0.044,2.129c-0.218,0.739-0.521,1.435-0.999,2.088c-0.393,0.563-0.956,1.042-1.478,1.434
					c-0.609,0.348-1.261,0.652-2,0.781c-0.825,0.131-1.563,0.087-2.216-0.129c-0.694-0.263-1.087-0.522-1.13-0.87
					c0-0.086,0-0.131,0-0.174c0.043-0.044,0.131-0.131,0.217-0.131c0,0,0.306,0.131,0.913,0.305
					c0.696,0.261,1.304,0.305,1.868,0.218c1.044-0.175,1.869-0.739,2.391-1.565c0.522-0.912,0.696-1.956,0.479-3.129
					c-0.174-0.912-0.479-1.563-1-1.956c-0.522-0.347-1.174-0.478-1.955-0.347c-0.131,0-0.26,0.044-0.392,0.044
					c-0.13,0.043-0.218,0.086-0.261,0.086c-0.087,0.044-0.218,0-0.304,0c-0.088-0.043-0.13-0.13-0.174-0.174
					c0-0.129,0.13-0.304,0.391-0.521c0.306-0.219,0.521-0.393,0.608-0.521c0.479-0.479,0.825-1.044,1.001-1.564
					c0.174-0.478,0.215-1.043,0.086-1.564c-0.086-0.608-0.349-1.13-0.782-1.521c-0.434-0.305-0.956-0.434-1.522-0.347
					c-0.563,0.087-1.085,0.391-1.563,0.955c-0.478,0.522-0.739,0.783-0.739,0.783c-0.086,0-0.129,0-0.174,0
					c-0.042-0.045-0.042-0.087-0.042-0.131c-0.044-0.174,0-0.391,0.13-0.652c0.131-0.304,0.391-0.564,0.651-0.868
					c0.348-0.392,0.738-0.696,1.174-0.913c0.391-0.262,0.826-0.391,1.347-0.521c0.869-0.131,1.609,0,2.217,0.435
					c0.608,0.348,0.999,0.955,1.13,1.739c0.087,0.607,0.044,1.216-0.261,1.823C117.291,181.176,116.813,181.827,116.12,182.479
					L116.12,182.479z"/>
				<path d="M114.619,192.167c-0.507,0-0.984-0.073-1.424-0.219c-0.631-0.237-1.272-0.554-1.344-1.13l-0.003-0.341l0.09-0.092
					c0.06-0.062,0.22-0.227,0.442-0.227l0.125,0.025c0.002,0.001,0.299,0.126,0.876,0.292c0.633,0.236,1.195,0.29,1.733,0.209
					c0.931-0.156,1.684-0.648,2.171-1.423c0.486-0.848,0.635-1.829,0.436-2.902c-0.168-0.876-0.447-1.436-0.88-1.762
					c-0.447-0.297-1.035-0.401-1.714-0.288c-0.099,0.005-0.146,0.015-0.193,0.022c-0.063,0.011-0.126,0.021-0.188,0.024
					l-0.078,0.028c-0.058,0.021-0.109,0.041-0.162,0.052c-0.099,0.033-0.221,0.029-0.336,0.015h-0.073l-0.116-0.039
					c-0.126-0.062-0.198-0.157-0.242-0.214l-0.096-0.093l-0.012-0.15c0-0.236,0.155-0.472,0.504-0.763
					c0.316-0.228,0.495-0.376,0.55-0.456c0.459-0.468,0.797-0.993,0.963-1.488c0.16-0.442,0.188-0.945,0.079-1.388
					c-0.084-0.577-0.312-1.024-0.688-1.363c-0.34-0.235-0.785-0.342-1.263-0.269c-0.506,0.077-0.954,0.354-1.37,0.847
					c-0.493,0.539-0.758,0.803-0.758,0.803l-0.093,0.092h-0.44l-0.093-0.099c-0.107-0.113-0.125-0.235-0.127-0.311
					c-0.05-0.239,0.003-0.511,0.161-0.829c0.119-0.279,0.33-0.52,0.555-0.773l0.141-0.16c0.375-0.426,0.803-0.757,1.271-0.99
					c0.411-0.278,0.904-0.418,1.41-0.545c0.259-0.04,0.482-0.058,0.693-0.058c0.681,0,1.281,0.183,1.784,0.542
					c0.665,0.378,1.109,1.056,1.258,1.943c0.108,0.755,0.014,1.412-0.29,2.017c-0.241,0.481-0.565,0.953-0.968,1.409
					c0.83,0.01,1.49,0.219,2.013,0.638c0.728,0.531,1.235,1.437,1.419,2.54c0.142,0.814,0.125,1.554-0.05,2.257
					c-0.258,0.875-0.591,1.569-1.051,2.197c-0.442,0.639-1.093,1.162-1.543,1.5c-0.562,0.324-1.28,0.69-2.136,0.84
					C115.236,192.142,114.92,192.167,114.619,192.167z M112.521,190.865c0.104,0.135,0.401,0.306,0.886,0.489
					c0.583,0.192,1.285,0.233,2.054,0.112c0.755-0.132,1.409-0.467,1.894-0.743c0.382-0.291,0.979-0.771,1.375-1.341
					c0.42-0.574,0.723-1.207,0.956-1.996c0.15-0.604,0.164-1.258,0.035-1.986c-0.156-0.941-0.575-1.703-1.179-2.145
					c-0.56-0.448-1.313-0.59-2.383-0.464l-0.752,0.09c-0.076,0.088-0.155,0.173-0.238,0.255c-0.063,0.106-0.264,0.28-0.647,0.556
					c-0.051,0.042-0.09,0.079-0.123,0.111l0.015,0.006c0.005-0.003,0.019-0.009,0.031-0.014l0.241-0.067
					c0.049,0,0.096-0.01,0.144-0.018c0.083-0.015,0.165-0.026,0.248-0.026c0.162-0.032,0.373-0.05,0.574-0.05
					c0.584,0,1.107,0.151,1.556,0.45c0.581,0.436,0.937,1.118,1.136,2.158c0.228,1.227,0.054,2.352-0.516,3.345
					c-0.585,0.929-1.51,1.536-2.611,1.721c-0.692,0.104-1.335,0.027-2.031-0.234C112.897,190.993,112.676,190.92,112.521,190.865z
					 M114.071,177.575c0.488,0,0.959,0.148,1.359,0.431c0.512,0.458,0.817,1.05,0.914,1.735c0.134,0.529,0.098,1.166-0.102,1.716
					c-0.099,0.292-0.243,0.588-0.424,0.872l0.085-0.08c0.622-0.585,1.098-1.198,1.41-1.824c0.248-0.492,0.321-1.012,0.23-1.637
					c-0.114-0.688-0.452-1.211-0.975-1.51c-0.562-0.401-1.202-0.518-2.013-0.397c-0.421,0.107-0.855,0.229-1.218,0.473
					c-0.432,0.217-0.794,0.499-1.112,0.859l-0.144,0.163c-0.19,0.218-0.357,0.406-0.447,0.602c0.086-0.092,0.185-0.197,0.295-0.318
					c0.505-0.597,1.097-0.954,1.749-1.054C113.812,177.585,113.943,177.575,114.071,177.575z"/>
			</g>
		</g>
		<g>
			<path d="M69.834,178.59l2.647-1.54l0.242,1.601l0.321,1.496l0.242,0.923l-0.997,0.49l-2.583,1.489
				c-0.144-1.353-0.436-2.692-0.809-4.01L69.834,178.59z"/>
		</g>
		<g>
			<g>
				<path d="M54.376,178.663c-0.208,0.721-0.011,1.091,0.118,1.412c0.102,0.253,0.293,0.414,0.1,0.685
					c-0.193,0.271-0.414,0.115-0.634-0.044c-0.661-0.471-1.226-1.077-1.887-1.549c-0.661-0.471-1.418-0.806-2.08-1.275
					c-0.288-0.206-0.44-0.314-0.247-0.587c0.193-0.271,0.501-0.129,0.815-0.031c0.583,0.186,0.868-0.07,1.098-0.394
					c0.109-0.152,0.168-0.595,0.388-1.333l2.018-6.921c0.058-0.188,0.116-0.377,0.065-0.414c-0.034-0.023-0.269,0.09-0.457,0.212
					l-4.365,2.538l-1,3.376c-0.225,0.709-0.011,1.092,0.118,1.413c0.102,0.252,0.293,0.413,0.1,0.685
					c-0.193,0.271-0.414,0.115-0.634-0.044c-0.661-0.472-1.226-1.078-1.887-1.55c-0.661-0.471-1.419-0.806-2.079-1.275
					c-0.289-0.206-0.441-0.315-0.248-0.585c0.194-0.271,0.501-0.13,0.815-0.032c0.583,0.185,0.864-0.1,1.021-0.32
					c0.193-0.271,0.35-1.029,0.449-1.418l1.805-6.408c0.072-0.28,0.111-0.407,0.043-0.455c-0.119-0.085-0.426,0.131-0.774,0.368
					l-4.7,3.297c-0.508,0.354-0.906,0.732-1.172,1.106c-0.532,0.746,0.461,1.325,0.665,1.829c0.172,0.402,0.245,0.66,0.137,0.813
					c-0.193,0.27-0.397,0.125-0.567,0.003c-0.576-0.411-1.056-0.957-1.632-1.367s-1.25-0.686-1.826-1.096
					c-0.152-0.108-0.39-0.277-0.196-0.549s0.549-0.019,1.118-0.099c0.789-0.103,1.05-0.325,2.312-1.163l9.045-5.95
					c0.997-0.645,1.204-0.65,1.374-0.529c0.203,0.145,0.295,0.339,0.069,1.123l-1.897,6.75c-0.104,0.36-0.14,0.592-0.089,0.628
					c0.068,0.048,0.256-0.073,0.68-0.31l5.992-3.422c0.953-0.548,1.144-0.564,1.348-0.421c0.22,0.157,0.232,0.319-0.009,1.195
					L54.376,178.663z"/>
			</g>
			<g>
				<path d="M34.656,164.754c-0.575,0.188-0.782,0.246-0.913,0.114c-0.059-0.061-0.014-0.281,0.076-0.545l4.383-11.668
					c0.298-0.822,0.803-1.732,0.409-2.456c-0.277-0.516-0.453-0.782-0.216-1.017c0.236-0.233,0.383-0.086,0.617,0.149
					c0.703,0.71,1.288,1.536,1.933,2.188c0.645,0.65,1.466,1.242,2.169,1.953c0.205,0.207,0.189,0.397,0.101,0.486
					c-0.177,0.177-0.472,0.146-0.706-0.062c-0.455-0.312-1.029-0.212-1.414,0.17c-0.37,0.366-1.202,2.069-1.204,2.512
					c-0.001,0.382,0.217,0.722,0.935,1.445l2.242,2.264c0.747,0.754,2.651-0.311,3.287-0.941c0.222-0.22,0.137-0.867-0.083-1.267
					c-0.292-0.531-0.715-1.195-0.479-1.43c0.237-0.235,0.398-0.071,0.632,0.165c0.498,0.502,0.878,1.123,1.376,1.625
					c0.498,0.504,1.114,0.889,1.613,1.393c0.205,0.207,0.38,0.384,0.144,0.617c-0.237,0.235-0.691-0.047-1.044-0.106
					c-0.427-0.077-0.707-0.032-1.06,0.083L34.656,164.754z M41.414,161.43c0.31-0.103,0.531-0.203,0.576-0.247
					c0.133-0.132-0.072-0.428-0.438-0.798l-1.583-1.597c-0.468-0.474-0.674-0.621-0.733-0.563c-0.089,0.088-0.253,0.455-0.372,0.808
					l-1.03,3.013c-0.09,0.294-0.135,0.457-0.032,0.56c0.088,0.09,0.516-0.101,0.619-0.145L41.414,161.43z"/>
			</g>
			<g>
				<path d="M36.142,150.872c-0.109,0.157-0.253,0.431-0.392,0.559c-0.107,0.098-0.286,0.149-0.525-0.111
					c-0.282-0.307,0.062-0.764,0.193-1.082c0.69-1.679,0.749-3.768-0.575-5.208c-0.986-1.072-2.447-1.341-3.566-0.313
					c-2.497,2.296,3.937,6.867-0.247,10.711c-1.579,1.45-4.186,1.474-5.847-0.335c-1.197-1.303-1.317-2.634-1.782-3.139
					c-0.155-0.168-0.679-0.31-0.806-0.446c-0.184-0.199-0.134-0.33,0.065-0.513c0.902-0.772,2.071-2.298,2.239-2.453
					c0.199-0.184,0.422-0.218,0.619-0.003c0.253,0.275,0.064,0.562-0.206,1.037c-0.794,1.38-0.609,3.61,0.461,4.775
					c0.859,0.935,2.141,1.253,3.015,0.451c2.605-2.395-3.997-6.811,0.231-10.696c1.486-1.365,4.457-1.947,6.554,0.336
					c0.901,0.98,1.368,2.134,2.043,3.238c0.11,0.181,0.32,0.441,0.162,0.698L36.142,150.872z"/>
			</g>
			<g>
				<path d="M21.278,136.129c-0.322-0.653-0.591-0.823-1.021-0.611l-2.577,1.271c-1.158,0.57-1.181,1.37-0.851,2.183
					c0.101,0.252,0.044,0.466-0.255,0.613c-0.298,0.146-0.565-0.395-0.833-0.934c-0.368-0.747-0.586-1.567-0.955-2.314
					c-0.368-0.748-0.886-1.421-1.253-2.169c-0.129-0.262-0.267-0.542,0.032-0.688c0.299-0.147,0.548,0.124,0.697,0.282
					c0.453,0.496,1.291,0.548,2.019,0.188l8.403-4.141c1.158-0.57,1.181-1.371,0.851-2.184c-0.101-0.251-0.044-0.465,0.255-0.612
					c0.298-0.147,0.565,0.395,0.833,0.938c0.368,0.746,0.586,1.567,0.955,2.313c0.368,0.747,0.886,1.42,1.253,2.165
					c0.129,0.262,0.267,0.542-0.032,0.689s-0.548-0.124-0.697-0.284c-0.583-0.617-1.403-0.491-2.019-0.188l-3.585,1.768
					c-0.598,0.294-0.57,0.443-0.303,0.985l2.254,4.574c0.156,0.317,0.52,0.208,0.781,0.079l3.623-1.785
					c1.158-0.57,1.181-1.371,0.851-2.183c-0.101-0.253-0.044-0.466,0.255-0.612c0.298-0.148,0.565,0.394,0.833,0.935
					c0.368,0.747,0.587,1.567,0.955,2.315c0.368,0.747,0.885,1.42,1.253,2.166c0.129,0.262,0.267,0.541-0.032,0.689
					c-0.299,0.146-0.549-0.125-0.697-0.284c-0.583-0.617-1.403-0.491-2.019-0.188l-8.402,4.142c-1.158,0.57-1.181,1.37-0.851,2.183
					c0.101,0.253,0.044,0.466-0.255,0.612c-0.299,0.147-0.565-0.395-0.833-0.936c-0.368-0.746-0.587-1.567-0.955-2.313
					c-0.368-0.747-0.885-1.42-1.253-2.168c-0.129-0.261-0.267-0.541,0.032-0.688c0.299-0.146,0.548,0.124,0.697,0.283
					c0.583,0.617,1.403,0.491,2.019,0.188l2.577-1.27c0.374-0.185,0.478-0.491,0.238-0.977L21.278,136.129z"/>
			</g>
			<g>
				<path d="M21.936,122.213c1.228-0.399,1.25-1.611,1.149-2.06c-0.064-0.264,0.023-0.467,0.34-0.569
					c0.316-0.104,0.503,0.471,0.689,1.045c0.199,0.613,0.298,1.458,0.555,2.25c0.257,0.792,0.672,1.532,0.929,2.324
					c0.122,0.377,0.218,0.674-0.098,0.776c-0.317,0.102-0.525-0.202-0.649-0.381c-0.488-0.695-1.285-0.589-1.939-0.377l-8.911,2.892
					c-1.228,0.398-1.365,1.187-1.155,2.038c0.063,0.264-0.023,0.467-0.34,0.57c-0.317,0.103-0.503-0.472-0.689-1.046
					c-0.257-0.792-0.356-1.635-0.613-2.428c-0.257-0.791-0.673-1.532-0.93-2.325c-0.09-0.276-0.186-0.574,0.131-0.676
					c0.317-0.103,0.589,0.399,0.713,0.579c0.488,0.693,1.254,0.49,1.907,0.278L21.936,122.213z"/>
			</g>
			<g>
				<path d="M12.954,115.988c-0.374,0.492-0.707,0.979-0.692,1.082c0.014,0.103,0.084,0.155,0.58,0.089l7.362-1.006
					c1.01-0.138,1.725-0.593,1.899-1.625c0.094-0.537-0.04-1.213,0.352-1.266c0.413-0.057,0.48,0.438,0.531,0.81
					c0.099,0.723,0.032,1.465,0.131,2.188c0.098,0.722,0.362,1.421,0.46,2.143c0.028,0.207,0.059,0.434-0.271,0.479
					c-0.33,0.045-0.467-0.188-0.674-0.475c-0.724-0.993-1.367-1.242-2.501-1.087l-7.774,1.061c-0.783,0.107-1.875,0.571-2.143,1.386
					c-0.237,0.726-0.259,1.022-0.589,1.066c-0.33,0.046-0.347-0.078-0.366-0.223c-0.084-0.619-0.087-1.248-0.171-1.867
					c-0.084-0.618-0.251-1.226-0.336-1.845c-0.062-0.453-0.02-0.605,0.161-0.82l7.179-9.108c0.25-0.329,0.478-0.654,0.461-0.777
					c-0.022-0.165-0.314-0.146-0.603-0.106l-4.681,0.639c-1.361,0.186-2.608,0.439-2.722,1.758c-0.05,0.554-0.119,1.129-0.449,1.175
					s-0.383-0.348-0.434-0.719c-0.099-0.722-0.032-1.466-0.13-2.187c-0.099-0.723-0.362-1.422-0.461-2.144
					c-0.028-0.205-0.059-0.434,0.271-0.478c0.33-0.046,0.467,0.188,0.674,0.476c0.724,0.993,1.364,1.22,2.499,1.065l9.939-1.357
					c0.907-0.123,1.166-0.074,1.2,0.174c0.031,0.226-0.412,0.833-0.856,1.418L12.954,115.988z"/>
			</g>
			<g>
				<path d="M17.376,92.869c-1.289-0.062-1.681,0.732-1.806,1.602c-0.032,0.227-0.185,0.387-0.518,0.371
					c-0.291-0.014-0.316-0.349-0.275-1.224c0.04-0.832,0.204-1.657,0.243-2.489c0.04-0.832-0.045-1.67-0.006-2.499
					c0.022-0.458,0.154-0.597,0.362-0.587c0.333,0.016,0.419,0.375,0.472,0.585c0.211,0.822,0.992,1.047,1.678,1.079l3.035,0.146
					c0.333,0.016,1.615,3.723,1.487,6.404c-0.203,4.262-3.095,7.229-7.315,7.028c-4.449-0.211-7.72-3.701-7.523-7.838
					c0.119-2.495,1.307-4.25,1.321-4.542c0.025-0.52-0.628-0.363-0.599-0.987c0.007-0.146,0.135-0.202,0.239-0.217l2.947-0.193
					c0.334-0.026,0.816-0.086,0.983-0.078c0.312,0.015,0.494,0.127,0.484,0.335c-0.012,0.25-0.521,0.455-0.671,0.531
					c-3.268,1.678-3.671,3.138-3.746,4.718c-0.165,3.451,2.464,4.702,5.79,4.86c3.014,0.144,7.004-0.5,7.173-4.054
					c0.088-1.851-0.534-2.797-2.508-2.891L17.376,92.869z"/>
			</g>
			<g>
				<path d="M11.246,81.463c-0.73-0.168-1.004,0.283-1.227,1.257c-0.445,1.948-0.481,2.857,1.411,3.823
					c0.117,0.048,0.15,0.184,0.099,0.407c-0.064,0.284-0.205,0.337-0.327,0.309c-0.183-0.041-0.458-0.146-0.676-0.218l-2.023-0.675
					c-0.356-0.125-0.435-0.249-0.328-0.715c0.472-2.069,1.103-4.082,1.576-6.151c0.472-2.069,0.788-4.196,1.25-6.226
					c0.116-0.507,0.191-0.554,0.895-0.458l2.116,0.27c0.146,0.012,0.313,0.029,0.456,0.062c0.122,0.028,0.156,0.249,0.12,0.412
					c-0.056,0.243-0.14,0.331-0.267,0.323c-2.125,0.049-2.486,0.884-2.931,2.833c-0.255,1.115-0.11,1.511,0.559,1.665l9.415,2.149
					c1.603,0.366,1.897-1.018,2.355-1.618c0.152-0.2,0.17-0.559,0.617-0.458c0.325,0.075,0.269,0.318,0.214,0.562
					c-0.274,1.197-0.719,2.397-1.001,3.636c-0.283,1.237-0.403,2.512-0.676,3.709c-0.056,0.243-0.111,0.487-0.436,0.413
					c-0.446-0.103-0.307-0.434-0.357-0.68c-0.152-0.739,0.184-2.115-1.419-2.48L11.246,81.463z"/>
			</g>
			<g>
				<path d="M14.631,63.448c1.677-3.924,5.541-5.918,9.599-4.185c4.307,1.841,5.412,6.886,3.71,10.868
					c-1.677,3.924-5.524,5.722-9.41,4.062C14.414,72.434,12.929,67.43,14.631,63.448z M27.463,68.863
					c0.965-2.259-0.768-4.878-3.506-6.049c-2.603-1.112-7.466-1.334-8.775,1.729c-0.965,2.259,0.768,4.879,3.505,6.049
					C21.291,71.705,26.154,71.927,27.463,68.863z"/>
			</g>
			<g>
				<path d="M24.378,54.147c-0.607,0.117-1.18,0.257-1.238,0.343c-0.059,0.086-0.042,0.173,0.372,0.454l6.153,4.166
					c0.845,0.572,1.681,0.711,2.5,0.059c0.43-0.337,0.78-0.93,1.108-0.708c0.345,0.234,0.064,0.647-0.146,0.958
					c-0.409,0.603-0.955,1.113-1.363,1.716c-0.409,0.604-0.68,1.3-1.088,1.904c-0.117,0.172-0.245,0.362-0.521,0.175
					c-0.276-0.187-0.222-0.453-0.185-0.804c0.124-1.223-0.189-1.837-1.137-2.479l-6.498-4.401c-0.655-0.443-1.778-0.827-2.52-0.399
					c-0.661,0.382-0.876,0.589-1.152,0.402s-0.206-0.29-0.124-0.411c0.35-0.518,0.769-0.988,1.119-1.505
					c0.351-0.517,0.631-1.082,0.981-1.598c0.257-0.379,0.391-0.464,0.668-0.503l11.429-1.989c0.404-0.078,0.792-0.167,0.862-0.271
					c0.094-0.138-0.136-0.319-0.377-0.482l-3.913-2.65c-1.138-0.771-2.236-1.414-3.201-0.508c-0.407,0.378-0.843,0.762-1.119,0.576
					c-0.276-0.188-0.054-0.515,0.156-0.826c0.409-0.604,0.955-1.114,1.363-1.717c0.409-0.604,0.68-1.3,1.088-1.902
					c0.117-0.172,0.245-0.362,0.521-0.175c0.275,0.187,0.222,0.452,0.184,0.803c-0.124,1.224,0.201,1.821,1.148,2.462l8.308,5.626
					c0.758,0.514,0.918,0.723,0.778,0.93c-0.128,0.189-0.863,0.346-1.585,0.485L24.378,54.147z"/>
			</g>
		</g>
		<g>
			<g>
				<path d="M38.695,33.806c-0.812-1.003-1.638-0.897-2.317-0.346c-0.21,0.171-0.444,0.146-0.615-0.064
					c-0.184-0.227-0.104-0.425,0.688-1.071c0.647-0.524,1.398-0.919,2.045-1.443c0.646-0.524,1.189-1.178,1.836-1.7
					c0.388-0.314,0.547-0.283,0.678-0.121c0.158,0.193-0.017,0.442-0.17,0.781c-0.324,0.691-0.16,1.389,0.312,1.972l4.078,5.028
					c1.534,1.892,3.896,2.228,5.885,0.616c2.895-2.347,1.731-5.236,0.276-7.031l-3.343-4.124c-0.668-0.824-1.509-1.001-2.437-0.329
					c-0.289,0.207-0.623,0.291-0.833,0.032c-0.157-0.195-0.016-0.417,0.388-0.747c0.485-0.394,1.023-0.722,1.508-1.115
					c0.485-0.394,0.918-0.852,1.403-1.242c0.323-0.262,0.424-0.236,0.582-0.043c0.21,0.259-0.068,0.511-0.251,0.847
					c-0.312,0.575-0.205,0.97,0.936,2.377l2.792,3.444c2.911,3.59,2.532,6.925-1.123,9.887c-2.959,2.399-5.699,2.557-8.189-0.515
					L38.695,33.806z"/>
			</g>
			<g>
				<path d="M55.294,23.641c-0.591-0.181-1.163-0.325-1.255-0.275c-0.092,0.049-0.118,0.133,0.117,0.574l3.49,6.561
					c0.479,0.9,1.153,1.415,2.182,1.221c0.538-0.097,1.125-0.457,1.31-0.108c0.196,0.369-0.245,0.603-0.576,0.779
					c-0.643,0.342-1.365,0.537-2.008,0.88c-0.643,0.341-1.208,0.831-1.851,1.173c-0.184,0.098-0.386,0.206-0.542-0.088
					c-0.156-0.294,0.016-0.503,0.212-0.797c0.682-1.023,0.693-1.712,0.155-2.723l-3.686-6.928c-0.372-0.698-1.185-1.562-2.041-1.531
					c-0.763,0.028-1.049,0.11-1.206-0.184c-0.157-0.293-0.046-0.353,0.082-0.425c0.552-0.293,1.142-0.513,1.693-0.807
					c0.551-0.293,1.063-0.66,1.615-0.949c0.404-0.214,0.562-0.228,0.825-0.132l11.032,3.585c0.394,0.12,0.779,0.223,0.889,0.164
					c0.147-0.078,0.029-0.345-0.108-0.603l-2.219-4.171c-0.645-1.212-1.315-2.294-2.591-1.945c-0.537,0.144-1.101,0.279-1.257-0.015
					c-0.157-0.294,0.192-0.48,0.523-0.66c0.643-0.342,1.365-0.538,2.008-0.879s1.208-0.831,1.852-1.169
					c0.184-0.098,0.386-0.205,0.542,0.089s-0.015,0.503-0.213,0.796c-0.682,1.023-0.674,1.703-0.136,2.713l4.712,8.858
					c0.431,0.808,0.474,1.068,0.253,1.186c-0.202,0.107-0.924-0.098-1.628-0.312L55.294,23.641z"/>
			</g>
			<g>
				<path d="M74.833,22.634c0.476,1.2,1.686,1.146,2.126,1.016c0.259-0.081,0.468-0.007,0.59,0.303c0.123,0.31-0.438,0.531-1,0.754
					c-0.6,0.238-1.435,0.39-2.209,0.696s-1.486,0.769-2.26,1.076c-0.367,0.146-0.658,0.261-0.78-0.049
					c-0.123-0.309,0.167-0.536,0.338-0.671c0.663-0.531,0.506-1.32,0.253-1.958l-3.452-8.707c-0.476-1.199-1.271-1.286-2.107-1.022
					c-0.259,0.081-0.467,0.006-0.59-0.303c-0.123-0.309,0.438-0.532,0.999-0.755c0.774-0.307,1.609-0.458,2.383-0.765
					c0.774-0.307,1.487-0.769,2.261-1.075c0.271-0.107,0.561-0.223,0.684,0.087c0.123,0.31-0.361,0.613-0.532,0.748
					c-0.663,0.532-0.41,1.282-0.157,1.92L74.833,22.634z"/>
			</g>
			<g>
				<path d="M86.153,11.72c0.128-0.602,0.205-1.044,0.14-1.349c-0.082-0.387-0.21-0.594-0.428-0.718
					c-0.386-0.216-0.99-0.152-1.58-0.326c-0.34-0.098-0.504-0.17-0.551-0.394c-0.069-0.326,0.175-0.378,0.379-0.419
					c0.692-0.147,1.419-0.13,2.112-0.276c0.692-0.146,1.35-0.456,2.042-0.604c0.183-0.038,0.469-0.099,0.537,0.227
					c0.069,0.327-0.358,0.417-0.684,0.89c-0.374,0.547-0.481,1.145-0.773,2.483l-2.431,10.939c-0.261,1.183-0.497,1.275-0.721,1.322
					c-0.305,0.065-0.496-0.129-0.943-0.737l-7.498-10.202c-0.63-0.867-1.264-0.945-1.653-1.076c-0.32-0.103-0.544-0.055-0.613-0.381
					c-0.069-0.326,0.135-0.369,0.42-0.428c0.917-0.194,1.867-0.225,2.784-0.419c0.917-0.193,1.798-0.55,2.714-0.745
					c0.143-0.03,0.509-0.108,0.578,0.218c0.069,0.326-0.239,0.476-0.548,0.626c-0.581,0.272-0.556,0.692-0.457,1.161
					c0.078,0.366,0.392,0.747,0.632,1.079l4.17,5.735c0.452,0.628,0.572,0.793,0.674,0.773c0.122-0.026,0.189-0.211,0.275-0.612
					L86.153,11.72z"/>
			</g>
			<g>
				<path d="M92.255,11.044c-0.044-1.02-0.216-2.575-1.094-2.641c-0.649-0.055-1.094-0.224-1.108-0.557
					c-0.014-0.333,0.339-0.348,0.755-0.368c1.61,0.139,3.21,0.007,4.812-0.042c1.602-0.07,3.196-0.306,4.797-0.374
					c0.478-0.021,0.897-0.039,0.917,0.375c0.019,0.458-0.044,0.919-0.024,1.376c0.02,0.458,0.123,0.912,0.145,1.372
					c0.01,0.229-0.046,0.398-0.36,0.412c-0.334,0.014-0.413-0.357-0.441-0.543c-0.203-1.305-0.829-1.819-3.263-1.713l-1.352,0.059
					c-0.583,0.025-0.72,0.219-0.685,1.03l0.158,3.64c0.015,0.333,0.373,0.421,1.205,0.386c1.206-0.053,2.106-0.446,2.4-1.355
					c0.203-0.592,0.283-0.658,0.491-0.667c0.312-0.014,0.326,0.277,0.338,0.567c0.027,0.625-0.03,1.252-0.001,1.876
					c0.026,0.624,0.137,1.244,0.164,1.869c0.012,0.291,0.024,0.582-0.37,0.599c-0.312,0.014-0.339-0.61-0.607-1.016
					c-0.557-0.83-1.165-0.928-2.372-0.876c-0.999,0.043-1.173,0.322-1.151,0.842l0.155,3.557c0.066,1.539,0.347,1.756,1.449,1.708
					c2.185-0.095,3.361-0.813,4.04-1.53c0.68-0.717,0.857-1.433,1.19-1.448c0.25-0.011,0.341,0.173,0.35,0.381
					c0.019,0.417-0.113,1.235-0.239,1.657c-0.235,0.843-1.128,1.903-2.109,1.946c-1.394,0.061-2.794-0.045-4.188,0.016
					c-1.393,0.061-2.78,0.288-4.173,0.348c-0.646,0.028-0.958,0.042-0.972-0.291s0.395-0.497,0.761-0.7
					c0.673-0.363,0.775-0.868,0.724-2.053L92.255,11.044z"/>
			</g>
			<g>
				<path d="M106.605,9.775c0.155-1.218-0.499-1.68-1.351-1.914c-0.264-0.075-0.412-0.22-0.37-0.551
					c0.025-0.206,0.124-0.319,0.619-0.258c0.496,0.063,1.031,0.299,2.498,0.486c1.115,0.142,2.664,0.171,3.572,0.288
					c2.767,0.353,5.57,1.234,5.137,4.641c-0.179,1.403-0.974,2.037-1.883,2.425c-0.441,0.174-1.056,0.222-1.082,0.428
					c-0.039,0.31,1.748,4.733,2.614,5.998c0.177,0.253,0.327,0.398,0.514,0.422c0.227,0.029,0.461-0.004,0.646,0.02
					c0.248,0.032,0.313,0.187,0.283,0.414c-0.113,0.887-2.565,0.701-3.245,0.614c-0.601-0.076-1.271-0.581-1.619-1.464l-1.854-4.726
					c-0.269-0.685-0.533-1.244-1.296-1.341c-0.539-0.068-0.696,0.017-0.729,0.285l-0.446,3.51c-0.216,1.692,0.438,2.154,1.298,2.326
					c0.266,0.055,0.411,0.22,0.369,0.551c-0.033,0.268-0.289,0.299-1.238,0.178c-0.825-0.105-1.63-0.376-2.457-0.481
					c-0.825-0.105-1.672-0.045-2.498-0.15c-0.289-0.037-0.6-0.076-0.557-0.406c0.042-0.331,0.407-0.39,0.62-0.425
					c0.838-0.145,1.186-0.897,1.271-1.579L106.605,9.775z M109.312,13.561c-0.031,0.248-0.092,0.723,1.229,0.891
					c1.858,0.236,2.733-0.534,2.996-2.598c0.189-1.487-0.514-3.045-2.291-3.271c-1.093-0.14-1.32,0.167-1.414,0.91L109.312,13.561z"
					/>
			</g>
			<g>
				<path d="M119.163,20.117c0.009-0.192-0.018-0.5,0.032-0.682c0.037-0.14,0.16-0.279,0.501-0.188
					c0.403,0.107,0.359,0.677,0.419,1.017c0.321,1.788,1.392,3.582,3.283,4.087c1.407,0.376,2.783-0.183,3.177-1.651
					c0.875-3.277-7.011-3.682-5.544-9.172c0.554-2.071,2.743-3.491,5.116-2.857c1.709,0.457,2.524,1.515,3.188,1.692
					c0.221,0.059,0.739-0.104,0.921-0.056c0.26,0.07,0.289,0.207,0.22,0.468c-0.347,1.136-0.515,3.052-0.573,3.273
					c-0.07,0.262-0.238,0.41-0.521,0.335c-0.362-0.097-0.357-0.44-0.383-0.986c-0.07-1.591-1.426-3.375-2.955-3.784
					c-1.226-0.328-2.48,0.092-2.786,1.238c-0.914,3.419,7.032,3.602,5.549,9.153c-0.521,1.951-2.715,4.037-5.711,3.235
					c-1.289-0.344-2.302-1.066-3.465-1.636c-0.19-0.094-0.506-0.2-0.512-0.503L119.163,20.117z"/>
			</g>
			<g>
				<path d="M132.896,26.05c-0.506,1.188,0.394,1.999,0.8,2.217c0.241,0.125,0.337,0.324,0.207,0.63
					c-0.131,0.306-0.687,0.071-1.241-0.166c-0.594-0.252-1.296-0.73-2.062-1.056c-0.767-0.326-1.599-0.497-2.364-0.823
					c-0.364-0.155-0.651-0.277-0.521-0.583c0.131-0.306,0.496-0.264,0.712-0.24c0.846,0.087,1.289-0.583,1.557-1.215l3.659-8.621
					c0.506-1.188,0-1.81-0.779-2.208c-0.24-0.126-0.338-0.324-0.207-0.631c0.129-0.307,0.686-0.071,1.242,0.164
					c0.765,0.326,1.466,0.804,2.232,1.13c0.767,0.325,1.597,0.497,2.364,0.823c0.268,0.114,0.555,0.237,0.426,0.542
					c-0.131,0.307-0.689,0.184-0.905,0.159c-0.845-0.087-1.192,0.625-1.46,1.257L132.896,26.05z"/>
			</g>
			<g>
				<path d="M144.139,20.677c0.379-0.647,0.029-1.044-0.833-1.547c-1.725-1.007-2.581-1.315-4.069,0.202
					c-0.082,0.098-0.221,0.088-0.419-0.027c-0.252-0.147-0.262-0.297-0.199-0.405c0.096-0.162,0.279-0.393,0.412-0.58l1.251-1.728
					c0.225-0.303,0.367-0.34,0.779-0.104c1.834,1.071,3.565,2.275,5.399,3.346c1.833,1.071,3.769,2.008,5.566,3.062
					c0.448,0.262,0.472,0.347,0.17,0.991l-0.893,1.938c-0.054,0.136-0.12,0.291-0.194,0.417c-0.062,0.108-0.284,0.075-0.429-0.009
					c-0.216-0.126-0.274-0.232-0.229-0.351c0.591-2.042-0.099-2.637-1.824-3.645c-0.988-0.578-1.41-0.559-1.756,0.035L142,30.612
					c-0.828,1.421,0.404,2.116,0.84,2.732c0.146,0.206,0.482,0.33,0.252,0.726c-0.168,0.287-0.384,0.162-0.601,0.036
					c-1.06-0.62-2.072-1.403-3.168-2.044c-1.097-0.64-2.277-1.136-3.338-1.756c-0.216-0.126-0.432-0.251-0.264-0.539
					c0.231-0.396,0.505-0.164,0.755-0.138c0.751,0.077,1.963,0.809,2.791-0.612L144.139,20.677z"/>
			</g>
			<g>
				<path d="M160.15,33.198c0.459-0.16,0.721-0.375,0.895-0.583c0.373-0.447,0.005-1.108-0.552-1.872
					c-0.15-0.208-0.211-0.394,0.002-0.65c0.213-0.255,0.389-0.108,0.58,0.052c0.56,0.468,1.012,1.063,1.57,1.53
					c0.56,0.467,1.225,0.807,1.784,1.274c0.175,0.147,0.366,0.307,0.152,0.562c-0.213,0.256-0.37,0.152-0.735,0.037
					c-0.668-0.207-1.132-0.105-2.58,0.393l-4.904,1.679c-0.488,0.162-0.863,0.255-1.104,0.542l-2.096,2.508
					c-0.668,0.798-0.908,1.573-0.172,2.379c0.327,0.355,0.648,0.652,0.383,0.971c-0.281,0.335-0.729-0.038-1.175-0.412
					c-0.719-0.601-1.33-1.329-2.098-1.97c-0.543-0.454-1.368-0.927-2.087-1.528c-0.447-0.374-0.895-0.748-0.613-1.083
					c0.267-0.319,0.616-0.054,1.022,0.205c0.923,0.583,1.645,0.208,2.312-0.59l1.669-1.996c0.134-0.16,0.192-0.328,0.221-0.522
					l1.337-6.533c0.286-1.443,0.155-2.067-0.222-2.491c-0.315-0.371-0.564-0.689-0.352-0.945c0.215-0.255,0.485-0.028,0.772,0.212
					c0.72,0.601,1.331,1.33,2.05,1.931c0.718,0.601,1.544,1.074,2.263,1.674c0.287,0.24,0.559,0.467,0.346,0.723
					c-0.214,0.255-0.661-0.119-1.008-0.191c-0.301-0.062-0.539-0.07-0.646,0.058c-0.227,0.271-0.339,0.666-0.43,1.132l-0.804,3.914
					c-0.134,0.647-0.125,0.897-0.03,0.978c0.063,0.054,0.541-0.063,0.928-0.201L160.15,33.198z"/>
			</g>
		</g>
		<g>
			<g>
				<path d="M167.445,55.877c-1.086,0.696-0.803,1.875-0.592,2.282c0.129,0.239,0.098,0.458-0.184,0.637s-0.607-0.329-0.933-0.835
					c-0.348-0.543-0.656-1.334-1.105-2.036c-0.448-0.702-1.038-1.313-1.487-2.016c-0.213-0.333-0.381-0.596-0.102-0.775
					c0.281-0.18,0.56,0.063,0.725,0.204c0.647,0.549,1.393,0.246,1.972-0.125l7.889-5.051c1.086-0.696,1.021-1.495,0.602-2.264
					c-0.128-0.239-0.095-0.458,0.185-0.638c0.281-0.18,0.606,0.329,0.933,0.838c0.447,0.701,0.757,1.492,1.207,2.194
					c0.447,0.702,1.038,1.313,1.485,2.013c0.158,0.245,0.325,0.507,0.045,0.688c-0.278,0.18-0.671-0.238-0.835-0.379
					c-0.647-0.548-1.337-0.157-1.916,0.213L167.445,55.877z"/>
			</g>
			<g>
				<path d="M177.986,59.157c0.218-0.579,0.399-1.14,0.354-1.235c-0.041-0.095-0.124-0.126-0.58,0.08l-6.77,3.068
					c-0.928,0.42-1.485,1.061-1.356,2.1c0.063,0.543,0.384,1.151,0.025,1.314c-0.381,0.173-0.585-0.283-0.74-0.625
					c-0.302-0.664-0.45-1.396-0.752-2.059c-0.299-0.664-0.752-1.259-1.052-1.922c-0.087-0.189-0.182-0.398,0.122-0.536
					s0.501,0.046,0.782,0.262c0.979,0.746,1.664,0.8,2.708,0.328l7.148-3.239c0.72-0.327,1.634-1.083,1.657-1.939
					c0.021-0.764-0.042-1.055,0.261-1.192c0.302-0.137,0.355-0.023,0.416,0.109c0.257,0.569,0.438,1.171,0.695,1.741
					c0.258,0.569,0.592,1.103,0.85,1.672c0.189,0.417,0.192,0.575,0.081,0.833l-4.279,10.783c-0.145,0.386-0.271,0.763-0.221,0.876
					c0.069,0.152,0.344,0.05,0.61-0.07l4.303-1.95c1.252-0.568,2.374-1.167,2.105-2.463c-0.108-0.544-0.208-1.116,0.095-1.254
					c0.305-0.137,0.468,0.223,0.623,0.563c0.3,0.664,0.449,1.396,0.749,2.061c0.303,0.663,0.755,1.258,1.055,1.923
					c0.086,0.189,0.181,0.398-0.123,0.535c-0.304,0.138-0.501-0.047-0.781-0.262c-0.979-0.746-1.656-0.781-2.7-0.308l-9.14,4.141
					c-0.834,0.378-1.097,0.406-1.198,0.178c-0.095-0.208,0.155-0.917,0.415-1.605L177.986,59.157z"/>
			</g>
		</g>
		<g>
			<g>
				<path d="M179.863,81.866c0.179-0.07,0.449-0.219,0.635-0.249c0.144-0.023,0.322,0.033,0.377,0.382
					c0.066,0.412-0.473,0.603-0.757,0.796c-1.503,1.02-2.705,2.729-2.398,4.661c0.232,1.438,1.302,2.469,2.803,2.229
					c3.349-0.535,0.508-7.901,6.12-8.796c2.116-0.338,4.303,1.083,4.689,3.508c0.281,1.748-0.354,2.923-0.246,3.602
					c0.036,0.226,0.396,0.632,0.425,0.817c0.045,0.267-0.07,0.349-0.336,0.392c-1.178,0.146-2.997,0.773-3.224,0.81
					c-0.268,0.042-0.471-0.052-0.518-0.339c-0.058-0.37,0.258-0.505,0.744-0.751c1.425-0.712,2.503-2.676,2.253-4.238
					c-0.2-1.254-1.093-2.229-2.264-2.042c-3.496,0.558-0.428,7.889-6.101,8.794c-1.992,0.318-4.79-0.836-5.279-3.898
					c-0.21-1.316,0.037-2.536,0.083-3.829c0.01-0.212-0.022-0.544,0.251-0.673L179.863,81.866z"/>
			</g>
			<g>
				<path d="M190.301,96.536c0.751-0.012,0.908-0.514,0.893-1.513c-0.035-1.999-0.216-2.891-2.285-3.376
					c-0.124-0.019-0.189-0.143-0.191-0.372c-0.005-0.291,0.118-0.376,0.242-0.378c0.187-0.003,0.479,0.033,0.709,0.05l2.127,0.173
					c0.374,0.036,0.481,0.138,0.488,0.617c0.035,2.123-0.097,4.229-0.06,6.352c0.034,2.124,0.236,4.266,0.271,6.343
					c0.01,0.521-0.053,0.584-0.76,0.658l-2.118,0.244c-0.146,0.023-0.311,0.047-0.457,0.049c-0.125,0.003-0.211-0.204-0.216-0.371
					c-0.004-0.25,0.057-0.354,0.181-0.378c2.053-0.555,2.203-1.451,2.172-3.45c-0.019-1.145-0.256-1.495-0.941-1.483l-9.657,0.16
					c-1.644,0.028-1.6,1.442-1.901,2.134c-0.1,0.23-0.032,0.583-0.489,0.592c-0.333,0.005-0.336-0.245-0.341-0.491
					c-0.021-1.229,0.125-2.501,0.104-3.771c-0.021-1.269-0.21-2.537-0.229-3.766c-0.005-0.25-0.01-0.5,0.324-0.505
					c0.457-0.007,0.401,0.348,0.51,0.574c0.323,0.682,0.325,2.097,1.97,2.07L190.301,96.536z"/>
			</g>
			<g>
				<path d="M181.447,106.375c-0.04,0.498-1.563,1.752-2.06,1.711c-0.521-0.043-1.777-1.523-1.735-2.021
					c0.042-0.519,1.525-1.817,2.043-1.774C180.194,104.331,181.491,105.856,181.447,106.375z"/>
			</g>
		</g>
		<g>
			<g>
				<path d="M187.005,122.114c1.236,0.367,1.857-0.188,2.105-1.024c0.079-0.26,0.285-0.372,0.563-0.289
					c0.199,0.059,0.318,0.246,0.254,0.465c-0.286,0.958-0.735,1.889-1.02,2.847c-0.292,0.978-0.415,1.982-0.642,2.742
					c-0.084,0.279-0.173,0.577-0.491,0.482c-0.318-0.094-0.318-0.463-0.318-0.68c-0.007-0.851-0.696-1.315-1.353-1.511l-8.642-2.568
					c-1.517-0.449-1.769-0.264-2.07,0.754c-0.621,2.095-0.326,3.443,0.128,4.316c0.457,0.874,1.052,1.289,0.902,1.788
					c-0.083,0.28-0.495,0.353-0.935,0.222c-1.636-0.485-2.444-2.441-1.981-3.999c0.397-1.337,1.369-4.023,1.767-5.36
					c0.219-0.738,0.279-1.523,0.499-2.261c0.137-0.46,0.25-0.838,0.567-0.743c0.319,0.094,0.264,0.425,0.413,0.947
					c0.238,0.809,0.952,1.107,1.611,1.304L187.005,122.114z"/>
			</g>
			<g>
				<path d="M181.932,143.062c-1.948,3.797-5.942,5.513-9.868,3.497c-4.166-2.139-4.913-7.25-2.936-11.101
					c1.949-3.797,5.913-5.318,9.673-3.388C182.783,134.115,183.909,139.211,181.932,143.062z M169.515,136.756
					c-1.122,2.187,0.423,4.921,3.069,6.281c2.519,1.293,7.355,1.856,8.877-1.106c1.12-2.186-0.423-4.921-3.07-6.28
					C175.871,134.357,171.035,133.794,169.515,136.756z"/>
			</g>
			<g>
				<path d="M174.425,150.797c1.015,0.798,1.796,0.511,2.337-0.176c0.167-0.213,0.401-0.241,0.614-0.074
					c0.229,0.182,0.195,0.392-0.436,1.194c-0.516,0.653-1.16,1.205-1.675,1.86c-0.515,0.654-0.899,1.411-1.414,2.065
					c-0.309,0.395-0.471,0.397-0.637,0.27c-0.194-0.154-0.081-0.435-0.005-0.8c0.163-0.745-0.152-1.391-0.741-1.854l-5.089-4.002
					c-1.914-1.506-4.293-1.31-5.876,0.702c-2.304,2.931-0.53,5.49,1.285,6.918l4.175,3.282c0.833,0.657,1.691,0.643,2.45-0.218
					c0.234-0.267,0.541-0.422,0.805-0.216c0.194,0.155,0.105,0.403-0.216,0.811c-0.387,0.492-0.838,0.931-1.223,1.422
					c-0.387,0.491-0.707,1.033-1.094,1.524c-0.258,0.328-0.362,0.325-0.558,0.172c-0.262-0.207-0.046-0.514,0.059-0.883
					c0.176-0.63-0.017-0.991-1.439-2.111l-3.486-2.742c-3.632-2.856-4.002-6.191-1.093-9.891c2.355-2.994,4.993-3.755,8.101-1.309
					L174.425,150.797z"/>
			</g>
			<g>
				<path d="M154.325,159.573c-0.893-0.933-1.992-0.426-2.352-0.139c-0.211,0.173-0.432,0.184-0.662-0.058
					c-0.23-0.24,0.206-0.658,0.641-1.075c0.466-0.447,1.182-0.903,1.783-1.48c0.6-0.575,1.087-1.272,1.688-1.849
					c0.284-0.274,0.51-0.491,0.74-0.25c0.23,0.24,0.048,0.561-0.06,0.75c-0.412,0.741,0.028,1.414,0.506,1.909l6.483,6.76
					c0.894,0.932,1.665,0.713,2.338,0.152c0.211-0.173,0.431-0.183,0.66,0.059c0.23,0.239-0.204,0.657-0.64,1.074
					c-0.602,0.578-1.317,1.034-1.918,1.609c-0.601,0.577-1.086,1.274-1.688,1.851c-0.21,0.202-0.435,0.418-0.665,0.178
					s0.104-0.706,0.21-0.895c0.413-0.741-0.104-1.342-0.58-1.838L154.325,159.573z"/>
			</g>
			<g>
				<path d="M153.34,162.223c0.147,0.123,0.408,0.292,0.522,0.439c0.087,0.116,0.123,0.298-0.158,0.514
					c-0.33,0.254-0.754-0.129-1.06-0.287c-1.612-0.837-3.689-1.08-5.24,0.111c-1.157,0.887-1.554,2.318-0.629,3.523
					c2.066,2.693,7.192-3.313,10.651,1.195c1.305,1.702,1.097,4.303-0.852,5.799c-1.403,1.076-2.741,1.078-3.286,1.497
					c-0.181,0.139-0.367,0.649-0.515,0.763c-0.216,0.165-0.342,0.104-0.506-0.11c-0.689-0.967-2.106-2.268-2.246-2.449
					c-0.165-0.215-0.18-0.439,0.052-0.616c0.297-0.228,0.565-0.015,1.016,0.297c1.304,0.914,3.544,0.926,4.8-0.037
					c1.006-0.772,1.438-2.022,0.717-2.964c-2.155-2.808-7.142,3.381-10.639-1.178c-1.23-1.602-1.546-4.613,0.915-6.501
					c1.058-0.811,2.248-1.175,3.407-1.749c0.189-0.095,0.468-0.28,0.711-0.1L153.34,162.223z"/>
			</g>
		</g>
		<g>
			<path d="M131.927,179.581l0.564-3.012l1.37,0.862l1.343,0.734l0.855,0.419l-0.28,1.076l-0.56,2.93
				c-1.118-0.774-2.323-1.431-3.564-2.008L131.927,179.581z"/>
		</g>
	</g>
	<g>
		<path d="M100.022,173.391c-40.759,0-73.918-33.177-73.918-73.956c0-40.759,33.16-73.919,73.918-73.919
			c40.763,0,73.924,33.16,73.924,73.919C173.946,140.214,140.785,173.391,100.022,173.391z M100.022,27.408
			c-39.715,0-72.026,32.311-72.026,72.026c0,39.735,32.311,72.063,72.026,72.063c39.719,0,72.031-32.328,72.031-72.063
			C172.054,59.719,139.741,27.408,100.022,27.408z"/>
	</g>
	<g>
		<polygon fill="#231F20" points="81.509,158.335 118.131,158.335 118.131,74.872 113.928,74.872 113.928,80.922 111.067,80.922 
			111.067,74.872 106.517,74.872 106.517,80.922 103.709,80.922 103.709,73.117 95.369,73.117 95.369,80.922 92.724,80.922 
			92.725,74.872 88.743,74.872 88.743,80.922 86.008,80.922 86.008,74.872 81.509,74.872 		"/>
		<path fill="#231F20" d="M118.446,158.65H81.194V74.557h5.129v6.05h2.104v-6.05h4.613l0,6.05h2.014v-7.806h8.971v7.806h2.177v-6.05
			h5.182v6.05h2.229v-6.05h4.834V158.65z M81.825,158.02h35.991V75.188h-3.572v6.05h-3.491v-6.05h-3.92v6.05h-3.438v-7.806h-7.709
			v7.806h-3.276l0-6.05h-3.351v6.05h-3.366v-6.05h-3.867V158.02z"/>
	</g>
	<g>
		<path fill="none" stroke="#231F20" stroke-width="0.5" d="M60.244,56.642"/>
	</g>
	<g>
		<polygon fill="#231F20" points="60.177,55.487 66.536,53.909 73.571,53.864 80.064,55.396 80.064,158.561 60.244,158.561 		"/>
		<path fill="#231F20" d="M80.222,158.718H60.086v-0.157L60.02,55.364l6.478-1.607l7.072-0.05l6.652,1.566V158.718z M60.402,158.402
			h19.505V55.521l-6.373-1.504l-6.998,0.05l-6.202,1.543L60.402,158.402z"/>
	</g>
	<g>
		<path fill="none" stroke="#FFFFFF" d="M63.245,42.156"/>
	</g>
	<g>
		<path fill="none" stroke="#FFFFFF" d="M59.94,43.125"/>
	</g>
	<g>
		<polygon fill="#FFFFFF" points="59.609,95.625 59.423,94.698 66.827,93.225 73.915,93.236 80.525,94.658 80.326,95.583 
			73.765,94.172 66.874,94.172 		"/>
	</g>
	<g>
		<path fill="none" stroke="#231F20" stroke-width="0.5" d="M118.781,57.326"/>
	</g>
	<g>
		<polygon fill="#231F20" points="119.535,55.627 125.893,54.048 132.928,54.003 139.422,55.536 139.422,158.561 119.602,158.561 		
			"/>
		<path fill="#231F20" d="M139.58,158.718h-20.136v-0.157l-0.066-103.057l6.477-1.608l7.072-0.05l6.653,1.565V158.718z
			 M119.76,158.402h19.505V55.661l-6.372-1.504l-6.999,0.049l-6.2,1.544L119.76,158.402z"/>
	</g>
	<g>
		<polygon fill="#FFFFFF" points="119.365,95.684 119.174,94.757 126.11,93.337 133.308,93.347 140.141,94.751 139.949,95.678 
			133.163,94.284 126.158,94.284 		"/>
	</g>
	<g>
		<g>
			<path fill="#231F20" d="M56.546,157.596c-17.639-13.084-28.989-33.645-29.4-57.115"/>
			<path d="M55.982,158.354c-18.524-13.739-29.38-34.827-29.784-57.857l1.893-0.033c0.393,22.438,10.97,42.984,29.018,56.371
				L55.982,158.354z"/>
		</g>
		<g>
			<polyline fill="#231F20" points="27.197,100.727 58.329,100.727 58.329,157.324 56.373,157.34 			"/>
			<polygon points="56.38,158.286 56.365,156.394 57.382,156.386 57.382,101.674 27.197,101.674 27.197,99.781 59.275,99.781 
				59.275,158.263 			"/>
		</g>
	</g>
	<g>
		<polygon fill="#FFFFFF" points="115.463,98.264 114.832,98.264 114.832,96.624 83.562,96.624 83.562,98.264 82.932,98.264 
			82.932,95.993 115.463,95.993 		"/>
	</g>
	<g>
		<rect x="86.119" y="100.739" fill="#FFFFFF" width="0.922" height="3.346"/>
		<path fill="#FFFFFF" d="M87.356,104.4h-1.553v-3.977h1.553V104.4z M86.434,103.77h0.291v-2.714h-0.291V103.77z"/>
	</g>
	<g>
		<rect x="91.005" y="100.739" fill="#FFFFFF" width="0.922" height="3.346"/>
		<path fill="#FFFFFF" d="M92.242,104.4h-1.553v-3.977h1.553V104.4z M91.32,103.77h0.291v-2.714H91.32V103.77z"/>
	</g>
	<g>
		<rect x="95.912" y="100.739" fill="#FFFFFF" width="0.922" height="3.346"/>
		<path fill="#FFFFFF" d="M97.149,104.4h-1.553v-3.977h1.553V104.4z M96.227,103.77h0.291v-2.714h-0.291V103.77z"/>
	</g>
	<g>
		<rect x="102.929" y="100.81" fill="#FFFFFF" width="0.922" height="3.345"/>
		<path fill="#FFFFFF" d="M104.166,104.471h-1.553v-3.977h1.553V104.471z M103.244,103.84h0.291v-2.714h-0.291V103.84z"/>
	</g>
	<g>
		<rect x="107.819" y="100.81" fill="#FFFFFF" width="0.922" height="3.345"/>
		<path fill="#FFFFFF" d="M109.057,104.471h-1.553v-3.977h1.553V104.471z M108.135,103.84h0.291v-2.714h-0.291V103.84z"/>
	</g>
	<g>
		<rect x="112.725" y="100.81" fill="#FFFFFF" width="0.922" height="3.345"/>
		<path fill="#FFFFFF" d="M113.962,104.471h-1.553v-3.977h1.553V104.471z M113.04,103.84h0.291v-2.714h-0.291V103.84z"/>
	</g>
	<g>
		<rect x="86.254" y="109.467" fill="#FFFFFF" width="0.921" height="3.347"/>
		<path fill="#FFFFFF" d="M87.491,113.129h-1.552v-3.978h1.552V113.129z M86.57,112.498h0.291v-2.716H86.57V112.498z"/>
	</g>
	<g>
		<rect x="91.141" y="109.467" fill="#FFFFFF" width="0.922" height="3.347"/>
		<path fill="#FFFFFF" d="M92.378,113.129h-1.553v-3.978h1.553V113.129z M91.456,112.498h0.291v-2.716h-0.291V112.498z"/>
	</g>
	<g>
		<rect x="96.047" y="109.467" fill="#FFFFFF" width="0.921" height="3.347"/>
		<path fill="#FFFFFF" d="M97.285,113.129h-1.553v-3.978h1.553V113.129z M96.363,112.498h0.291v-2.716h-0.291V112.498z"/>
	</g>
	<g>
		<rect x="102.727" y="109.606" fill="#FFFFFF" width="0.922" height="3.346"/>
		<path fill="#FFFFFF" d="M103.964,113.268h-1.553v-3.977h1.553V113.268z M103.042,112.637h0.291v-2.715h-0.291V112.637z"/>
	</g>
	<g>
		<rect x="107.617" y="109.606" fill="#FFFFFF" width="0.922" height="3.346"/>
		<path fill="#FFFFFF" d="M108.854,113.268h-1.553v-3.977h1.553V113.268z M107.933,112.637h0.291v-2.715h-0.291V112.637z"/>
	</g>
	<g>
		<rect x="112.522" y="109.606" fill="#FFFFFF" width="0.922" height="3.346"/>
		<path fill="#FFFFFF" d="M113.76,113.268h-1.553v-3.977h1.553V113.268z M112.838,112.637h0.291v-2.715h-0.291V112.637z"/>
	</g>
	<g>
		<rect x="86.317" y="118.124" fill="#FFFFFF" width="0.921" height="3.346"/>
		<path fill="#FFFFFF" d="M87.554,121.785h-1.552v-3.977h1.552V121.785z M86.633,121.154h0.291v-2.715h-0.291V121.154z"/>
	</g>
	<g>
		<rect x="91.204" y="118.124" fill="#FFFFFF" width="0.921" height="3.346"/>
		<path fill="#FFFFFF" d="M92.44,121.785h-1.552v-3.977h1.552V121.785z M91.519,121.154h0.291v-2.715h-0.291V121.154z"/>
	</g>
	<g>
		<rect x="96.11" y="118.124" fill="#FFFFFF" width="0.921" height="3.346"/>
		<path fill="#FFFFFF" d="M97.347,121.785h-1.552v-3.977h1.552V121.785z M96.426,121.154h0.291v-2.715h-0.291V121.154z"/>
	</g>
	<g>
		<rect x="102.79" y="117.983" fill="#FFFFFF" width="0.921" height="3.347"/>
		<path fill="#FFFFFF" d="M104.026,121.646h-1.552v-3.978h1.552V121.646z M103.105,121.015h0.29v-2.716h-0.29V121.015z"/>
	</g>
	<g>
		<rect x="107.681" y="117.983" fill="#FFFFFF" width="0.921" height="3.347"/>
		<path fill="#FFFFFF" d="M108.917,121.646h-1.552v-3.978h1.552V121.646z M107.996,121.015h0.29v-2.716h-0.29V121.015z"/>
	</g>
	<g>
		<rect x="112.586" y="117.983" fill="#FFFFFF" width="0.922" height="3.347"/>
		<path fill="#FFFFFF" d="M113.823,121.646h-1.553v-3.978h1.553V121.646z M112.901,121.015h0.291v-2.716h-0.291V121.015z"/>
	</g>
	<g>
		<g>
			<path fill="#231F20" d="M143.419,157.695c17.626-13.096,28.956-33.669,29.344-57.139"/>
			<path d="M143.983,158.455l-1.129-1.52c18.035-13.4,28.591-33.955,28.962-56.395l1.893,0.031
				C173.328,123.604,162.494,144.701,143.983,158.455z"/>
		</g>
		<g>
			<polyline fill="#231F20" points="172.71,100.803 141.488,100.835 141.546,157.427 143.593,157.44 			"/>
			<polygon points="143.587,158.387 140.602,158.366 140.541,99.89 172.709,99.856 172.711,101.749 142.436,101.78 142.491,156.486 
				143.6,156.494 			"/>
		</g>
	</g>
	<g>
		<path fill="#FFFFFF" d="M87.929,104.781h-3.583v-6.79h3.583V104.781z M84.978,104.15h2.321v-5.528h-2.321V104.15z"/>
	</g>
	<g>
		<path fill="#FFFFFF" d="M92.725,104.781h-3.582v-6.79h3.582V104.781z M89.774,104.15h2.32v-5.528h-2.32V104.15z"/>
	</g>
	<g>
		<path fill="#FFFFFF" d="M97.525,104.781h-3.583v-6.79h3.583V104.781z M94.574,104.15h2.321v-5.528h-2.321V104.15z"/>
	</g>
	<g>
		<path fill="#FFFFFF" d="M87.929,113.385h-3.583v-6.789h3.583V113.385z M84.978,112.754h2.321v-5.527h-2.321V112.754z"/>
	</g>
	<g>
		<path fill="#FFFFFF" d="M92.725,113.385h-3.582v-6.789h3.582V113.385z M89.774,112.754h2.32v-5.527h-2.32V112.754z"/>
	</g>
	<g>
		<path fill="#FFFFFF" d="M97.525,113.385h-3.583v-6.789h3.583V113.385z M94.574,112.754h2.321v-5.527h-2.321V112.754z"/>
	</g>
	<g>
		<path fill="#FFFFFF" d="M87.929,121.989h-3.583V115.2h3.583V121.989z M84.978,121.358h2.321v-5.527h-2.321V121.358z"/>
	</g>
	<g>
		<path fill="#FFFFFF" d="M92.725,121.989h-3.582V115.2h3.582V121.989z M89.774,121.358h2.32v-5.527h-2.32V121.358z"/>
	</g>
	<g>
		<path fill="#FFFFFF" d="M97.525,121.989h-3.583V115.2h3.583V121.989z M94.574,121.358h2.321v-5.527h-2.321V121.358z"/>
	</g>
	<g>
		<path fill="#FFFFFF" d="M104.457,104.781h-3.582v-6.79h3.582V104.781z M101.506,104.15h2.32v-5.528h-2.32V104.15z"/>
	</g>
	<g>
		<path fill="#FFFFFF" d="M109.258,104.781h-3.582v-6.79h3.582V104.781z M106.307,104.15h2.32v-5.528h-2.32V104.15z"/>
	</g>
	<g>
		<path fill="#FFFFFF" d="M114.059,104.781h-3.584v-6.79h3.584V104.781z M111.105,104.15h2.322v-5.528h-2.322V104.15z"/>
	</g>
	<g>
		<path fill="#FFFFFF" d="M104.457,113.385h-3.582v-6.789h3.582V113.385z M101.506,112.754h2.32v-5.527h-2.32V112.754z"/>
	</g>
	<g>
		<path fill="#FFFFFF" d="M109.258,113.385h-3.582v-6.789h3.582V113.385z M106.307,112.754h2.32v-5.527h-2.32V112.754z"/>
	</g>
	<g>
		<path fill="#FFFFFF" d="M114.059,113.385h-3.584v-6.789h3.584V113.385z M111.105,112.754h2.322v-5.527h-2.322V112.754z"/>
	</g>
	<g>
		<path fill="#FFFFFF" d="M104.457,121.989h-3.582V115.2h3.582V121.989z M101.506,121.358h2.32v-5.527h-2.32V121.358z"/>
	</g>
	<g>
		<path fill="#FFFFFF" d="M109.258,121.989h-3.582V115.2h3.582V121.989z M106.307,121.358h2.32v-5.527h-2.32V121.358z"/>
	</g>
	<g>
		<path fill="#FFFFFF" d="M114.059,121.989h-3.584V115.2h3.584V121.989z M111.105,121.358h2.322v-5.527h-2.322V121.358z"/>
	</g>
	<g>
		<path fill="#FFFFFF" d="M99.38,133.329c1.278-0.032,5.403,0.471,9.44,2.712c3.381,1.877,4.182,4.707,4.388,5.833
			c0.246,1.355,0.079,15.962,0.079,15.962H85.564c0,0-0.053-14.413,0.227-16.064c0.182-1.074,0.438-3.735,3.994-5.73
			C93.402,134.012,99.007,133.338,99.38,133.329z"/>
		<path fill="#231F20" d="M113.599,158.151H85.25l-0.001-0.314c-0.002-0.589-0.05-14.459,0.231-16.117l0.028-0.174
			c0.184-1.14,0.614-3.812,4.122-5.78c3.602-2.02,9.249-2.74,9.741-2.752l0.125-0.002c1.562,0,5.554,0.575,9.476,2.754
			c3.331,1.848,4.278,4.585,4.546,6.052c0.249,1.37,0.091,15.425,0.084,16.022L113.599,158.151z M85.879,157.521h27.096
			c0.057-5.123,0.11-14.562-0.077-15.59c-0.248-1.357-1.128-3.892-4.23-5.614c-3.951-2.193-7.958-2.674-9.17-2.674l-0.109,0.002
			c-0.478,0.012-5.952,0.71-9.448,2.672c-3.243,1.818-3.625,4.19-3.809,5.33l-0.029,0.178
			C85.853,143.297,85.873,155.403,85.879,157.521z"/>
	</g>
	<g>
		<path fill="#FFFFFF" d="M99.397,134.479c0.38-0.004,4.8,0.28,8.499,2.44c3.006,1.756,3.764,4.237,3.948,5.251
			c0.222,1.22,0.071,15.359,0.071,15.359H86.964c0,0-0.048-13.966,0.204-15.451c0.165-0.967,0.396-3.362,3.595-5.159
			C94.018,135.094,99.06,134.482,99.397,134.479z"/>
		<path fill="#231F20" d="M112.228,157.846H86.65l-0.001-0.314c-0.001-0.571-0.045-14.011,0.208-15.504l0.026-0.155
			c0.166-1.031,0.555-3.446,3.726-5.227c3.303-1.853,8.41-2.479,8.786-2.481c0.883,0,5.165,0.441,8.661,2.483
			c3.134,1.831,3.911,4.434,4.1,5.467c0.225,1.235,0.083,14.841,0.076,15.419L112.228,157.846z M87.279,157.215h24.324
			c0.052-4.961,0.099-14.066-0.069-14.987c-0.172-0.948-0.89-3.336-3.796-5.035c-3.799-2.22-8.291-2.397-8.333-2.397
			c-0.367,0.005-5.301,0.613-8.488,2.4c-2.904,1.631-3.247,3.756-3.412,4.776l-0.026,0.16
			C87.255,143.452,87.273,155.137,87.279,157.215z"/>
	</g>
	<g>
		<polygon fill="#FFFFFF" points="29.634,124.347 29.632,123.4 60.088,123.343 66.658,122.554 74.243,122.54 80.283,123.186 
			118.897,123.2 125.959,122.595 133.212,122.593 139.799,123.329 139.693,124.269 133.158,123.536 125.998,123.539 
			118.938,124.145 80.232,124.13 74.192,123.484 66.715,123.496 60.146,124.285 		"/>
	</g>
	<g>
		<rect x="140.058" y="123.372" fill="#FFFFFF" width="30.457" height="0.946"/>
	</g>
	<g>
		<rect x="26.662" y="108.532" fill="#FFFFFF" width="32.709" height="0.946"/>
	</g>
	<g>
		<rect x="140.401" y="108.532" fill="#FFFFFF" width="32.709" height="0.946"/>
	</g>
	<g>
		<path fill="#FFFFFF" d="M115.021,157.756h-31.12l-0.001-0.314c-0.002-0.606-0.056-14.872,0.253-16.693l0.032-0.19
			c0.218-1.355,0.674-4.178,4.521-6.337c1.676-0.94,4.837-2.221,10.385-2.981c0.129-0.017,0.221-0.029,0.27-0.038
			c0.035-0.005,0.09-0.01,0.163-0.01c1.013,0,6.964,0.792,10.443,3.04c3.951,2.55,4.801,5.716,4.968,6.626
			c0.273,1.503,0.099,15.972,0.091,16.587L115.021,157.756z M84.53,157.125h29.868c0.062-5.273,0.122-15.022-0.085-16.155
			c-0.154-0.846-0.95-3.796-4.688-6.209c-3.312-2.138-9.16-2.938-10.102-2.938c-0.112,0.011-0.209,0.023-0.347,0.043
			c-5.449,0.746-8.533,1.991-10.162,2.906c-3.581,2.01-4.004,4.628-4.207,5.887l-0.032,0.196
			C84.5,142.478,84.524,154.973,84.53,157.125z"/>
	</g>
	<g>
		<path fill="none" stroke="#FFFFFF" stroke-width="1.5" d="M138.101,176.098"/>
	</g>
	<g>
		<path fill="none" stroke="#FFFFFF" stroke-width="1.5" d="M107.645,176.155"/>
	</g>
	<g>
		<g>
			<rect x="68.888" y="111.733" fill="#231F20" width="2.856" height="6.607"/>
			<path fill="#FFFFFF" d="M72.124,118.72H68.51v-7.365h3.614V118.72z M69.267,117.963h2.1v-5.851h-2.1V117.963z"/>
		</g>
	</g>
	<g>
		<circle fill="#FFFFFF" cx="86.813" cy="129.742" r="1.245"/>
		<path fill="#FFFFFF" d="M86.813,131.935c-1.208,0-2.191-0.983-2.191-2.192s0.983-2.19,2.191-2.19c1.208,0,2.191,0.981,2.191,2.19
			S88.022,131.935,86.813,131.935z M86.813,129.444c-0.165,0-0.298,0.133-0.298,0.298s0.134,0.3,0.298,0.3s0.299-0.135,0.299-0.3
			S86.978,129.444,86.813,129.444z"/>
	</g>
	<g>
		<circle fill="#FFFFFF" cx="111.847" cy="129.844" r="1.245"/>
		<path fill="#FFFFFF" d="M111.847,132.034c-1.208,0-2.191-0.983-2.191-2.19c0-1.209,0.983-2.192,2.191-2.192
			s2.191,0.983,2.191,2.192C114.038,131.051,113.055,132.034,111.847,132.034z M111.847,129.544c-0.164,0-0.299,0.135-0.299,0.3
			c0,0.164,0.135,0.298,0.299,0.298c0.165,0,0.299-0.134,0.299-0.298C112.146,129.679,112.012,129.544,111.847,129.544z"/>
	</g>
	<g>
		<path fill="#231F20" d="M111.578,142.277c0,0-0.663-2.949-3.587-4.837c-2.926-1.888-8.104-2.555-8.5-2.441
			c-0.323,0.093-5.379,0.615-8.635,2.441c-3.199,1.796-3.287,4.104-3.45,5.07C87.406,142.511,98.37,132.275,111.578,142.277z"/>
		<path fill="#231F20" d="M86.939,143.379l0.194-1.167c0.159-1.076,0.488-3.316,3.569-5.047c2.808-1.575,6.93-2.198,8.285-2.402
			c0.221-0.033,0.368-0.055,0.42-0.068c0.058-0.016,0.131-0.023,0.24-0.023c1.117,0,5.803,0.753,8.516,2.504
			c2.998,1.936,3.695,4.908,3.724,5.033l0.188,0.841l-0.688-0.52c-3.786-2.867-7.751-4.321-11.781-4.321
			c-7.046,0-11.936,4.488-11.984,4.534L86.939,143.379z M99.646,135.302c-0.035,0-0.063,0-0.082,0.004
			c-0.039,0.012-0.213,0.04-0.483,0.081c-1.327,0.2-5.363,0.81-8.07,2.328c-2.361,1.326-2.942,2.92-3.159,4.02
			c1.601-1.239,5.983-4.157,11.754-4.157c3.878,0,7.69,1.294,11.339,3.85c-0.426-0.987-1.341-2.568-3.126-3.722
			C105.257,136.052,100.683,135.302,99.646,135.302z"/>
	</g>
	<g>
		<line fill="#FFFFFF" x1="142.831" y1="129.846" x2="145.681" y2="129.846"/>
		<rect x="142.831" y="129.467" fill="#FFFFFF" width="2.85" height="0.758"/>
	</g>
	<g>
		<g>
			<line fill="#FFFFFF" x1="145.864" y1="129.846" x2="148.713" y2="129.846"/>
			<rect x="145.864" y="129.467" fill="#FFFFFF" width="2.849" height="0.758"/>
		</g>
		<g>
			<path fill="#FFFFFF" d="M145.299,134.112l-0.007-8.179L149,125.93l0.007,8.179L145.299,134.112z M146.05,126.69l0.005,6.664
				l2.194-0.003l-0.006-6.664L146.05,126.69z"/>
		</g>
	</g>
	<g>
		<path fill="#FFFFFF" d="M142.447,134.115l-0.007-8.178l3.708-0.004l0.008,8.179L142.447,134.115z M143.198,126.694l0.005,6.663
			l2.195-0.002l-0.007-6.664L143.198,126.694z"/>
	</g>
	<g>
		<line fill="#FFFFFF" x1="142.675" y1="144.732" x2="145.523" y2="144.732"/>
		<rect x="142.675" y="144.354" fill="#FFFFFF" width="2.849" height="0.757"/>
	</g>
	<g>
		<line fill="#FFFFFF" x1="145.707" y1="144.732" x2="148.557" y2="144.732"/>
		<rect x="145.707" y="144.354" fill="#FFFFFF" width="2.85" height="0.757"/>
	</g>
	<g>
		<path fill="#FFFFFF" d="M145.141,148.911l-0.006-8.178l3.709-0.004l0.007,8.178L145.141,148.911z M145.893,141.489l0.005,6.664
			l2.195-0.002l-0.006-6.664L145.893,141.489z"/>
	</g>
	<g>
		<path fill="#FFFFFF" d="M142.289,148.916l-0.006-8.179l3.709-0.004l0.007,8.179L142.289,148.916z M143.041,141.494l0.005,6.664
			l2.195-0.003l-0.006-6.664L143.041,141.494z"/>
	</g>
	<g>
		<rect x="140.104" y="138.966" fill="#FFFFFF" width="22.395" height="0.631"/>
	</g>
	<g>
		<rect x="37.434" y="138.971" fill="#FFFFFF" width="22.394" height="0.631"/>
	</g>
	<g>
		<line fill="#FFFFFF" x1="51.047" y1="144.657" x2="53.896" y2="144.657"/>
		<rect x="51.047" y="144.278" fill="#FFFFFF" width="2.849" height="0.758"/>
	</g>
	<g>
		<g>
			<line fill="#FFFFFF" x1="54.08" y1="144.657" x2="56.928" y2="144.657"/>
			<rect x="54.08" y="144.278" fill="#FFFFFF" width="2.849" height="0.758"/>
		</g>
		<g>
			<path fill="#FFFFFF" d="M53.513,148.923l-0.007-8.177l3.709-0.005l0.007,8.18L53.513,148.923z M54.264,141.502l0.006,6.663
				l2.194-0.001l-0.005-6.665L54.264,141.502z"/>
		</g>
	</g>
	<g>
		<path fill="#FFFFFF" d="M50.662,148.928l-0.007-8.178l3.709-0.004l0.007,8.178L50.662,148.928z M51.413,141.506l0.005,6.664
			l2.195-0.002l-0.006-6.664L51.413,141.506z"/>
	</g>
	<g>
		<line fill="#FFFFFF" x1="50.893" y1="130.141" x2="53.742" y2="130.141"/>
		<rect x="50.893" y="129.762" fill="#FFFFFF" width="2.849" height="0.757"/>
	</g>
	<g>
		<g>
			<line fill="#FFFFFF" x1="53.925" y1="130.112" x2="56.774" y2="130.112"/>
			<rect x="53.925" y="129.733" fill="#FFFFFF" width="2.849" height="0.757"/>
		</g>
		<g>
			<path fill="#FFFFFF" d="M53.359,134.378l-0.007-8.178l3.709-0.004l0.007,8.178L53.359,134.378z M54.11,126.956l0.006,6.664
				l2.194-0.002l-0.005-6.664L54.11,126.956z"/>
		</g>
	</g>
	<g>
		<path fill="#FFFFFF" d="M50.508,134.378l-0.007-8.178l3.709-0.004l0.007,8.178L50.508,134.378z M51.259,126.956l0.005,6.664
			l2.195-0.002l-0.006-6.664L51.259,126.956z"/>
	</g>
	<g>
		<g>
			<rect x="128.19" y="57.684" fill="#231F20" width="2.856" height="6.608"/>
			<path fill="#FFFFFF" d="M131.425,64.671h-3.612v-7.366h3.612V64.671z M128.568,63.914h2.1v-5.851h-2.1V63.914z"/>
		</g>
	</g>
	<g>
		<g>
			<rect x="72.51" y="60.018" fill="#FFFFFF" width="1.575" height="1.333"/>
		</g>
		<g>
			<rect x="73.688" y="57.966" fill="#FFFFFF" width="1.574" height="1.333"/>
		</g>
		<g>
			<rect x="72.51" y="55.185" fill="#FFFFFF" width="1.575" height="1.333"/>
		</g>
		<g>
			<rect x="73.673" y="62.32" fill="#FFFFFF" width="1.663" height="1.408"/>
		</g>
		<g>
			<rect x="72.458" y="64.852" fill="#FFFFFF" width="1.664" height="1.408"/>
		</g>
		<g>
			<rect x="73.687" y="67.245" fill="#FFFFFF" width="1.664" height="1.408"/>
		</g>
		<g>
			<rect x="72.444" y="69.177" fill="#FFFFFF" width="1.664" height="1.408"/>
		</g>
		<g>
			<rect x="73.701" y="71.224" fill="#FFFFFF" width="1.664" height="1.408"/>
		</g>
		<g>
			<rect x="72.458" y="73.156" fill="#FFFFFF" width="1.664" height="1.408"/>
		</g>
		<g>
			<rect x="73.673" y="75.312" fill="#FFFFFF" width="1.663" height="1.408"/>
		</g>
		<g>
			<rect x="72.385" y="77.245" fill="#FFFFFF" width="1.664" height="1.408"/>
		</g>
		<g>
			<rect x="73.687" y="79.292" fill="#FFFFFF" width="1.664" height="1.408"/>
		</g>
		<g>
			<rect x="72.444" y="81.224" fill="#FFFFFF" width="1.664" height="1.408"/>
		</g>
		<g>
			<rect x="73.701" y="83.181" fill="#FFFFFF" width="1.664" height="1.408"/>
		</g>
		<g>
			<rect x="72.476" y="85.209" fill="#FFFFFF" width="1.664" height="1.408"/>
		</g>
		<g>
			<rect x="73.687" y="87.141" fill="#FFFFFF" width="1.664" height="1.408"/>
		</g>
		<g>
			<rect x="72.444" y="89.223" fill="#FFFFFF" width="1.664" height="1.408"/>
		</g>
		<g>
			<rect x="73.701" y="91.121" fill="#FFFFFF" width="1.664" height="1.408"/>
		</g>
		<g>
			<rect x="72.555" y="100.629" fill="#FFFFFF" width="1.575" height="1.333"/>
		</g>
		<g>
			<rect x="73.688" y="98.578" fill="#FFFFFF" width="1.574" height="1.333"/>
		</g>
		<g>
			<rect x="72.555" y="95.887" fill="#FFFFFF" width="1.575" height="1.333"/>
		</g>
		<g>
			<rect x="73.673" y="102.932" fill="#FFFFFF" width="1.663" height="1.407"/>
		</g>
		<g>
			<rect x="72.458" y="105.463" fill="#FFFFFF" width="1.664" height="1.408"/>
		</g>
		<g>
			<rect x="73.687" y="107.855" fill="#FFFFFF" width="1.664" height="1.409"/>
		</g>
		<g>
			<rect x="72.489" y="109.788" fill="#FFFFFF" width="1.664" height="1.408"/>
		</g>
		<g>
			<rect x="73.701" y="111.836" fill="#FFFFFF" width="1.664" height="1.407"/>
		</g>
		<g>
			<rect x="72.458" y="113.769" fill="#FFFFFF" width="1.664" height="1.406"/>
		</g>
		<g>
			<rect x="73.673" y="115.925" fill="#FFFFFF" width="1.663" height="1.407"/>
		</g>
		<g>
			<rect x="72.476" y="117.856" fill="#FFFFFF" width="1.664" height="1.407"/>
		</g>
		<g>
			<rect x="73.687" y="119.903" fill="#FFFFFF" width="1.664" height="1.408"/>
		</g>
		<g>
			<rect x="73.701" y="126.756" fill="#FFFFFF" width="1.664" height="1.408"/>
		</g>
		<g>
			<rect x="72.521" y="128.784" fill="#FFFFFF" width="1.664" height="1.408"/>
		</g>
		<g>
			<rect x="73.687" y="130.716" fill="#FFFFFF" width="1.664" height="1.408"/>
		</g>
		<g>
			<rect x="72.218" y="132.798" fill="#FFFFFF" width="1.663" height="1.407"/>
		</g>
		<g>
			<rect x="73.669" y="135.886" fill="#FFFFFF" width="1.664" height="1.407"/>
		</g>
		<g>
			<rect x="72.544" y="138.417" fill="#FFFFFF" width="1.664" height="1.408"/>
		</g>
		<g>
			<rect x="73.683" y="140.811" fill="#FFFFFF" width="1.664" height="1.408"/>
		</g>
		<g>
			<rect x="72.531" y="142.742" fill="#FFFFFF" width="1.663" height="1.408"/>
		</g>
		<g>
			<rect x="73.697" y="144.79" fill="#FFFFFF" width="1.664" height="1.407"/>
		</g>
		<g>
			<rect x="72.499" y="146.723" fill="#FFFFFF" width="1.664" height="1.407"/>
		</g>
		<g>
			<rect x="73.669" y="148.879" fill="#FFFFFF" width="1.664" height="1.407"/>
		</g>
		<g>
			<rect x="72.517" y="150.811" fill="#FFFFFF" width="1.664" height="1.407"/>
		</g>
		<g>
			<rect x="73.683" y="152.948" fill="#FFFFFF" width="1.664" height="1.409"/>
		</g>
		<g>
			<rect x="72.322" y="124.55" fill="#FFFFFF" width="1.664" height="1.408"/>
		</g>
		<g>
			<rect x="72.425" y="155.54" fill="#FFFFFF" width="1.663" height="1.408"/>
		</g>
		<g>
			
				<rect x="13.762" y="98.563" transform="matrix(8.647004e-04 1 -1 8.647004e-04 172.6971 24.8772)" fill="#FFFFFF" width="120.273" height="0.597"/>
		</g>
	</g>
	<g>
		<g>
			<rect x="124.271" y="59.803" fill="#FFFFFF" width="1.575" height="1.333"/>
		</g>
		<g>
			<rect x="125.404" y="57.751" fill="#FFFFFF" width="1.575" height="1.333"/>
		</g>
		<g>
			<rect x="124.271" y="54.97" fill="#FFFFFF" width="1.575" height="1.333"/>
		</g>
		<g>
			<rect x="125.391" y="62.105" fill="#FFFFFF" width="1.664" height="1.408"/>
		</g>
		<g>
			<rect x="124.175" y="64.637" fill="#FFFFFF" width="1.663" height="1.408"/>
		</g>
		<g>
			<rect x="125.404" y="67.03" fill="#FFFFFF" width="1.663" height="1.408"/>
		</g>
		<g>
			<rect x="124.177" y="68.962" fill="#FFFFFF" width="1.664" height="1.408"/>
		</g>
		<g>
			<rect x="125.418" y="71.009" fill="#FFFFFF" width="1.663" height="1.408"/>
		</g>
		<g>
			<rect x="124.177" y="72.941" fill="#FFFFFF" width="1.664" height="1.408"/>
		</g>
		<g>
			<rect x="125.391" y="75.098" fill="#FFFFFF" width="1.664" height="1.408"/>
		</g>
		<g>
			<rect x="124.193" y="77.03" fill="#FFFFFF" width="1.663" height="1.408"/>
		</g>
		<g>
			<rect x="125.404" y="79.077" fill="#FFFFFF" width="1.663" height="1.408"/>
		</g>
		<g>
			<rect x="124.177" y="81.009" fill="#FFFFFF" width="1.664" height="1.408"/>
		</g>
		<g>
			<rect x="125.418" y="82.966" fill="#FFFFFF" width="1.663" height="1.408"/>
		</g>
		<g>
			<rect x="124.193" y="84.994" fill="#FFFFFF" width="1.663" height="1.408"/>
		</g>
		<g>
			<rect x="125.404" y="86.926" fill="#FFFFFF" width="1.663" height="1.408"/>
		</g>
		<g>
			<rect x="124.177" y="89.008" fill="#FFFFFF" width="1.664" height="1.408"/>
		</g>
		<g>
			<rect x="125.418" y="90.906" fill="#FFFFFF" width="1.663" height="1.408"/>
		</g>
		<g>
			<rect x="124.271" y="100.414" fill="#FFFFFF" width="1.575" height="1.333"/>
		</g>
		<g>
			<rect x="125.32" y="98.059" fill="#FFFFFF" width="1.575" height="1.333"/>
		</g>
		<g>
			<rect x="124.271" y="95.581" fill="#FFFFFF" width="1.575" height="1.333"/>
		</g>
		<g>
			<rect x="125.391" y="102.717" fill="#FFFFFF" width="1.664" height="1.408"/>
		</g>
		<g>
			<rect x="124.175" y="105.249" fill="#FFFFFF" width="1.663" height="1.407"/>
		</g>
		<g>
			<rect x="125.404" y="107.642" fill="#FFFFFF" width="1.663" height="1.407"/>
		</g>
		<g>
			<rect x="124.161" y="109.573" fill="#FFFFFF" width="1.663" height="1.407"/>
		</g>
		<g>
			<rect x="125.418" y="111.62" fill="#FFFFFF" width="1.663" height="1.408"/>
		</g>
		<g>
			<rect x="124.177" y="113.553" fill="#FFFFFF" width="1.664" height="1.408"/>
		</g>
		<g>
			<rect x="125.391" y="115.709" fill="#FFFFFF" width="1.664" height="1.408"/>
		</g>
		<g>
			<rect x="124.193" y="117.641" fill="#FFFFFF" width="1.663" height="1.408"/>
		</g>
		<g>
			<rect x="125.404" y="119.688" fill="#FFFFFF" width="1.663" height="1.407"/>
		</g>
		<g>
			<rect x="125.418" y="126.541" fill="#FFFFFF" width="1.663" height="1.407"/>
		</g>
		<g>
			<rect x="124.147" y="128.569" fill="#FFFFFF" width="1.663" height="1.407"/>
		</g>
		<g>
			<rect x="125.404" y="130.502" fill="#FFFFFF" width="1.663" height="1.406"/>
		</g>
		<g>
			<rect x="123.936" y="132.583" fill="#FFFFFF" width="1.663" height="1.408"/>
		</g>
		<g>
			<rect x="125.387" y="135.671" fill="#FFFFFF" width="1.664" height="1.408"/>
		</g>
		<g>
			<rect x="124.171" y="138.203" fill="#FFFFFF" width="1.663" height="1.407"/>
		</g>
		<g>
			<rect x="125.4" y="140.596" fill="#FFFFFF" width="1.664" height="1.407"/>
		</g>
		<g>
			<rect x="124.157" y="142.527" fill="#FFFFFF" width="1.664" height="1.407"/>
		</g>
		<g>
			<rect x="125.414" y="144.574" fill="#FFFFFF" width="1.664" height="1.409"/>
		</g>
		<g>
			<rect x="124.125" y="146.507" fill="#FFFFFF" width="1.664" height="1.408"/>
		</g>
		<g>
			<rect x="125.387" y="148.663" fill="#FFFFFF" width="1.664" height="1.408"/>
		</g>
		<g>
			<rect x="124.143" y="150.595" fill="#FFFFFF" width="1.663" height="1.409"/>
		</g>
		<g>
			<rect x="125.4" y="152.734" fill="#FFFFFF" width="1.664" height="1.407"/>
		</g>
		<g>
			<rect x="124.039" y="124.336" fill="#FFFFFF" width="1.663" height="1.406"/>
		</g>
		<g>
			<rect x="124.143" y="155.325" fill="#FFFFFF" width="1.663" height="1.407"/>
		</g>
		<g>
			<rect x="125.267" y="38.173" fill="#FFFFFF" width="0.598" height="120.29"/>
		</g>
	</g>
	<g>
		<g>
			<rect x="131.989" y="59.803" fill="#FFFFFF" width="1.575" height="1.333"/>
		</g>
		<g>
			<rect x="133.193" y="57.751" fill="#FFFFFF" width="1.574" height="1.333"/>
		</g>
		<g>
			<rect x="131.989" y="54.97" fill="#FFFFFF" width="1.575" height="1.333"/>
		</g>
		<g>
			<rect x="133.18" y="62.105" fill="#FFFFFF" width="1.663" height="1.408"/>
		</g>
		<g>
			<rect x="131.918" y="64.637" fill="#FFFFFF" width="1.663" height="1.408"/>
		</g>
		<g>
			<rect x="133.193" y="67.03" fill="#FFFFFF" width="1.663" height="1.408"/>
		</g>
		<g>
			<rect x="131.95" y="68.962" fill="#FFFFFF" width="1.663" height="1.408"/>
		</g>
		<g>
			<rect x="133.207" y="71.009" fill="#FFFFFF" width="1.663" height="1.408"/>
		</g>
		<g>
			<rect x="131.964" y="72.941" fill="#FFFFFF" width="1.663" height="1.408"/>
		</g>
		<g>
			<rect x="133.18" y="75.098" fill="#FFFFFF" width="1.663" height="1.408"/>
		</g>
		<g>
			<rect x="131.945" y="77.03" fill="#FFFFFF" width="1.663" height="1.408"/>
		</g>
		<g>
			<rect x="133.193" y="79.077" fill="#FFFFFF" width="1.663" height="1.408"/>
		</g>
		<g>
			<rect x="131.95" y="81.009" fill="#FFFFFF" width="1.663" height="1.408"/>
		</g>
		<g>
			<rect x="133.207" y="82.966" fill="#FFFFFF" width="1.663" height="1.408"/>
		</g>
		<g>
			<rect x="131.981" y="84.994" fill="#FFFFFF" width="1.664" height="1.408"/>
		</g>
		<g>
			<rect x="133.193" y="86.926" fill="#FFFFFF" width="1.663" height="1.408"/>
		</g>
		<g>
			<rect x="131.95" y="89.008" fill="#FFFFFF" width="1.663" height="1.408"/>
		</g>
		<g>
			<rect x="133.207" y="90.906" fill="#FFFFFF" width="1.663" height="1.408"/>
		</g>
		<g>
			<rect x="132.061" y="100.414" fill="#FFFFFF" width="1.575" height="1.333"/>
		</g>
		<g>
			<rect x="133.193" y="98.362" fill="#FFFFFF" width="1.574" height="1.333"/>
		</g>
		<g>
			<rect x="132.061" y="95.581" fill="#FFFFFF" width="1.575" height="1.333"/>
		</g>
		<g>
			<rect x="133.18" y="102.717" fill="#FFFFFF" width="1.663" height="1.408"/>
		</g>
		<g>
			<rect x="131.964" y="105.249" fill="#FFFFFF" width="1.663" height="1.407"/>
		</g>
		<g>
			<rect x="133.193" y="107.642" fill="#FFFFFF" width="1.663" height="1.407"/>
		</g>
		<g>
			<rect x="131.95" y="109.573" fill="#FFFFFF" width="1.663" height="1.407"/>
		</g>
		<g>
			<rect x="133.207" y="111.62" fill="#FFFFFF" width="1.663" height="1.408"/>
		</g>
		<g>
			<rect x="131.964" y="113.553" fill="#FFFFFF" width="1.663" height="1.408"/>
		</g>
		<g>
			<rect x="133.18" y="115.709" fill="#FFFFFF" width="1.663" height="1.408"/>
		</g>
		<g>
			<rect x="131.945" y="117.641" fill="#FFFFFF" width="1.663" height="1.408"/>
		</g>
		<g>
			<rect x="133.193" y="119.688" fill="#FFFFFF" width="1.663" height="1.407"/>
		</g>
		<g>
			<rect x="133.207" y="126.541" fill="#FFFFFF" width="1.663" height="1.407"/>
		</g>
		<g>
			<rect x="131.937" y="128.569" fill="#FFFFFF" width="1.663" height="1.407"/>
		</g>
		<g>
			<rect x="133.193" y="130.502" fill="#FFFFFF" width="1.663" height="1.406"/>
		</g>
		<g>
			<rect x="131.725" y="132.583" fill="#FFFFFF" width="1.663" height="1.408"/>
		</g>
		<g>
			<rect x="133.176" y="135.671" fill="#FFFFFF" width="1.664" height="1.408"/>
		</g>
		<g>
			<rect x="131.945" y="138.203" fill="#FFFFFF" width="1.663" height="1.407"/>
		</g>
		<g>
			<rect x="133.189" y="140.596" fill="#FFFFFF" width="1.663" height="1.407"/>
		</g>
		<g>
			<rect x="131.945" y="142.527" fill="#FFFFFF" width="1.663" height="1.407"/>
		</g>
		<g>
			<rect x="133.203" y="144.574" fill="#FFFFFF" width="1.663" height="1.409"/>
		</g>
		<g>
			<rect x="131.96" y="146.507" fill="#FFFFFF" width="1.663" height="1.408"/>
		</g>
		<g>
			<rect x="133.176" y="148.663" fill="#FFFFFF" width="1.664" height="1.408"/>
		</g>
		<g>
			<rect x="131.977" y="150.595" fill="#FFFFFF" width="1.664" height="1.409"/>
		</g>
		<g>
			<rect x="133.189" y="152.734" fill="#FFFFFF" width="1.663" height="1.407"/>
		</g>
		<g>
			<rect x="131.828" y="124.336" fill="#FFFFFF" width="1.663" height="1.406"/>
		</g>
		<g>
			<rect x="131.932" y="155.325" fill="#FFFFFF" width="1.663" height="1.407"/>
		</g>
		<g>
			<rect x="133.055" y="37.922" fill="#FFFFFF" width="0.598" height="120.541"/>
		</g>
	</g>
	<g>
		<g>
			<rect x="128.186" y="111.639" fill="#231F20" width="2.856" height="6.607"/>
			<path fill="#FFFFFF" d="M131.42,118.625h-3.612v-7.364h3.612V118.625z M128.563,117.867h2.1v-5.85h-2.1V117.867z"/>
		</g>
	</g>
	<g>
		<polygon fill="#231F20" points="76.455,137.73 79.132,137.787 79.132,145.063 76.455,145.012 		"/>
		<path fill="#FFFFFF" d="M79.511,145.449l-3.434-0.066v-8.039l3.434,0.073V145.449z M76.834,144.641l1.919,0.037v-6.52
			l-1.919-0.041V144.641z"/>
	</g>
	<g>
		<polygon fill="#231F20" points="120.411,144.527 123.158,144.531 123.2,137.256 120.447,137.328 		"/>
		<path fill="#FFFFFF" d="M123.534,144.91l-3.504-0.006l0.04-7.945l3.511-0.092L123.534,144.91z M120.791,144.149l1.99,0.003
			l0.038-6.508l-1.996,0.053L120.791,144.149z"/>
	</g>
	<g>
		<polygon fill="#FFFFFF" points="96.885,129.704 99.452,130.561 102.017,129.704 102.017,125.712 96.885,125.712 		"/>
		<path d="M99.452,130.86l-2.851-0.951v-4.48h5.701v4.48L99.452,130.86z M97.169,129.5l2.282,0.761l2.282-0.761v-3.504h-4.564V129.5
			z"/>
	</g>
	<g>
		<path fill="none" stroke="#231F20" stroke-width="0.25" d="M60.07,41.054"/>
	</g>
	<g>
		<g>
			<rect x="65.219" y="60.018" fill="#FFFFFF" width="1.575" height="1.333"/>
		</g>
		<g>
			<rect x="66.306" y="57.966" fill="#FFFFFF" width="1.574" height="1.333"/>
		</g>
		<g>
			<rect x="65.219" y="55.185" fill="#FFFFFF" width="1.575" height="1.333"/>
		</g>
		<g>
			<rect x="66.292" y="62.32" fill="#FFFFFF" width="1.664" height="1.408"/>
		</g>
		<g>
			<rect x="65.122" y="64.852" fill="#FFFFFF" width="1.664" height="1.408"/>
		</g>
		<g>
			<rect x="66.306" y="67.245" fill="#FFFFFF" width="1.664" height="1.408"/>
		</g>
		<g>
			<rect x="65.153" y="69.177" fill="#FFFFFF" width="1.664" height="1.408"/>
		</g>
		<g>
			<rect x="66.32" y="71.224" fill="#FFFFFF" width="1.663" height="1.408"/>
		</g>
		<g>
			<rect x="65.122" y="73.156" fill="#FFFFFF" width="1.664" height="1.408"/>
		</g>
		<g>
			<rect x="66.292" y="75.312" fill="#FFFFFF" width="1.664" height="1.408"/>
		</g>
		<g>
			<rect x="65.14" y="77.245" fill="#FFFFFF" width="1.664" height="1.408"/>
		</g>
		<g>
			<rect x="66.306" y="79.292" fill="#FFFFFF" width="1.664" height="1.408"/>
		</g>
		<g>
			<rect x="65.108" y="81.224" fill="#FFFFFF" width="1.664" height="1.408"/>
		</g>
		<g>
			<rect x="66.32" y="83.181" fill="#FFFFFF" width="1.663" height="1.408"/>
		</g>
		<g>
			<rect x="65.14" y="85.209" fill="#FFFFFF" width="1.664" height="1.408"/>
		</g>
		<g>
			<rect x="66.306" y="87.141" fill="#FFFFFF" width="1.664" height="1.408"/>
		</g>
		<g>
			<rect x="65.108" y="89.223" fill="#FFFFFF" width="1.664" height="1.408"/>
		</g>
		<g>
			<rect x="66.32" y="91.121" fill="#FFFFFF" width="1.663" height="1.408"/>
		</g>
		<g>
			<rect x="65.219" y="100.629" fill="#FFFFFF" width="1.575" height="1.333"/>
		</g>
		<g>
			<rect x="66.306" y="98.578" fill="#FFFFFF" width="1.574" height="1.333"/>
		</g>
		<g>
			<rect x="65.219" y="95.796" fill="#FFFFFF" width="1.575" height="1.333"/>
		</g>
		<g>
			<rect x="66.292" y="102.932" fill="#FFFFFF" width="1.664" height="1.407"/>
		</g>
		<g>
			<rect x="65.122" y="105.463" fill="#FFFFFF" width="1.664" height="1.408"/>
		</g>
		<g>
			<rect x="66.306" y="107.855" fill="#FFFFFF" width="1.664" height="1.409"/>
		</g>
		<g>
			<rect x="65.108" y="109.788" fill="#FFFFFF" width="1.664" height="1.408"/>
		</g>
		<g>
			<rect x="66.32" y="111.836" fill="#FFFFFF" width="1.663" height="1.407"/>
		</g>
		<g>
			<rect x="65.122" y="113.769" fill="#FFFFFF" width="1.664" height="1.406"/>
		</g>
		<g>
			<rect x="66.292" y="115.925" fill="#FFFFFF" width="1.664" height="1.407"/>
		</g>
		<g>
			<rect x="65.14" y="117.856" fill="#FFFFFF" width="1.664" height="1.407"/>
		</g>
		<g>
			<rect x="66.306" y="119.903" fill="#FFFFFF" width="1.664" height="1.408"/>
		</g>
		<g>
			<rect x="66.32" y="126.756" fill="#FFFFFF" width="1.663" height="1.408"/>
		</g>
		<g>
			<rect x="65.14" y="128.784" fill="#FFFFFF" width="1.664" height="1.408"/>
		</g>
		<g>
			<rect x="66.306" y="130.716" fill="#FFFFFF" width="1.664" height="1.408"/>
		</g>
		<g>
			<rect x="64.836" y="132.798" fill="#FFFFFF" width="1.664" height="1.407"/>
		</g>
		<g>
			<rect x="66.288" y="135.886" fill="#FFFFFF" width="1.663" height="1.407"/>
		</g>
		<g>
			<rect x="65.035" y="138.417" fill="#FFFFFF" width="1.664" height="1.408"/>
		</g>
		<g>
			<rect x="66.302" y="140.811" fill="#FFFFFF" width="1.664" height="1.408"/>
		</g>
		<g>
			<rect x="65.104" y="142.742" fill="#FFFFFF" width="1.664" height="1.408"/>
		</g>
		<g>
			<rect x="66.315" y="144.79" fill="#FFFFFF" width="1.664" height="1.407"/>
		</g>
		<g>
			<rect x="65.118" y="146.723" fill="#FFFFFF" width="1.663" height="1.407"/>
		</g>
		<g>
			<rect x="66.288" y="148.879" fill="#FFFFFF" width="1.663" height="1.407"/>
		</g>
		<g>
			<rect x="65.081" y="150.811" fill="#FFFFFF" width="1.664" height="1.407"/>
		</g>
		<g>
			<rect x="66.302" y="152.948" fill="#FFFFFF" width="1.664" height="1.409"/>
		</g>
		<g>
			<rect x="64.94" y="124.55" fill="#FFFFFF" width="1.664" height="1.408"/>
		</g>
		<g>
			<rect x="65.043" y="155.54" fill="#FFFFFF" width="1.664" height="1.408"/>
		</g>
		<g>
			<rect x="66.204" y="38.895" fill="#FFFFFF" width="0.597" height="120.104"/>
		</g>
	</g>
	<g>
		<path d="M102.089,70.962c-0.036-0.892-1.166-1.61-2.563-1.61s-2.527,0.718-2.562,1.61h-0.732v3.314h6.631v-3.314H102.089z"/>
	</g>
	<g>
		<polygon fill="#231F20" points="61.516,57.527 64.309,56.906 64.309,64.264 61.513,64.881 		"/>
		<path fill="#FFFFFF" d="M61.134,65.352l0.004-8.129l3.55-0.789v8.134L61.134,65.352z M61.894,57.831l-0.002,6.579l2.039-0.45
			v-6.582L61.894,57.831z"/>
	</g>
	<g>
		<g>
			<line fill="#FFFFFF" x1="39.252" y1="130.112" x2="42.101" y2="130.112"/>
			<rect x="39.252" y="129.733" fill="#FFFFFF" width="2.849" height="0.757"/>
		</g>
		<g>
			<g>
				<line fill="#FFFFFF" x1="42.589" y1="130.112" x2="45.438" y2="130.112"/>
				<rect x="42.589" y="129.733" fill="#FFFFFF" width="2.849" height="0.757"/>
			</g>
			<g>
				<path fill="#FFFFFF" d="M42.023,134.378l-0.007-8.178l3.709-0.004l0.007,8.178L42.023,134.378z M42.774,126.956l0.005,6.664
					l2.195-0.002l-0.006-6.664L42.774,126.956z"/>
			</g>
		</g>
		<g>
			<line fill="#FFFFFF" x1="36.532" y1="130.112" x2="39.381" y2="130.112"/>
			<rect x="36.532" y="129.733" fill="#FFFFFF" width="2.849" height="0.757"/>
		</g>
		<g>
			<path fill="#FFFFFF" d="M35.937,134.383l-0.007-8.178l3.709-0.005l0.006,8.178L35.937,134.383z M36.688,126.961l0.005,6.664
				l2.194-0.003l-0.005-6.664L36.688,126.961z"/>
		</g>
		<g>
			<path fill="#FFFFFF" d="M38.867,134.383l-0.007-8.178l3.709-0.005l0.007,8.178L38.867,134.383z M39.618,126.961l0.006,6.664
				l2.194-0.003l-0.005-6.664L39.618,126.961z"/>
		</g>
	</g>
	<g>
		<g>
			<line fill="#FFFFFF" x1="157.369" y1="129.854" x2="160.218" y2="129.854"/>
			<rect x="157.369" y="129.476" fill="#FFFFFF" width="2.849" height="0.757"/>
		</g>
		<g>
			<g>
				<line fill="#FFFFFF" x1="160.542" y1="129.854" x2="163.391" y2="129.854"/>
				<rect x="160.542" y="129.476" fill="#FFFFFF" width="2.849" height="0.757"/>
			</g>
			<g>
				<path fill="#FFFFFF" d="M159.976,134.12l-0.008-8.178l3.71-0.004l0.007,8.179L159.976,134.12z M160.726,126.699l0.006,6.663
					l2.195-0.002l-0.005-6.664L160.726,126.699z"/>
			</g>
		</g>
		<g>
			<line fill="#FFFFFF" x1="154.55" y1="129.854" x2="157.398" y2="129.854"/>
			<rect x="154.55" y="129.476" fill="#FFFFFF" width="2.849" height="0.757"/>
		</g>
		<g>
			<path fill="#FFFFFF" d="M154.023,134.125l-0.006-8.178l3.708-0.005l0.007,8.178L154.023,134.125z M154.775,126.703l0.005,6.664
				l2.194-0.003l-0.006-6.664L154.775,126.703z"/>
		</g>
		<g>
			<path fill="#FFFFFF" d="M156.983,134.125l-0.006-8.178l3.709-0.005l0.007,8.178L156.983,134.125z M157.735,126.703l0.005,6.664
				l2.195-0.003l-0.006-6.664L157.735,126.703z"/>
		</g>
	</g>
</g>
</svg>
