<?xml version="1.0" encoding="utf-8"?>
<!-- Generator: Adobe Illustrator 15.1.0, SVG Export Plug-In . SVG Version: 6.00 Build 0)  -->
<!DOCTYPE svg PUBLIC "-//W3C//DTD SVG 1.1//EN" "http://www.w3.org/Graphics/SVG/1.1/DTD/svg11.dtd">
<svg version="1.1" xmlns="http://www.w3.org/2000/svg" xmlns:xlink="http://www.w3.org/1999/xlink" x="0px" y="0px" width="185px"
	 height="185px" viewBox="0 0 185 185" enable-background="new 0 0 185 185" xml:space="preserve">
<g id="Layer_1">
	<g>
		<path fill="#0071BC" d="M47.362,175.255c0.188,1.003,0.094,1.833-0.282,2.491s-0.878,1.143-1.504,1.457
			c-0.314,0.125-0.644,0.188-0.987,0.188c-0.345,0-0.705,0.062-1.081,0.188c-1.379,0.313-2.742,0.235-4.089-0.234
			c-1.348-0.471-2.272-1.049-2.773-1.739c-0.314-0.438-0.596-0.954-0.846-1.551c-0.251-0.595-0.564-1.081-0.94-1.457
			c-0.126-0.125-0.267-0.249-0.423-0.376c-0.157-0.125-0.361-0.156-0.611-0.094c-0.69,0.188-1.333,0.533-1.927,1.033
			c-0.596,0.503-1.175,0.94-1.739,1.316c-0.815,0.502-1.692,0.956-2.632,1.363c-0.94,0.408-1.943,0.768-3.008,1.081
			c-0.627,0.188-1.301,0.312-2.021,0.376c-0.721,0.062-1.426,0.155-2.115,0.281c-0.314,0.062-0.58,0.095-0.799,0.095
			c-0.22,0-0.456,0-0.705,0c-0.69,0.124-1.348,0.124-1.974,0H16.06c-0.314-0.063-0.627-0.095-0.94-0.095
			c-0.314,0-0.597-0.062-0.846-0.188c-0.251-0.062-0.455-0.079-0.611-0.047c-0.157,0.031-0.329,0.015-0.517-0.047
			c-0.502-0.127-1.003-0.235-1.504-0.329c-0.502-0.095-0.973-0.235-1.41-0.423c-1.88-0.814-3.4-1.739-4.559-2.773
			c-1.16-1.033-2.115-2.49-2.867-4.371c-0.564-1.377-0.846-3.039-0.846-4.982v-1.973c0.062-0.313,0.109-0.643,0.141-0.988
			c0.031-0.344,0.078-0.705,0.141-1.08c0.25-0.689,0.501-1.378,0.752-2.068c0.25-0.689,0.564-1.316,0.94-1.88
			c1.128-1.817,2.663-3.163,4.606-4.042c1.941-0.877,4.073-1.66,6.392-2.35c0.876-0.25,1.786-0.438,2.726-0.564
			c0.94-0.125,1.88-0.282,2.82-0.471c0.438-0.124,0.86-0.188,1.269-0.188c0.407,0,0.86-0.062,1.363-0.188
			c0.438-0.125,0.877-0.203,1.316-0.235c0.438-0.03,0.908-0.108,1.41-0.235c1.566-0.375,3.039-0.705,4.418-0.986
			c1.378-0.282,2.475-0.987,3.29-2.115c0.376-0.501,0.689-1.143,0.94-1.928c0.25-0.782,0.25-1.645,0-2.584
			c-0.376-1.504-0.925-2.693-1.645-3.572c-0.721-0.877-1.739-1.566-3.055-2.068c-0.752-0.312-1.645-0.531-2.679-0.658
			c-1.034-0.125-2.115-0.188-3.243-0.188s-2.225,0.062-3.29,0.188c-1.066,0.127-1.974,0.314-2.726,0.564
			c-1.066,0.376-2.1,0.909-3.102,1.598c-0.502,0.377-0.957,0.863-1.363,1.457c-0.408,0.597-0.768,1.238-1.081,1.928
			c-0.188,0.502-0.361,1.033-0.517,1.598c-0.157,0.564-0.455,1.003-0.893,1.316c-0.251,0.188-0.674,0.328-1.269,0.422
			c-0.597,0.095-1.208,0.142-1.833,0.142c-0.627,0-1.238-0.047-1.833-0.142c-0.597-0.094-1.02-0.234-1.269-0.422
			c-0.251-0.188-0.439-0.502-0.564-0.94c-0.126-0.438-0.126-0.907,0-1.41c0.188-0.813,0.391-1.581,0.611-2.303
			c0.219-0.72,0.485-1.425,0.799-2.115c1.19-2.192,2.694-3.901,4.512-5.123c1.817-1.222,4.073-2.209,6.768-2.961
			c0.625-0.124,1.269-0.219,1.927-0.282c0.658-0.062,1.331-0.155,2.021-0.281c0.25-0.062,0.658-0.078,1.222-0.047
			s0.908-0.016,1.034-0.142c4.386-0.062,8.208,0.439,11.468,1.504c3.258,1.066,5.546,3.103,6.862,6.11
			c0.564,1.254,0.893,2.711,0.987,4.371c0.094,1.66,0.141,3.4,0.141,5.217v20.773c0,0.879,0.031,1.725,0.094,2.539
			c0.062,0.814,0.25,1.473,0.564,1.974c0.313,0.438,0.72,0.752,1.222,0.94c0.564,0.25,1.096,0.422,1.598,0.517
			c0.5,0.094,0.876,0.392,1.128,0.893c0.125,0.188,0.188,0.376,0.188,0.563C47.268,174.69,47.299,174.941,47.362,175.255z
			 M33.92,164.82c0.376-0.877,0.579-1.895,0.611-3.055c0.031-1.158,0.047-2.365,0.047-3.619c0-0.688-0.033-1.316-0.094-1.88
			c-0.063-0.563-0.314-1.001-0.752-1.315c-0.188-0.125-0.627-0.188-1.316-0.188c-0.126,0.126-0.345,0.188-0.658,0.188
			c-0.314,0-0.596,0.062-0.846,0.188c-0.502,0.127-1.066,0.251-1.692,0.376c-0.627,0.126-1.254,0.251-1.88,0.376
			c-0.188,0-0.392,0.016-0.611,0.047c-0.22,0.033-0.456,0.047-0.705,0.047c-0.94,0.252-1.959,0.393-3.055,0.424
			c-1.097,0.031-2.115,0.173-3.055,0.422c-0.502,0.127-0.956,0.235-1.363,0.33c-0.408,0.094-0.862,0.203-1.363,0.328
			c-1.003,0.314-1.943,0.705-2.82,1.176c-0.878,0.47-1.63,1.05-2.256,1.738c-0.627,0.69-1.097,1.521-1.41,2.491
			c-0.314,0.973-0.439,2.147-0.376,3.524c0,0.628,0.108,1.208,0.329,1.74c0.219,0.533,0.485,1.019,0.799,1.457
			c0.5,0.689,1.159,1.269,1.974,1.738c0.814,0.471,1.692,0.862,2.632,1.176c0.312,0.062,0.625,0.094,0.94,0.094
			c0.313,0,0.625,0.031,0.94,0.094c0.438,0.126,0.987,0.204,1.645,0.234c0.658,0.033,1.206-0.014,1.645-0.141
			c0.376-0.125,0.752-0.172,1.128-0.141c0.376,0.032,0.752-0.016,1.128-0.141c0.501-0.125,0.987-0.219,1.457-0.283
			c0.47-0.061,0.924-0.188,1.363-0.375c1.816-0.752,3.368-1.66,4.653-2.727C32.243,168.08,33.229,166.639,33.92,164.82z"/>
	</g>
	<g>
		<path fill="#29ABE2" d="M75.406,129.007c5.076-0.125,9.322,0.627,12.738,2.256c3.414,1.63,6.125,3.948,8.131,6.956
			c1.002,1.504,1.754,3.229,2.256,5.17c0.125,0.314,0.234,0.721,0.328,1.223s0.078,0.939-0.047,1.315
			c-0.25,0.69-0.689,1.081-1.316,1.175s-1.379,0.141-2.256,0.141h-4.887c-0.564,0-1.145,0-1.74,0s-1.08-0.125-1.457-0.375
			c-0.502-0.25-0.846-0.643-1.033-1.176c-0.188-0.531-0.439-1.08-0.752-1.645c-0.377-0.689-0.785-1.316-1.223-1.881
			c-0.439-0.563-0.939-1.064-1.504-1.504c-0.877-0.563-1.85-1.001-2.914-1.315c-0.375-0.125-0.752-0.188-1.127-0.188
			c-0.377,0-0.723-0.061-1.035-0.188h-0.939c-1.254,0-2.256,0.127-3.008,0.376c-1.818,0.563-3.291,1.427-4.418,2.585
			c-1.129,1.16-2.037,2.555-2.727,4.184c-0.314,0.689-0.549,1.426-0.705,2.209s-0.328,1.613-0.516,2.49
			c-0.064,0.252-0.096,0.502-0.096,0.752c0,0.252-0.031,0.502-0.094,0.752c-0.125,0.627-0.172,1.504-0.141,2.633
			c0.031,1.127,0.109,2.006,0.234,2.631c0,0.503,0.031,0.847,0.096,1.035c0.123,0.438,0.201,0.878,0.234,1.315
			c0.031,0.438,0.109,0.878,0.234,1.315c0.502,1.443,1.096,2.759,1.787,3.949c0.688,1.19,1.564,2.193,2.631,3.008
			c0.25,0.188,0.627,0.408,1.129,0.658c0.688,0.438,1.393,0.721,2.115,0.846c0.719,0.126,1.611,0.251,2.678,0.375
			c0.125,0,0.312,0,0.564,0c0.25,0,0.438-0.03,0.564-0.094h0.846c0.438-0.125,0.861-0.234,1.27-0.328
			c0.406-0.094,0.799-0.203,1.174-0.33c1.881-0.812,3.322-2.004,4.324-3.571c0.25-0.313,0.471-0.673,0.658-1.081
			c0.188-0.406,0.344-0.767,0.471-1.081c0.25-0.688,0.469-1.3,0.658-1.833c0.188-0.531,0.625-0.955,1.314-1.27
			c0.564-0.249,1.473-0.359,2.727-0.328c1.254,0.032,2.287,0.047,3.102,0.047c0.438,0,0.895-0.015,1.363-0.047
			c0.471-0.031,0.861,0.016,1.176,0.141h0.752c0.25,0.062,0.5,0.11,0.752,0.141c0.25,0.033,0.438,0.111,0.564,0.235
			c0.312,0.251,0.516,0.611,0.609,1.081c0.096,0.471,0.078,0.956-0.047,1.457c-0.562,2.068-1.254,3.917-2.066,5.546
			c-2.57,4.827-6.676,8.179-12.315,10.058c-0.627,0.188-1.285,0.33-1.975,0.424s-1.379,0.234-2.068,0.423
			c-0.375,0.062-0.752,0.094-1.127,0.094c-0.377,0-0.752,0.03-1.129,0.095h-1.033c-0.314,0.124-0.785,0.172-1.41,0.141
			c-0.627-0.033-1.098-0.08-1.41-0.141c-0.502-0.127-0.957-0.174-1.363-0.142c-0.408,0.03-0.832-0.017-1.27-0.142
			c-0.314-0.062-0.627-0.109-0.939-0.141c-0.314-0.032-0.627-0.079-0.939-0.141c-0.691-0.188-1.35-0.376-1.975-0.564
			c-0.627-0.188-1.223-0.406-1.785-0.658c-2.947-1.252-5.422-2.867-7.426-4.84c-2.008-1.975-3.637-4.434-4.889-7.38
			c-0.314-0.563-0.564-1.175-0.752-1.833s-0.376-1.33-0.564-2.021c-0.063-0.249-0.094-0.484-0.094-0.704s-0.063-0.485-0.188-0.8
			c-0.126-0.438-0.188-0.893-0.188-1.362s-0.063-0.924-0.188-1.363v-1.598c-0.126-0.313-0.188-0.673-0.188-1.081
			c0-0.406,0.062-0.767,0.188-1.081c0.062-0.313,0.062-0.595,0-0.847c-0.063-0.249-0.063-0.5,0-0.752
			c0.125-0.438,0.172-0.846,0.141-1.222c-0.032-0.376,0.015-0.752,0.141-1.128c0.312-1.128,0.564-2.209,0.752-3.242
			c0.188-1.035,0.47-2.053,0.846-3.056c1.377-3.196,3.118-5.858,5.217-7.989s4.777-3.854,8.037-5.171
			c0.877-0.376,1.785-0.642,2.727-0.799c0.939-0.155,1.91-0.36,2.914-0.61c0.5-0.062,0.971-0.095,1.408-0.095
			C74.435,129.101,74.904,129.07,75.406,129.007z"/>
		<path fill="#29ABE2" d="M134.906,129.101c2.318-0.062,4.355,0.188,6.111,0.752c1.754,0.563,3.289,1.349,4.605,2.351
			c0.5,0.375,0.955,0.814,1.363,1.315c0.406,0.503,0.861,1.003,1.363,1.504c0.125,0.126,0.328,0.298,0.611,0.517
			c0.281,0.221,0.578,0.268,0.893,0.142c0.688-0.188,1.346-0.642,1.973-1.362s1.223-1.27,1.787-1.646
			c0.877-0.688,1.816-1.269,2.82-1.739c1.002-0.47,2.129-0.924,3.383-1.363c0.502-0.125,1.113-0.234,1.834-0.328
			c0.719-0.095,1.471-0.156,2.256-0.188c0.783-0.03,1.535-0.015,2.256,0.047c0.719,0.063,1.363,0.157,1.928,0.282
			c0.312,0.062,0.594,0.094,0.846,0.094c0.25,0,0.531,0.063,0.846,0.188c0.877,0.252,1.723,0.503,2.537,0.752
			c0.814,0.252,1.566,0.598,2.256,1.035c2.633,1.63,4.607,4.011,5.924,7.144c0.248,0.563,0.438,1.144,0.562,1.739
			s0.25,1.175,0.377,1.738c0.061,0.439,0.107,0.846,0.141,1.223c0.031,0.376,0.078,0.752,0.141,1.128v0.94
			c0.062,0.375,0.078,0.814,0.047,1.315c-0.031,0.503-0.047,0.972-0.047,1.41v5.452v18.33c0,0.502,0.016,1.08,0.047,1.738
			s0.031,1.285,0,1.881s-0.109,1.16-0.234,1.691c-0.127,0.533-0.314,0.893-0.564,1.081c-0.375,0.314-0.861,0.486-1.457,0.517
			c-0.596,0.033-1.238,0.047-1.926,0.047h-4.982c-0.879,0-1.662-0.061-2.35-0.188c-0.691-0.125-1.162-0.471-1.41-1.034
			c-0.189-0.438-0.283-0.924-0.283-1.457c0-0.531,0-1.048,0-1.551v-5.265v-12.689v-3.947c0-0.313,0.016-0.658,0.047-1.035
			c0.031-0.375-0.016-0.719-0.141-1.033v-0.752c0-0.377,0-0.752,0-1.129c0-0.375-0.031-0.752-0.094-1.127
			c-0.062-0.25-0.094-0.518-0.094-0.799c0-0.283-0.033-0.549-0.094-0.8c-0.252-0.94-0.518-1.77-0.799-2.491
			c-0.283-0.719-0.705-1.363-1.27-1.927c-0.879-0.877-1.943-1.504-3.195-1.88c-0.252-0.062-0.471-0.078-0.658-0.047
			c-0.189,0.032-0.408-0.015-0.658-0.141c-0.252-0.062-0.549-0.109-0.893-0.142c-0.346-0.03-0.676-0.015-0.988,0.047
			c-0.375,0.126-0.752,0.188-1.127,0.188c-0.377,0-0.752,0.062-1.129,0.188c-1.818,0.627-3.135,1.567-3.947,2.82
			c-1.066,1.442-1.709,3.243-1.928,5.404c-0.221,2.162-0.328,4.529-0.328,7.098v12.408v6.955c0,0.628,0,1.255,0,1.881
			c0,0.627-0.158,1.128-0.471,1.504c-0.314,0.439-0.768,0.705-1.363,0.799s-1.27,0.141-2.021,0.141h-5.074
			c-0.564,0-1.113-0.014-1.646-0.047c-0.533-0.03-0.986-0.108-1.363-0.234c-0.627-0.312-0.986-0.814-1.08-1.504
			s-0.141-1.473-0.141-2.351v-7.989v-14.758c0-1.817-0.064-3.541-0.188-5.171c-0.127-1.628-0.533-2.976-1.223-4.042
			c-0.502-0.877-1.145-1.535-1.928-1.974s-1.738-0.813-2.867-1.128c-0.25-0.062-0.502-0.078-0.752-0.047s-0.533,0.016-0.846-0.047
			c-0.689-0.125-1.348-0.062-1.975,0.188c-0.125,0-0.25,0.016-0.375,0.047c-0.127,0.032-0.252,0.047-0.377,0.047
			c-1.002,0.314-1.973,0.846-2.914,1.598c-1.002,0.752-1.77,1.615-2.303,2.586c-0.533,0.973-0.908,2.068-1.127,3.289
			c-0.221,1.223-0.346,2.555-0.377,3.996s-0.047,3.008-0.047,4.699v12.69v5.733c0,0.564,0,1.129,0,1.692s-0.094,1.066-0.281,1.504
			c-0.252,0.563-0.721,0.909-1.41,1.034c-0.691,0.127-1.473,0.188-2.35,0.188h-4.889c-0.627,0-1.238-0.014-1.832-0.047
			c-0.598-0.03-1.082-0.172-1.457-0.423c-0.564-0.312-0.863-0.893-0.895-1.739c-0.031-0.846-0.047-1.738-0.047-2.679V162.94v-22.936
			v-5.64c0-0.689,0.016-1.301,0.047-1.834c0.031-0.531,0.172-0.986,0.424-1.363c0.312-0.375,0.814-0.625,1.504-0.752h0.564
			c0.312-0.061,0.641-0.094,0.986-0.094c0.344,0,0.674,0,0.986,0h3.855c0.5,0,0.986,0.017,1.457,0.047
			c0.469,0.033,0.893,0.111,1.268,0.235c0.502,0.188,0.83,0.503,0.988,0.94c0.154,0.439,0.297,0.939,0.422,1.504
			c0.062,0.188,0.078,0.361,0.047,0.517c-0.031,0.157,0.016,0.298,0.143,0.423c0.061,0.188,0.141,0.33,0.234,0.424
			s0.203,0.203,0.328,0.328c0.752,0.063,1.379-0.172,1.881-0.705c0.5-0.531,0.971-0.954,1.41-1.269
			c0.877-0.626,1.77-1.189,2.678-1.692c0.908-0.5,1.896-0.907,2.963-1.222c0.562-0.188,1.127-0.312,1.691-0.376
			c0.564-0.062,1.158-0.156,1.785-0.281c0.189-0.062,0.471-0.078,0.846-0.048C134.531,129.18,134.781,129.164,134.906,129.101z"/>
	</g>
	<g>
		<path fill="#29ABE2" d="M108.738,65.044v-1.432c0-1.128-0.245-1.338-1.141-1.273v-0.597c0.652,0.049,1.322,0.025,1.974,0.025
			c0.638,0,1.271,0.023,1.922-0.025v0.596c-0.896-0.048-1.248,0.016-1.234,1.273l-0.001,1.432H108.738z M110.171,66.797
			c0.069,0.069,0.098,0.056,0.108,0.246c0,1.261-0.021,4.179-0.021,4.179c0,1.192,0,1.256,1.303,1.241
			c2.676,0,3.041-0.645,3.396-2.66h0.679c-0.259,1.516-0.327,1.903-0.503,3.514c-1.032-0.063-2.186-0.047-3.518-0.047
			c-1.847,0-3.222-0.004-3.774,0.023l0.003-0.572c0.896,0.032,0.895,0,0.895-1.273l-0.01-4.807
			C108.729,66.641,110.008,66.633,110.171,66.797z"/>
		<path fill="#29ABE2" d="M101.479,65.611c-0.094-0.043-0.085-0.032-0.082-0.155c-0.001,0.025,1.726-0.027,2.118-0.001
			c0.626-0.022,2.207-0.025,2.849-0.025c0.496,0,2.788,0.01,3.613,0.02c0.824,0.009,1.524,0.016,1.524,0.007
			c0.021,0.579,0.021,0.927,0.028,1.295c0.008,0.37,0.021,0.761,0.07,1.433h-0.295h-0.296c-0.025-0.663-0.111-1.082-0.25-1.353
			c-0.139-0.271-0.329-0.396-0.563-0.47c-0.159-0.052-0.384-0.083-0.6-0.1c-0.214-0.018-1.76-0.022-1.878-0.022h-0.313h-0.315v4.204
			v4.204c0,0.534,0.103,0.802,0.26,0.936c0.156,0.133,0.369,0.133,0.591,0.133h0.592h0.223v0.279v0.279
			c-0.327-0.023-1.018-0.001-1.354-0.018c-0.336-0.017-0.692-0.013-1.031-0.013c-0.338,0-0.694-0.003-1.029,0.013
			c-0.337,0.016-1.016-0.005-1.343,0.018v-0.279v-0.279h0.221h0.223c0.222,0,0.812,0,0.974-0.133
			c0.163-0.134,0.271-0.402,0.271-0.936v-4.204v-4.204h-0.313h-0.315c-0.012,0-1.141,0.008-1.378,0.027s-0.686,0.05-0.835,0.094
			L101.479,65.611z"/>
		<path fill="#29ABE2" d="M100.442,67.979c-1.695-0.854-2.542-1.792-2.542-3.382c0-1.055,0.402-1.925,0.932-2.461
			c0.666-0.669,1.555-0.887,2.431-0.887c1.015,0,1.654,0.218,2.947,0.636c-0.07,0.736-0.098,1.138-0.098,1.758
			c0,0.317,0.014,0.62,0.014,0.938h-0.848c-0.015-0.636-0.028-1.155-0.278-1.641c-0.361-0.669-1.042-0.904-1.709-0.904
			c-1.39,0-2.001,0.904-2.001,1.876c0,0.953,0.445,1.406,2.056,2.259c1.946,1.021,3.252,1.691,3.252,3.868
			c0,2.394-1.583,3.683-3.46,3.683c-0.736,0-1.389-0.117-2.528-0.569c-0.501-0.2-0.556-0.217-0.82-0.284
			c0.069-1.139,0.125-1.825,0.125-3.415h0.848c0.015,1.272,0.056,3.381,2.334,3.381c1.487,0,2.168-0.887,2.168-2.059
			c0-1.021-0.417-1.573-2.084-2.427L100.442,67.979z"/>
		<g>
			<g>
				<path fill="#29ABE2" d="M111.376,55.542"/>
				<path fill="#29ABE2" d="M100.894,53.124c1.177,2.99,3.666,4.635,6.47,4.635c2.463,0,4.672-1.278,5.976-3.248
					c1.739-2.61,1.433-5.807,1.433-9.856V31.704c-0.108-4.741-1.395-5.594-4.437-5.86v-1.757h10.737v1.705
					c-2.716,0.532-4.4,1.598-4.473,6.232v12.793c-0.108,5.646-0.146,10.066-3.875,13.209c-1.993,1.652-3.912,2.078-6.049,2.078
					c-2.55,0-5.211-0.659-7.236-2.681L100.894,53.124"/>
				<path fill="#29ABE2" d="M111.369,55.541"/>
				<path fill="#29ABE2" d="M114.095,48.862c0,1.257-0.266,3.271-0.945,4.516c-0.425,0.778-0.801,1.328-1.777,2.158l0.004,0.005
					l-6.035-17.143l-9.855,27.644L83.727,33.728c-0.959-2.93-1.544-4.048-5.434-4.528v-1.651h13.743v1.704
					c-0.586,0.054-2.077,0.107-2.557,0.214c-0.426,0.107-1.261,0.373-1.261,1.864c0,0.427,0.106,0.853,0.426,1.918l7.692,22.363
					l10.209-27.856l7.551,21.118L114.095,48.862z"/>
				<path fill="#29ABE2" d="M116.124,54.5c-0.011,0.026-0.021,0.054-0.034,0.081"/>
				<path fill="#29ABE2" d="M116.494,55.535l8.138-21.752c0.213-0.852,0.641-1.57,0.641-2.209c0-2.184-1.687-2.237-4.51-2.343
					v-1.759h12.944v1.759c-3.835,0.319-5.346,0.746-6.463,4.314l-12.156,32.422l-2.424-6.943c0.121-0.092,0.242-0.188,0.363-0.287
					c1.853-1.562,2.575-3.026,3.134-4.349L116.494,55.535"/>
			</g>
			<path fill="#29ABE2" d="M100.122,42.802l-3.415,9.395c-0.335-1.474-0.377-2.94-0.416-4.442v0.002l0.002-0.098l0.015-16.92
				c-0.036-2.035,0.073-2.805-0.399-3.662c-0.584-1.071-2.472-1.176-4.11-1.284v-1.749h12.815v1.802
				c-2.876,0.161-4.373,0.84-4.48,4.911l-0.002,12.052L100.122,42.802z"/>
		</g>
	</g>
</g>
<g id="Layer_3">
	<g>
		<rect x="6.5" y="118" fill="#0071BC" width="169" height="4"/>
		<polyline fill="#0071BC" points="6.5,116 175.5,116 175.5,93 35.5,93 		"/>
	</g>
	<path fill="none" stroke="#0071BC" stroke-width="4" stroke-miterlimit="10" d="M173.5,12c0-2.209-1.791-4-4-4h-127
		c-2.209,0-4,1.791-4,4v73c0,2.209,1.791,4,4,4h127c2.209,0,4-1.791,4-4V12z"/>
</g>
</svg>
