<?xml version="1.0" encoding="utf-8"?>
<!-- Generator: Adobe Illustrator 15.1.0, SVG Export Plug-In . SVG Version: 6.00 Build 0)  -->
<!DOCTYPE svg PUBLIC "-//W3C//DTD SVG 1.1//EN" "http://www.w3.org/Graphics/SVG/1.1/DTD/svg11.dtd">
<svg version="1.1" xmlns="http://www.w3.org/2000/svg" xmlns:xlink="http://www.w3.org/1999/xlink" x="0px" y="0px" width="200px"
	 height="200px" viewBox="0 0 200 200" enable-background="new 0 0 200 200" xml:space="preserve">
<g id="Layer_1">
	<g>
		<g>
			<path fill="#0071BC" d="M55.862,171.255c0.188,1.003,0.094,1.833-0.282,2.491s-0.878,1.143-1.504,1.457
				c-0.314,0.125-0.644,0.188-0.987,0.188c-0.345,0-0.705,0.062-1.081,0.188c-1.379,0.313-2.742,0.235-4.089-0.234
				c-1.348-0.471-2.272-1.049-2.773-1.739c-0.314-0.438-0.596-0.954-0.846-1.551c-0.251-0.595-0.564-1.081-0.94-1.457
				c-0.126-0.125-0.267-0.249-0.423-0.376c-0.157-0.125-0.361-0.156-0.611-0.094c-0.69,0.188-1.333,0.533-1.927,1.033
				c-0.596,0.503-1.175,0.94-1.739,1.316c-0.815,0.502-1.692,0.956-2.632,1.363c-0.94,0.408-1.943,0.768-3.008,1.081
				c-0.627,0.188-1.301,0.312-2.021,0.376c-0.721,0.062-1.426,0.155-2.115,0.281c-0.314,0.062-0.58,0.095-0.799,0.095
				c-0.22,0-0.456,0-0.705,0c-0.69,0.124-1.348,0.124-1.974,0H24.56c-0.314-0.063-0.627-0.095-0.94-0.095
				c-0.314,0-0.597-0.062-0.846-0.188c-0.251-0.062-0.455-0.079-0.611-0.047c-0.157,0.031-0.329,0.015-0.517-0.047
				c-0.502-0.127-1.003-0.235-1.504-0.329c-0.502-0.095-0.973-0.235-1.41-0.423c-1.88-0.814-3.4-1.739-4.559-2.773
				c-1.16-1.033-2.115-2.49-2.867-4.371c-0.564-1.377-0.846-3.039-0.846-4.982v-1.973c0.062-0.313,0.109-0.643,0.141-0.988
				c0.031-0.344,0.078-0.705,0.141-1.08c0.25-0.689,0.501-1.378,0.752-2.068c0.25-0.689,0.564-1.316,0.94-1.88
				c1.128-1.817,2.663-3.163,4.606-4.042c1.941-0.877,4.073-1.66,6.392-2.35c0.876-0.25,1.786-0.438,2.726-0.564
				c0.94-0.125,1.88-0.282,2.82-0.471c0.438-0.124,0.86-0.188,1.269-0.188c0.407,0,0.86-0.062,1.363-0.188
				c0.438-0.125,0.877-0.203,1.316-0.235c0.438-0.03,0.908-0.108,1.41-0.235c1.566-0.375,3.039-0.705,4.418-0.986
				c1.378-0.282,2.475-0.987,3.29-2.115c0.376-0.501,0.689-1.143,0.94-1.928c0.25-0.782,0.25-1.645,0-2.584
				c-0.376-1.504-0.925-2.693-1.645-3.572c-0.721-0.877-1.739-1.566-3.055-2.068c-0.752-0.312-1.645-0.531-2.679-0.658
				c-1.034-0.125-2.115-0.188-3.243-0.188s-2.225,0.062-3.29,0.188c-1.066,0.127-1.974,0.314-2.726,0.564
				c-1.066,0.376-2.1,0.909-3.102,1.598c-0.502,0.377-0.957,0.863-1.363,1.457c-0.408,0.597-0.768,1.238-1.081,1.928
				c-0.188,0.502-0.361,1.033-0.517,1.598c-0.157,0.564-0.455,1.003-0.893,1.316c-0.251,0.188-0.674,0.328-1.269,0.422
				c-0.597,0.095-1.208,0.142-1.833,0.142c-0.627,0-1.238-0.047-1.833-0.142c-0.597-0.094-1.02-0.234-1.269-0.422
				c-0.251-0.188-0.439-0.502-0.564-0.94c-0.126-0.438-0.126-0.907,0-1.41c0.188-0.813,0.391-1.581,0.611-2.303
				c0.219-0.72,0.485-1.425,0.799-2.115c1.19-2.192,2.694-3.901,4.512-5.123c1.817-1.222,4.073-2.209,6.768-2.961
				c0.625-0.124,1.269-0.219,1.927-0.282c0.658-0.062,1.331-0.155,2.021-0.281c0.25-0.062,0.658-0.078,1.222-0.047
				s0.908-0.016,1.034-0.142c4.386-0.062,8.208,0.439,11.468,1.504c3.258,1.066,5.546,3.103,6.862,6.11
				c0.564,1.254,0.893,2.711,0.987,4.371c0.094,1.66,0.141,3.4,0.141,5.217v20.773c0,0.879,0.031,1.725,0.094,2.539
				c0.062,0.814,0.25,1.473,0.564,1.974c0.313,0.438,0.72,0.752,1.222,0.94c0.564,0.25,1.096,0.422,1.598,0.517
				c0.5,0.094,0.876,0.392,1.128,0.893c0.125,0.188,0.188,0.376,0.188,0.563C55.768,170.69,55.799,170.941,55.862,171.255z
				 M42.42,160.82c0.376-0.877,0.579-1.895,0.611-3.055c0.031-1.158,0.047-2.365,0.047-3.619c0-0.688-0.033-1.316-0.094-1.88
				c-0.063-0.563-0.314-1.001-0.752-1.315c-0.188-0.125-0.627-0.188-1.316-0.188c-0.126,0.126-0.345,0.188-0.658,0.188
				c-0.314,0-0.596,0.062-0.846,0.188c-0.502,0.127-1.066,0.251-1.692,0.376c-0.627,0.126-1.254,0.251-1.88,0.376
				c-0.188,0-0.392,0.016-0.611,0.047c-0.22,0.033-0.456,0.047-0.705,0.047c-0.94,0.252-1.959,0.393-3.055,0.424
				c-1.097,0.031-2.115,0.173-3.055,0.422c-0.502,0.127-0.956,0.235-1.363,0.33c-0.408,0.094-0.862,0.203-1.363,0.328
				c-1.003,0.314-1.943,0.705-2.82,1.176c-0.878,0.47-1.63,1.05-2.256,1.738c-0.627,0.69-1.097,1.521-1.41,2.491
				c-0.314,0.973-0.439,2.147-0.376,3.524c0,0.628,0.108,1.208,0.329,1.74c0.219,0.533,0.485,1.019,0.799,1.457
				c0.5,0.689,1.159,1.269,1.974,1.738c0.814,0.471,1.692,0.862,2.632,1.176c0.312,0.062,0.625,0.094,0.94,0.094
				c0.313,0,0.625,0.031,0.94,0.094c0.438,0.126,0.987,0.204,1.645,0.234c0.658,0.033,1.206-0.014,1.645-0.141
				c0.376-0.125,0.752-0.172,1.128-0.141c0.376,0.032,0.752-0.016,1.128-0.141c0.501-0.125,0.987-0.219,1.457-0.283
				c0.47-0.061,0.924-0.188,1.363-0.375c1.816-0.752,3.368-1.66,4.653-2.727C40.743,164.08,41.729,162.639,42.42,160.82z"/>
		</g>
		<g>
			<path fill="#29ABE2" d="M83.906,125.007c5.076-0.125,9.322,0.627,12.738,2.256c3.414,1.63,6.125,3.948,8.131,6.956
				c1.002,1.504,1.754,3.229,2.256,5.17c0.125,0.314,0.234,0.721,0.328,1.223s0.078,0.939-0.047,1.315
				c-0.25,0.69-0.689,1.081-1.316,1.175s-1.379,0.141-2.256,0.141h-4.887c-0.564,0-1.145,0-1.74,0s-1.08-0.125-1.457-0.375
				c-0.502-0.25-0.846-0.643-1.033-1.176c-0.188-0.531-0.439-1.08-0.752-1.645c-0.377-0.689-0.785-1.316-1.223-1.881
				c-0.439-0.563-0.939-1.064-1.504-1.504c-0.877-0.563-1.85-1.001-2.914-1.315c-0.375-0.125-0.752-0.188-1.127-0.188
				c-0.377,0-0.723-0.061-1.035-0.188h-0.939c-1.254,0-2.256,0.127-3.008,0.376c-1.818,0.563-3.291,1.427-4.418,2.585
				c-1.129,1.16-2.037,2.555-2.727,4.184c-0.314,0.689-0.549,1.426-0.705,2.209s-0.328,1.613-0.516,2.49
				c-0.064,0.252-0.096,0.502-0.096,0.752c0,0.252-0.031,0.502-0.094,0.752c-0.125,0.627-0.172,1.504-0.141,2.633
				c0.031,1.127,0.109,2.006,0.234,2.631c0,0.503,0.031,0.847,0.096,1.035c0.123,0.438,0.201,0.878,0.234,1.315
				c0.031,0.438,0.109,0.878,0.234,1.315c0.502,1.443,1.096,2.759,1.787,3.949c0.688,1.19,1.564,2.193,2.631,3.008
				c0.25,0.188,0.627,0.408,1.129,0.658c0.688,0.438,1.393,0.721,2.115,0.846c0.719,0.126,1.611,0.251,2.678,0.375
				c0.125,0,0.312,0,0.564,0c0.25,0,0.438-0.03,0.564-0.094h0.846c0.438-0.125,0.861-0.234,1.27-0.328
				c0.406-0.094,0.799-0.203,1.174-0.33c1.881-0.812,3.322-2.004,4.324-3.571c0.25-0.313,0.471-0.673,0.658-1.081
				c0.188-0.406,0.344-0.767,0.471-1.081c0.25-0.688,0.469-1.3,0.658-1.833c0.188-0.531,0.625-0.955,1.314-1.27
				c0.564-0.249,1.473-0.359,2.727-0.328c1.254,0.032,2.288,0.047,3.102,0.047c0.438,0,0.895-0.015,1.363-0.047
				c0.471-0.031,0.861,0.016,1.176,0.141h0.752c0.25,0.062,0.5,0.11,0.752,0.141c0.25,0.033,0.438,0.111,0.564,0.235
				c0.312,0.251,0.516,0.611,0.609,1.081c0.096,0.471,0.078,0.956-0.047,1.457c-0.562,2.068-1.254,3.917-2.066,5.546
				c-2.57,4.827-6.676,8.179-12.315,10.058c-0.627,0.188-1.285,0.33-1.975,0.424s-1.379,0.234-2.068,0.423
				c-0.375,0.062-0.752,0.094-1.127,0.094c-0.377,0-0.752,0.03-1.129,0.095h-1.033c-0.314,0.124-0.785,0.172-1.41,0.141
				c-0.627-0.033-1.098-0.08-1.41-0.141c-0.502-0.127-0.957-0.174-1.363-0.142c-0.408,0.03-0.832-0.017-1.27-0.142
				c-0.314-0.062-0.627-0.109-0.939-0.141c-0.314-0.032-0.627-0.079-0.939-0.141c-0.691-0.188-1.35-0.376-1.975-0.564
				c-0.627-0.188-1.223-0.406-1.785-0.658c-2.947-1.252-5.422-2.867-7.426-4.84c-2.008-1.975-3.637-4.434-4.889-7.38
				c-0.314-0.563-0.564-1.175-0.752-1.833s-0.376-1.33-0.564-2.021c-0.063-0.249-0.094-0.484-0.094-0.704s-0.063-0.485-0.188-0.8
				c-0.126-0.438-0.188-0.893-0.188-1.362s-0.063-0.924-0.188-1.363v-1.598c-0.126-0.313-0.188-0.673-0.188-1.081
				c0-0.406,0.062-0.767,0.188-1.081c0.062-0.313,0.062-0.595,0-0.847c-0.063-0.249-0.063-0.5,0-0.752
				c0.125-0.438,0.172-0.846,0.141-1.222c-0.032-0.376,0.015-0.752,0.141-1.128c0.312-1.128,0.564-2.209,0.752-3.242
				c0.188-1.035,0.47-2.053,0.846-3.056c1.377-3.196,3.118-5.858,5.217-7.989s4.777-3.854,8.037-5.171
				c0.877-0.376,1.785-0.642,2.727-0.799c0.939-0.155,1.91-0.36,2.914-0.61c0.5-0.062,0.971-0.095,1.408-0.095
				C82.935,125.101,83.404,125.07,83.906,125.007z"/>
			<path fill="#29ABE2" d="M143.406,125.101c2.318-0.062,4.355,0.188,6.111,0.752c1.754,0.563,3.289,1.349,4.605,2.351
				c0.5,0.375,0.955,0.814,1.363,1.315c0.406,0.503,0.861,1.003,1.363,1.504c0.125,0.126,0.328,0.298,0.611,0.517
				c0.281,0.221,0.578,0.268,0.893,0.142c0.688-0.188,1.346-0.642,1.973-1.362s1.223-1.27,1.787-1.646
				c0.877-0.688,1.816-1.269,2.82-1.739c1.002-0.47,2.129-0.924,3.383-1.363c0.502-0.125,1.113-0.234,1.834-0.328
				c0.719-0.095,1.471-0.156,2.256-0.188c0.783-0.03,1.535-0.015,2.256,0.047c0.719,0.063,1.363,0.157,1.928,0.282
				c0.312,0.062,0.594,0.094,0.846,0.094c0.25,0,0.531,0.063,0.846,0.188c0.877,0.252,1.723,0.503,2.537,0.752
				c0.814,0.252,1.566,0.598,2.256,1.035c2.633,1.63,4.607,4.011,5.924,7.144c0.248,0.563,0.438,1.144,0.562,1.739
				s0.25,1.175,0.377,1.738c0.061,0.439,0.107,0.846,0.141,1.223c0.031,0.376,0.078,0.752,0.141,1.128v0.94
				c0.062,0.375,0.078,0.814,0.047,1.315c-0.031,0.503-0.047,0.972-0.047,1.41v5.452v18.33c0,0.502,0.016,1.08,0.047,1.738
				s0.031,1.285,0,1.881s-0.109,1.16-0.234,1.691c-0.127,0.533-0.314,0.893-0.564,1.081c-0.375,0.314-0.861,0.486-1.457,0.517
				c-0.596,0.033-1.238,0.047-1.926,0.047h-4.982c-0.879,0-1.662-0.061-2.35-0.188c-0.691-0.125-1.162-0.471-1.41-1.034
				c-0.189-0.438-0.283-0.924-0.283-1.457c0-0.531,0-1.048,0-1.551v-5.265v-12.689v-3.947c0-0.313,0.016-0.658,0.047-1.035
				c0.031-0.375-0.016-0.719-0.141-1.033v-0.752c0-0.377,0-0.752,0-1.129c0-0.375-0.031-0.752-0.094-1.127
				c-0.062-0.25-0.094-0.518-0.094-0.799c0-0.283-0.033-0.549-0.094-0.8c-0.252-0.94-0.518-1.77-0.799-2.491
				c-0.283-0.719-0.705-1.363-1.27-1.927c-0.879-0.877-1.943-1.504-3.195-1.88c-0.252-0.062-0.471-0.078-0.658-0.047
				c-0.189,0.032-0.408-0.015-0.658-0.141c-0.252-0.062-0.549-0.109-0.893-0.142c-0.346-0.03-0.676-0.015-0.988,0.047
				c-0.375,0.126-0.752,0.188-1.127,0.188c-0.377,0-0.752,0.062-1.129,0.188c-1.818,0.627-3.135,1.567-3.947,2.82
				c-1.066,1.442-1.709,3.243-1.928,5.404c-0.221,2.162-0.328,4.529-0.328,7.098v12.408v6.955c0,0.628,0,1.255,0,1.881
				c0,0.627-0.158,1.128-0.471,1.504c-0.314,0.439-0.768,0.705-1.363,0.799s-1.27,0.141-2.021,0.141h-5.074
				c-0.564,0-1.113-0.014-1.646-0.047c-0.533-0.03-0.986-0.108-1.363-0.234c-0.627-0.312-0.986-0.814-1.08-1.504
				s-0.141-1.473-0.141-2.351v-7.989v-14.758c0-1.817-0.064-3.541-0.188-5.171c-0.127-1.628-0.533-2.976-1.223-4.042
				c-0.502-0.877-1.145-1.535-1.928-1.974s-1.738-0.813-2.867-1.128c-0.25-0.062-0.502-0.078-0.752-0.047s-0.533,0.016-0.846-0.047
				c-0.689-0.125-1.348-0.062-1.975,0.188c-0.125,0-0.25,0.016-0.375,0.047c-0.127,0.032-0.252,0.047-0.377,0.047
				c-1.002,0.314-1.973,0.846-2.914,1.598c-1.002,0.752-1.77,1.615-2.303,2.586c-0.533,0.973-0.908,2.068-1.127,3.289
				c-0.221,1.223-0.346,2.555-0.377,3.996s-0.047,3.008-0.047,4.699v12.69v5.733c0,0.564,0,1.129,0,1.692s-0.094,1.066-0.281,1.504
				c-0.252,0.563-0.721,0.909-1.41,1.034c-0.691,0.127-1.473,0.188-2.35,0.188h-4.889c-0.627,0-1.238-0.014-1.832-0.047
				c-0.598-0.03-1.082-0.172-1.457-0.423c-0.564-0.312-0.863-0.893-0.895-1.739c-0.031-0.846-0.047-1.738-0.047-2.679V158.94
				v-22.936v-5.64c0-0.689,0.016-1.301,0.047-1.834c0.031-0.531,0.172-0.986,0.424-1.363c0.312-0.375,0.814-0.625,1.504-0.752h0.564
				c0.312-0.061,0.641-0.094,0.986-0.094c0.344,0,0.674,0,0.986,0h3.855c0.5,0,0.986,0.017,1.457,0.047
				c0.469,0.033,0.893,0.111,1.268,0.235c0.502,0.188,0.83,0.503,0.988,0.94c0.154,0.439,0.297,0.939,0.422,1.504
				c0.062,0.188,0.078,0.361,0.047,0.517c-0.031,0.157,0.016,0.298,0.143,0.423c0.061,0.188,0.141,0.33,0.234,0.424
				s0.203,0.203,0.328,0.328c0.752,0.063,1.379-0.172,1.881-0.705c0.5-0.531,0.971-0.954,1.41-1.269
				c0.877-0.626,1.77-1.189,2.678-1.692c0.908-0.5,1.896-0.907,2.963-1.222c0.562-0.188,1.127-0.312,1.691-0.376
				c0.564-0.062,1.158-0.156,1.785-0.281c0.189-0.062,0.471-0.078,0.846-0.048C143.031,125.18,143.281,125.164,143.406,125.101z"/>
		</g>
	</g>
	<g>
		<path fill="#0071BC" d="M16.424,183.434l-2.969,10.363h-1.503l-2.7-10.075c-0.111-0.421-0.213-0.764-0.306-1.03
			c-0.093-0.266-0.186-0.475-0.278-0.625c-0.093-0.152-0.193-0.267-0.301-0.344c-0.108-0.078-0.265-0.145-0.469-0.199v-0.455h3.971
			v0.455c-0.384,0.074-0.651,0.186-0.803,0.334c-0.151,0.148-0.227,0.355-0.227,0.621c0,0.217,0.028,0.473,0.083,0.77
			s0.133,0.635,0.232,1.012l1.865,7.329l2.987-10.521h1.559l2.421,10.529l2.189-7.078c0.266-0.859,0.399-1.472,0.399-1.837
			c0-0.377-0.079-0.649-0.236-0.816c-0.158-0.167-0.419-0.281-0.784-0.343v-0.455h3.655v0.455c-0.186,0.062-0.334,0.131-0.445,0.209
			c-0.111,0.076-0.218,0.182-0.32,0.314c-0.102,0.133-0.213,0.339-0.334,0.617c-0.12,0.278-0.261,0.652-0.422,1.123l-3.377,10.01
			h-1.327L16.424,183.434z"/>
		<path fill="#0071BC" d="M30.628,192.405l-0.139-0.037c-0.538,0.551-1.044,0.94-1.517,1.169c-0.474,0.229-0.976,0.344-1.508,0.344
			c-0.47,0-0.885-0.092-1.243-0.273c-0.359-0.184-0.634-0.439-0.826-0.771c-0.192-0.33-0.288-0.712-0.288-1.145
			c0-0.903,0.447-1.602,1.341-2.092c0.894-0.492,2.234-0.778,4.021-0.859v-0.603c0-0.644-0.062-1.15-0.186-1.521
			c-0.124-0.371-0.319-0.644-0.584-0.816c-0.266-0.173-0.622-0.26-1.067-0.26c-0.482,0-0.871,0.127-1.164,0.38
			c-0.294,0.254-0.515,0.635-0.664,1.142H25.59v-1.206c0.594-0.309,1.088-0.537,1.484-0.682c0.396-0.146,0.792-0.26,1.188-0.344
			c0.396-0.084,0.798-0.125,1.206-0.125c0.612,0,1.104,0.098,1.475,0.293c0.371,0.193,0.649,0.492,0.835,0.895
			s0.278,1.008,0.278,1.818v3.229c0,0.458,0.003,0.781,0.009,0.969c0.006,0.189,0.024,0.364,0.056,0.525
			c0.031,0.16,0.077,0.289,0.139,0.385c0.062,0.096,0.153,0.178,0.274,0.246c0.12,0.068,0.316,0.139,0.589,0.213v0.455h-2.542
			L30.628,192.405z M30.47,189.502c-1.256,0.012-2.196,0.18-2.82,0.5c-0.625,0.322-0.937,0.808-0.937,1.457
			c0,0.353,0.071,0.631,0.213,0.835c0.142,0.204,0.321,0.345,0.538,0.423c0.216,0.076,0.473,0.115,0.77,0.115
			c0.42,0,0.802-0.102,1.146-0.307c0.343-0.203,0.61-0.463,0.802-0.779c0.191-0.314,0.288-0.627,0.288-0.937V189.502z"/>
		<path fill="#0071BC" d="M40.759,186.895h-0.891c-0.136-0.371-0.297-0.664-0.482-0.877s-0.396-0.363-0.631-0.449
			c-0.235-0.087-0.523-0.131-0.863-0.131c-0.495,0-0.889,0.117-1.183,0.348c-0.294,0.232-0.441,0.55-0.441,0.951
			c0,0.285,0.059,0.52,0.176,0.705c0.117,0.186,0.3,0.359,0.547,0.52c0.247,0.162,0.683,0.375,1.308,0.641
			c0.631,0.272,1.118,0.523,1.461,0.752c0.344,0.229,0.612,0.494,0.808,0.797c0.194,0.304,0.292,0.666,0.292,1.086
			c0,0.488-0.083,0.9-0.25,1.234s-0.402,0.605-0.705,0.816c-0.303,0.21-0.664,0.361-1.081,0.454c-0.418,0.093-0.874,0.14-1.369,0.14
			c-0.52,0-1.024-0.039-1.512-0.117c-0.489-0.076-0.965-0.177-1.429-0.301v-1.939h0.909c0.167,0.57,0.414,0.982,0.742,1.238
			c0.328,0.258,0.779,0.386,1.354,0.386c0.223,0,0.44-0.022,0.654-0.069c0.213-0.047,0.403-0.124,0.57-0.232
			c0.167-0.107,0.3-0.255,0.399-0.44c0.099-0.186,0.148-0.417,0.148-0.696c0-0.314-0.062-0.571-0.186-0.77
			c-0.124-0.197-0.315-0.379-0.575-0.543s-0.718-0.385-1.373-0.663c-0.563-0.235-1.015-0.464-1.354-0.687
			c-0.34-0.223-0.608-0.485-0.802-0.789c-0.195-0.303-0.292-0.661-0.292-1.076c0-0.506,0.138-0.947,0.413-1.322
			c0.275-0.373,0.673-0.659,1.192-0.857c0.52-0.197,1.128-0.297,1.828-0.297c0.408,0,0.802,0.02,1.183,0.061
			c0.38,0.04,0.858,0.119,1.433,0.236V186.895z"/>
		<path fill="#0071BC" d="M45.193,186.319l0.037,0.009c0.482-0.488,0.864-0.83,1.146-1.025c0.281-0.193,0.56-0.341,0.835-0.439
			c0.275-0.1,0.57-0.148,0.886-0.148c0.34,0,0.643,0.04,0.909,0.12c0.266,0.081,0.5,0.202,0.7,0.366
			c0.201,0.164,0.365,0.365,0.492,0.604c0.126,0.238,0.221,0.522,0.283,0.854c0.062,0.33,0.093,0.75,0.093,1.257v3.497
			c0,0.539,0.023,0.904,0.07,1.1c0.046,0.195,0.13,0.347,0.25,0.455c0.121,0.107,0.363,0.212,0.729,0.311v0.455h-3.655v-0.455
			c0.241-0.074,0.414-0.139,0.52-0.195c0.105-0.055,0.193-0.133,0.265-0.231c0.071-0.099,0.126-0.252,0.167-0.46
			c0.04-0.207,0.06-0.52,0.06-0.941v-2.43c0-0.822-0.042-1.453-0.125-1.889c-0.083-0.436-0.247-0.762-0.491-0.979
			c-0.245-0.217-0.586-0.324-1.025-0.324c-0.248,0-0.47,0.043-0.668,0.129c-0.198,0.088-0.427,0.242-0.687,0.465
			s-0.456,0.451-0.589,0.686c-0.133,0.236-0.2,0.486-0.2,0.752v3.553c0,0.422,0.011,0.721,0.033,0.9
			c0.021,0.18,0.063,0.33,0.125,0.449c0.062,0.121,0.156,0.221,0.283,0.297c0.126,0.078,0.323,0.15,0.589,0.219v0.455h-3.674v-0.455
			c0.272-0.074,0.467-0.145,0.584-0.213c0.117-0.068,0.208-0.154,0.274-0.26c0.064-0.105,0.112-0.257,0.144-0.455
			c0.031-0.197,0.046-0.51,0.046-0.938v-7.765c0-0.594-0.004-1.008-0.014-1.243c-0.009-0.234-0.034-0.435-0.074-0.598
			c-0.04-0.164-0.096-0.293-0.167-0.386c-0.071-0.093-0.167-0.167-0.287-0.223c-0.121-0.056-0.339-0.111-0.654-0.167v-0.482
			l2.236-0.093h0.557V186.319z"/>
		<path fill="#0071BC" d="M53.19,193.277c0.241-0.074,0.413-0.139,0.515-0.195c0.102-0.055,0.188-0.133,0.26-0.231
			c0.071-0.099,0.126-0.251,0.167-0.454c0.04-0.205,0.06-0.523,0.06-0.956v-4.045c0-0.396-0.006-0.714-0.019-0.956
			c-0.013-0.24-0.056-0.434-0.13-0.58c-0.074-0.145-0.187-0.253-0.338-0.324c-0.152-0.07-0.367-0.131-0.645-0.181v-0.491
			l2.162-0.084h0.566v6.633c0,0.533,0.024,0.902,0.074,1.109c0.049,0.207,0.144,0.365,0.283,0.473
			c0.14,0.108,0.367,0.203,0.682,0.283v0.455H53.19V193.277z M55.844,181.227v1.799h-1.707v-1.799H55.844z"/>
		<path fill="#0071BC" d="M67.505,193.732H63.85v-0.455c0.241-0.074,0.414-0.139,0.52-0.195c0.105-0.055,0.193-0.133,0.264-0.231
			c0.071-0.099,0.127-0.252,0.167-0.46c0.041-0.207,0.061-0.52,0.061-0.941v-2.43c0-0.434-0.013-0.826-0.037-1.179
			c-0.025-0.353-0.066-0.642-0.125-0.868c-0.059-0.225-0.13-0.401-0.214-0.527c-0.083-0.127-0.182-0.236-0.297-0.326
			c-0.114-0.089-0.246-0.16-0.394-0.213s-0.343-0.078-0.584-0.078s-0.47,0.047-0.687,0.143c-0.217,0.097-0.455,0.262-0.714,0.497
			s-0.449,0.468-0.566,0.696c-0.118,0.229-0.176,0.491-0.176,0.788v3.46c0,0.533,0.024,0.902,0.074,1.109
			c0.049,0.207,0.144,0.365,0.283,0.473c0.14,0.108,0.367,0.203,0.682,0.283v0.455h-3.637v-0.455
			c0.241-0.074,0.413-0.139,0.515-0.195c0.102-0.055,0.188-0.133,0.26-0.231c0.071-0.099,0.126-0.251,0.167-0.454
			c0.04-0.205,0.06-0.523,0.06-0.956v-4.045c0-0.396-0.006-0.714-0.019-0.956c-0.013-0.24-0.056-0.434-0.13-0.58
			c-0.074-0.145-0.187-0.253-0.338-0.324c-0.152-0.07-0.367-0.131-0.645-0.181v-0.491l2.171-0.084h0.566l-0.102,1.512l0.13,0.037
			c0.458-0.463,0.827-0.794,1.109-0.992c0.281-0.197,0.565-0.352,0.854-0.459c0.287-0.108,0.592-0.162,0.914-0.162
			c0.334,0,0.632,0.038,0.895,0.115c0.263,0.078,0.495,0.197,0.696,0.357c0.201,0.161,0.366,0.36,0.496,0.598
			c0.13,0.238,0.228,0.525,0.292,0.859c0.065,0.334,0.098,0.758,0.098,1.271v3.497c0,0.428,0.012,0.736,0.037,0.928
			c0.024,0.192,0.068,0.341,0.13,0.445c0.062,0.105,0.151,0.193,0.269,0.266c0.117,0.07,0.321,0.146,0.612,0.227V193.732z"/>
		<path fill="#0071BC" d="M77.395,185.8l-1.716-0.065l-0.083,0.103c0.191,0.192,0.343,0.453,0.455,0.784
			c0.111,0.33,0.167,0.688,0.167,1.071c0,1.009-0.311,1.786-0.932,2.333c-0.622,0.547-1.505,0.821-2.649,0.821
			c-0.514,0-0.956-0.065-1.327-0.194c-0.47,0.358-0.705,0.711-0.705,1.057c0,0.229,0.045,0.402,0.135,0.52
			c0.089,0.118,0.238,0.201,0.445,0.251c0.207,0.05,0.521,0.074,0.941,0.074h2.227c0.655,0,1.19,0.103,1.605,0.306
			c0.414,0.205,0.709,0.479,0.886,0.822c0.176,0.342,0.264,0.742,0.264,1.201c0,0.58-0.167,1.1-0.501,1.553
			c-0.334,0.455-0.816,0.809-1.447,1.062s-1.367,0.381-2.208,0.381c-0.625,0-1.195-0.037-1.711-0.111
			c-0.517-0.074-0.959-0.199-1.327-0.375c-0.368-0.178-0.652-0.408-0.854-0.697c-0.201-0.287-0.301-0.647-0.301-1.08
			c0-0.39,0.13-0.744,0.39-1.062s0.627-0.598,1.104-0.84c-0.291-0.117-0.52-0.29-0.687-0.52c-0.167-0.229-0.25-0.497-0.25-0.807
			c0-0.353,0.099-0.676,0.297-0.969c0.198-0.295,0.547-0.63,1.048-1.008c-0.445-0.26-0.784-0.611-1.016-1.057
			c-0.232-0.445-0.348-0.953-0.348-1.521c0-0.532,0.088-0.994,0.264-1.387c0.177-0.394,0.421-0.719,0.733-0.975
			c0.312-0.257,0.682-0.449,1.108-0.576c0.427-0.126,0.887-0.189,1.382-0.189c0.445,0,0.887,0.053,1.327,0.158h3.284V185.8z
			 M71.188,193.881c-0.315,0.234-0.552,0.483-0.709,0.746c-0.158,0.264-0.237,0.562-0.237,0.896c0,0.557,0.221,0.966,0.664,1.229
			c0.442,0.263,1.118,0.395,2.027,0.395c0.557,0,1.035-0.074,1.433-0.223c0.399-0.148,0.704-0.362,0.914-0.641
			c0.21-0.278,0.315-0.604,0.315-0.975c0-0.173-0.022-0.342-0.065-0.506c-0.043-0.163-0.125-0.311-0.246-0.439
			c-0.121-0.131-0.292-0.234-0.515-0.311c-0.223-0.078-0.514-0.117-0.872-0.117h-1.382
			C72.014,193.936,71.572,193.918,71.188,193.881z M70.957,187.684c0,0.773,0.158,1.369,0.473,1.79s0.77,0.631,1.364,0.631
			c0.315,0,0.584-0.06,0.807-0.181s0.404-0.286,0.542-0.496c0.14-0.211,0.241-0.453,0.307-0.729
			c0.064-0.275,0.097-0.564,0.097-0.867c0-0.545-0.078-0.999-0.232-1.364c-0.155-0.364-0.365-0.632-0.631-0.802
			c-0.266-0.171-0.572-0.256-0.918-0.256c-0.588,0-1.036,0.195-1.345,0.584C71.111,186.385,70.957,186.947,70.957,187.684z"/>
		<path fill="#0071BC" d="M77.905,185.326c0.309-0.049,0.56-0.135,0.751-0.26c0.191-0.123,0.342-0.283,0.45-0.477
			c0.108-0.195,0.193-0.439,0.255-0.734c0.062-0.293,0.126-0.721,0.195-1.284h1.317v2.292h2.997v0.937h-2.997v4.128
			c0,0.601,0.024,1.078,0.074,1.434c0.049,0.355,0.142,0.635,0.278,0.836c0.136,0.2,0.291,0.344,0.464,0.431
			c0.173,0.087,0.396,0.13,0.668,0.13c0.247,0,0.479-0.051,0.696-0.152c0.216-0.104,0.43-0.25,0.64-0.441l0.417,0.501
			c-0.439,0.427-0.855,0.736-1.248,0.928c-0.393,0.191-0.799,0.288-1.22,0.288c-0.798,0-1.392-0.236-1.781-0.711
			c-0.39-0.473-0.584-1.213-0.584-2.221V185.8h-1.373V185.326z"/>
		<path fill="#0071BC" d="M88.76,193.881c-1.287,0-2.269-0.379-2.945-1.137c-0.678-0.758-1.016-1.879-1.016-3.363
			c0-1.021,0.178-1.883,0.534-2.588c0.355-0.705,0.842-1.23,1.461-1.572c0.618-0.344,1.323-0.516,2.115-0.516
			c1.323,0,2.325,0.385,3.006,1.154c0.68,0.771,1.021,1.877,1.021,3.317c0,1.026-0.17,1.893-0.51,2.598
			c-0.34,0.705-0.823,1.232-1.447,1.581C90.352,193.705,89.613,193.881,88.76,193.881z M86.552,189.186
			c0,1.275,0.203,2.254,0.607,2.938c0.405,0.683,0.985,1.024,1.74,1.024c0.414,0,0.767-0.101,1.058-0.302
			c0.291-0.201,0.527-0.471,0.709-0.812c0.183-0.34,0.314-0.734,0.395-1.183c0.08-0.449,0.121-0.917,0.121-1.406
			c0-0.908-0.101-1.663-0.301-2.264c-0.201-0.6-0.475-1.04-0.821-1.322c-0.347-0.281-0.742-0.422-1.188-0.422
			c-0.749,0-1.322,0.325-1.721,0.975C86.751,187.062,86.552,187.986,86.552,189.186z"/>
		<path fill="#0071BC" d="M103.845,193.732h-3.655v-0.455c0.241-0.074,0.414-0.139,0.52-0.195c0.105-0.055,0.193-0.133,0.264-0.231
			c0.072-0.099,0.126-0.252,0.167-0.46c0.04-0.207,0.061-0.52,0.061-0.941v-2.43c0-0.434-0.014-0.826-0.037-1.179
			c-0.025-0.353-0.066-0.642-0.125-0.868c-0.06-0.225-0.13-0.401-0.214-0.527c-0.083-0.127-0.182-0.236-0.297-0.326
			c-0.114-0.089-0.246-0.16-0.394-0.213s-0.343-0.078-0.584-0.078s-0.47,0.047-0.687,0.143c-0.217,0.097-0.455,0.262-0.714,0.497
			s-0.449,0.468-0.566,0.696c-0.118,0.229-0.176,0.491-0.176,0.788v3.46c0,0.533,0.024,0.902,0.074,1.109
			c0.049,0.207,0.144,0.365,0.283,0.473c0.14,0.108,0.367,0.203,0.682,0.283v0.455h-3.637v-0.455
			c0.241-0.074,0.413-0.139,0.515-0.195c0.102-0.055,0.188-0.133,0.26-0.231c0.071-0.099,0.126-0.251,0.167-0.454
			c0.04-0.205,0.06-0.523,0.06-0.956v-4.045c0-0.396-0.006-0.714-0.019-0.956c-0.013-0.24-0.056-0.434-0.13-0.58
			c-0.074-0.145-0.187-0.253-0.338-0.324c-0.152-0.07-0.367-0.131-0.645-0.181v-0.491l2.171-0.084h0.566l-0.102,1.512l0.13,0.037
			c0.458-0.463,0.827-0.794,1.109-0.992c0.281-0.197,0.565-0.352,0.854-0.459c0.287-0.108,0.592-0.162,0.914-0.162
			c0.334,0,0.632,0.038,0.896,0.115c0.263,0.078,0.494,0.197,0.695,0.357c0.201,0.161,0.367,0.36,0.496,0.598
			c0.131,0.238,0.229,0.525,0.293,0.859s0.098,0.758,0.098,1.271v3.497c0,0.428,0.012,0.736,0.037,0.928
			c0.023,0.192,0.067,0.341,0.129,0.445c0.062,0.105,0.152,0.193,0.27,0.266c0.117,0.07,0.321,0.146,0.612,0.227V193.732z"/>
		<path fill="#0071BC" d="M119.134,189.354c0,0.674-0.062,1.256-0.186,1.744c-0.118,0.463-0.294,0.875-0.528,1.233
			c-0.217,0.321-0.486,0.595-0.808,0.821c-0.321,0.226-0.712,0.403-1.169,0.533c-0.458,0.13-0.996,0.195-1.614,0.195
			c-0.749,0-1.39-0.084-1.925-0.251s-0.978-0.44-1.326-0.821c-0.35-0.381-0.603-0.828-0.757-1.346
			c-0.155-0.516-0.231-1.173-0.231-1.971v-6.104c0-0.482-0.016-0.809-0.047-0.979c-0.031-0.17-0.076-0.304-0.135-0.402
			c-0.059-0.1-0.144-0.185-0.255-0.256c-0.111-0.07-0.319-0.146-0.622-0.227v-0.455h3.896v0.455
			c-0.346,0.086-0.588,0.184-0.723,0.291c-0.137,0.109-0.229,0.271-0.279,0.488c-0.049,0.217-0.074,0.578-0.074,1.085v6.568
			c0,0.601,0.064,1.104,0.191,1.513c0.126,0.408,0.304,0.725,0.533,0.951c0.229,0.225,0.5,0.389,0.816,0.49
			c0.314,0.104,0.707,0.154,1.178,0.154c0.433,0,0.812-0.076,1.141-0.229c0.328-0.15,0.602-0.381,0.822-0.69
			c0.219-0.31,0.369-0.689,0.449-1.142c0.08-0.451,0.121-1.057,0.121-1.818v-5.798c0-0.538-0.027-0.905-0.08-1.104
			c-0.052-0.197-0.139-0.349-0.26-0.454c-0.119-0.104-0.369-0.207-0.746-0.306v-0.455h3.701v0.455
			c-0.358,0.092-0.604,0.194-0.736,0.306c-0.134,0.111-0.225,0.272-0.274,0.482s-0.074,0.569-0.074,1.076V189.354z"/>
		<path fill="#0071BC" d="M130.943,193.732h-3.654v-0.455c0.24-0.074,0.414-0.139,0.52-0.195c0.104-0.055,0.193-0.133,0.264-0.231
			c0.071-0.099,0.127-0.252,0.167-0.46c0.04-0.207,0.061-0.52,0.061-0.941v-2.43c0-0.434-0.013-0.826-0.037-1.179
			s-0.066-0.642-0.125-0.868c-0.06-0.225-0.13-0.401-0.214-0.527c-0.083-0.127-0.182-0.236-0.297-0.326
			c-0.114-0.089-0.246-0.16-0.395-0.213s-0.343-0.078-0.584-0.078s-0.471,0.047-0.687,0.143c-0.217,0.097-0.454,0.262-0.714,0.497
			s-0.449,0.468-0.566,0.696s-0.176,0.491-0.176,0.788v3.46c0,0.533,0.023,0.902,0.074,1.109c0.049,0.207,0.144,0.365,0.282,0.473
			c0.14,0.108,0.366,0.203,0.683,0.283v0.455h-3.637v-0.455c0.24-0.074,0.412-0.139,0.515-0.195c0.102-0.055,0.188-0.133,0.26-0.231
			s0.126-0.251,0.167-0.454c0.04-0.205,0.061-0.523,0.061-0.956v-4.045c0-0.396-0.007-0.714-0.02-0.956
			c-0.012-0.24-0.055-0.434-0.129-0.58c-0.074-0.145-0.188-0.253-0.339-0.324c-0.151-0.07-0.366-0.131-0.646-0.181v-0.491
			l2.172-0.084h0.565l-0.103,1.512l0.131,0.037c0.457-0.463,0.826-0.794,1.108-0.992c0.281-0.197,0.565-0.352,0.854-0.459
			c0.287-0.108,0.592-0.162,0.913-0.162c0.334,0,0.633,0.038,0.896,0.115c0.263,0.078,0.495,0.197,0.696,0.357
			c0.201,0.161,0.366,0.36,0.496,0.598c0.13,0.238,0.228,0.525,0.292,0.859c0.065,0.334,0.098,0.758,0.098,1.271v3.497
			c0,0.428,0.013,0.736,0.037,0.928c0.024,0.192,0.067,0.341,0.13,0.445c0.062,0.105,0.151,0.193,0.27,0.266
			c0.117,0.07,0.32,0.146,0.611,0.227V193.732z"/>
		<path fill="#0071BC" d="M132.512,193.277c0.241-0.074,0.412-0.139,0.516-0.195c0.102-0.055,0.188-0.133,0.26-0.231
			c0.07-0.099,0.126-0.251,0.166-0.454c0.041-0.205,0.061-0.523,0.061-0.956v-4.045c0-0.396-0.006-0.714-0.019-0.956
			c-0.013-0.24-0.056-0.434-0.13-0.58c-0.074-0.145-0.188-0.253-0.338-0.324c-0.152-0.07-0.367-0.131-0.646-0.181v-0.491
			l2.161-0.084h0.566v6.633c0,0.533,0.024,0.902,0.074,1.109c0.049,0.207,0.145,0.365,0.283,0.473
			c0.139,0.108,0.366,0.203,0.682,0.283v0.455h-3.637V193.277z M135.165,181.227v1.799h-1.707v-1.799H135.165z"/>
		<path fill="#0071BC" d="M140.472,184.863v0.454c-0.284,0.068-0.485,0.134-0.603,0.194c-0.118,0.062-0.206,0.143-0.266,0.242
			c-0.059,0.099-0.088,0.231-0.088,0.398s0.021,0.342,0.061,0.523c0.041,0.184,0.104,0.395,0.19,0.637l1.614,4.693l1.893-4.499
			c0.123-0.297,0.21-0.541,0.26-0.733c0.049-0.191,0.074-0.371,0.074-0.537c0-0.26-0.07-0.458-0.209-0.594
			c-0.139-0.137-0.395-0.244-0.766-0.325v-0.454h3.471v0.454c-0.242,0.05-0.428,0.126-0.557,0.228
			c-0.131,0.102-0.26,0.263-0.391,0.482c-0.129,0.219-0.284,0.527-0.463,0.923l-3.127,6.874h-1.095l-2.515-6.93
			c-0.173-0.477-0.311-0.803-0.412-0.979s-0.213-0.308-0.334-0.395c-0.121-0.086-0.296-0.154-0.524-0.204v-0.454H140.472z"/>
		<path fill="#0071BC" d="M154.026,192.154c-0.396,0.415-0.76,0.74-1.09,0.975c-0.332,0.235-0.695,0.419-1.09,0.553
			c-0.396,0.133-0.832,0.199-1.309,0.199c-1.274,0-2.236-0.383-2.886-1.146s-0.975-1.891-0.975-3.381
			c0-0.922,0.166-1.735,0.496-2.44c0.332-0.705,0.803-1.249,1.416-1.633c0.611-0.384,1.316-0.575,2.114-0.575
			c0.625,0,1.156,0.1,1.596,0.297c0.439,0.198,0.791,0.469,1.053,0.812c0.264,0.342,0.467,0.775,0.613,1.299
			c0.145,0.521,0.227,1.204,0.246,2.045h-5.845v0.167c0,0.729,0.082,1.344,0.246,1.841c0.163,0.498,0.432,0.889,0.807,1.17
			c0.374,0.281,0.86,0.422,1.462,0.422c0.506,0,0.963-0.094,1.367-0.283c0.404-0.188,0.809-0.496,1.211-0.923L154.026,192.154z
			 M152.468,188.389c-0.037-0.668-0.121-1.215-0.25-1.639c-0.131-0.423-0.326-0.748-0.586-0.973c-0.26-0.227-0.6-0.34-1.02-0.34
			c-0.638,0-1.146,0.256-1.526,0.766s-0.605,1.238-0.673,2.186H152.468z"/>
		<path fill="#0071BC" d="M158.386,186.402l0.131,0.028c0.34-0.414,0.655-0.741,0.945-0.979c0.291-0.237,0.604-0.422,0.942-0.551
			c0.337-0.131,0.719-0.195,1.146-0.195c0.358,0,0.684,0.019,0.975,0.056v2.134h-1.049c-0.148-0.334-0.307-0.576-0.473-0.729
			c-0.168-0.151-0.396-0.227-0.688-0.227c-0.223,0-0.443,0.064-0.663,0.194s-0.431,0.319-0.636,0.565
			c-0.203,0.248-0.345,0.48-0.422,0.696c-0.077,0.217-0.115,0.474-0.115,0.771v3.246c0,0.563,0.033,0.951,0.102,1.164
			c0.068,0.215,0.181,0.371,0.339,0.469c0.157,0.1,0.394,0.177,0.71,0.232v0.455h-3.739v-0.455c0.235-0.074,0.403-0.139,0.506-0.195
			c0.102-0.055,0.19-0.133,0.265-0.231s0.129-0.251,0.166-0.454c0.037-0.205,0.057-0.523,0.057-0.956v-4.045
			c0-0.396-0.007-0.714-0.02-0.956c-0.012-0.24-0.055-0.434-0.129-0.58c-0.074-0.145-0.188-0.253-0.339-0.324
			c-0.152-0.07-0.366-0.131-0.646-0.181v-0.482l2.172-0.093h0.565L158.386,186.402z"/>
		<path fill="#0071BC" d="M169.954,186.895h-0.891c-0.136-0.371-0.297-0.664-0.482-0.877s-0.396-0.363-0.631-0.449
			c-0.234-0.087-0.522-0.131-0.862-0.131c-0.495,0-0.89,0.117-1.183,0.348c-0.294,0.232-0.441,0.55-0.441,0.951
			c0,0.285,0.06,0.52,0.177,0.705s0.3,0.359,0.548,0.52c0.247,0.162,0.683,0.375,1.308,0.641c0.631,0.272,1.118,0.523,1.461,0.752
			c0.344,0.229,0.612,0.494,0.808,0.797c0.194,0.304,0.292,0.666,0.292,1.086c0,0.488-0.083,0.9-0.251,1.234
			c-0.166,0.334-0.401,0.605-0.705,0.816c-0.303,0.21-0.663,0.361-1.08,0.454c-0.418,0.093-0.874,0.14-1.369,0.14
			c-0.52,0-1.023-0.039-1.512-0.117c-0.488-0.076-0.965-0.177-1.429-0.301v-1.939h0.909c0.167,0.57,0.414,0.982,0.742,1.238
			c0.328,0.258,0.779,0.386,1.354,0.386c0.223,0,0.44-0.022,0.654-0.069c0.213-0.047,0.403-0.124,0.57-0.232
			c0.167-0.107,0.3-0.255,0.399-0.44c0.099-0.186,0.148-0.417,0.148-0.696c0-0.314-0.062-0.571-0.186-0.77
			c-0.124-0.197-0.316-0.379-0.576-0.543s-0.717-0.385-1.373-0.663c-0.562-0.235-1.014-0.464-1.354-0.687
			c-0.341-0.223-0.608-0.485-0.803-0.789c-0.195-0.303-0.293-0.661-0.293-1.076c0-0.506,0.138-0.947,0.413-1.322
			c0.275-0.373,0.673-0.659,1.192-0.857c0.52-0.197,1.129-0.297,1.828-0.297c0.408,0,0.802,0.02,1.183,0.061
			c0.38,0.04,0.858,0.119,1.433,0.236V186.895z"/>
		<path fill="#0071BC" d="M171.903,193.277c0.24-0.074,0.412-0.139,0.515-0.195c0.102-0.055,0.188-0.133,0.26-0.231
			c0.07-0.099,0.126-0.251,0.167-0.454c0.04-0.205,0.061-0.523,0.061-0.956v-4.045c0-0.396-0.007-0.714-0.02-0.956
			c-0.012-0.24-0.055-0.434-0.129-0.58c-0.074-0.145-0.188-0.253-0.339-0.324c-0.152-0.07-0.366-0.131-0.646-0.181v-0.491
			l2.162-0.084h0.566v6.633c0,0.533,0.024,0.902,0.074,1.109c0.049,0.207,0.144,0.365,0.282,0.473
			c0.14,0.108,0.366,0.203,0.683,0.283v0.455h-3.637V193.277z M174.556,181.227v1.799h-1.707v-1.799H174.556z"/>
		<path fill="#0071BC" d="M176.626,185.326c0.309-0.049,0.56-0.135,0.751-0.26c0.191-0.123,0.342-0.283,0.45-0.477
			c0.107-0.195,0.193-0.439,0.255-0.734c0.062-0.293,0.127-0.721,0.194-1.284h1.318v2.292h2.996v0.937h-2.996v4.128
			c0,0.601,0.024,1.078,0.074,1.434c0.049,0.355,0.142,0.635,0.277,0.836c0.137,0.2,0.291,0.344,0.465,0.431
			c0.173,0.087,0.396,0.13,0.668,0.13c0.247,0,0.479-0.051,0.695-0.152c0.217-0.104,0.43-0.25,0.641-0.441l0.417,0.501
			c-0.439,0.427-0.855,0.736-1.248,0.928s-0.799,0.288-1.22,0.288c-0.798,0-1.392-0.236-1.781-0.711
			c-0.39-0.473-0.584-1.213-0.584-2.221V185.8h-1.373V185.326z"/>
		<path fill="#0071BC" d="M187.536,194.492c-0.34,0.768-0.671,1.389-0.992,1.865c-0.322,0.477-0.677,0.835-1.062,1.076
			c-0.387,0.241-0.846,0.361-1.378,0.361c-0.34,0-0.724-0.04-1.15-0.12v-1.837h0.825c0.074,0.254,0.168,0.43,0.279,0.529
			c0.111,0.098,0.271,0.148,0.482,0.148c0.186,0,0.351-0.036,0.496-0.107c0.145-0.07,0.297-0.193,0.454-0.366
			c0.158-0.173,0.344-0.439,0.557-0.798c0.214-0.359,0.453-0.813,0.72-1.363l-2.598-6.986c-0.168-0.451-0.302-0.767-0.404-0.946
			c-0.102-0.179-0.212-0.315-0.329-0.408s-0.297-0.167-0.538-0.223v-0.454h3.775v0.454c-0.29,0.068-0.494,0.134-0.611,0.2
			c-0.118,0.064-0.205,0.148-0.26,0.25c-0.057,0.102-0.084,0.233-0.084,0.395c0,0.166,0.02,0.34,0.061,0.52
			c0.04,0.18,0.104,0.389,0.189,0.631l1.652,4.647l1.855-4.453c0.104-0.247,0.187-0.475,0.245-0.683
			c0.059-0.207,0.089-0.399,0.089-0.579c0-0.266-0.073-0.467-0.219-0.603c-0.146-0.137-0.397-0.244-0.756-0.325v-0.454h3.47v0.454
			c-0.241,0.05-0.427,0.126-0.557,0.228s-0.26,0.263-0.39,0.482c-0.13,0.219-0.284,0.527-0.464,0.923L187.536,194.492z"/>
	</g>
</g>
<g id="Layer_3">
	<g>
		<rect x="15" y="114" fill="#0071BC" width="169" height="4"/>
		<polyline fill="#0071BC" points="15,112 184,112 184,89 44,89 		"/>
	</g>
	<path fill="none" stroke="#0071BC" stroke-width="4" stroke-miterlimit="10" d="M182,8c0-2.209-1.791-4-4-4H51
		c-2.209,0-4,1.791-4,4v73c0,2.209,1.791,4,4,4h127c2.209,0,4-1.791,4-4V8z"/>
</g>
</svg>
